<mxfile host="app.diagrams.net" modified="2022-09-20T07:20:24.612Z" agent="5.0 (Windows NT 10.0; Win64; x64) AppleWebKit/537.36 (KHTML, like Gecko) Chrome/105.0.0.0 Safari/537.36" etag="ol_C5Y6Xx_HLnRYNHlZr" version="20.3.2" type="github" pages="9">
  <diagram id="eFyGQszT9jP5js-CaY_l" name="Top">
    <mxGraphModel dx="3088" dy="1348" grid="1" gridSize="10" guides="1" tooltips="1" connect="1" arrows="1" fold="1" page="1" pageScale="1" pageWidth="850" pageHeight="1100" math="0" shadow="0">
      <root>
        <mxCell id="0" />
        <mxCell id="1" parent="0" />
        <mxCell id="AtJam89E-pzduX2Gn3NH-121" value="" style="endArrow=classic;html=1;rounded=0;fontSize=40;strokeWidth=1;exitX=1;exitY=0.75;exitDx=0;exitDy=0;entryX=-0.009;entryY=-0.083;entryDx=0;entryDy=0;entryPerimeter=0;" parent="1" source="AtJam89E-pzduX2Gn3NH-3" target="AtJam89E-pzduX2Gn3NH-62" edge="1">
          <mxGeometry width="50" height="50" relative="1" as="geometry">
            <mxPoint x="1270" y="750" as="sourcePoint" />
            <mxPoint x="1320" y="700" as="targetPoint" />
            <Array as="points">
              <mxPoint x="1390" y="630" />
              <mxPoint x="1390" y="710" />
              <mxPoint x="1140" y="710" />
              <mxPoint x="1140" y="798" />
            </Array>
          </mxGeometry>
        </mxCell>
        <mxCell id="AtJam89E-pzduX2Gn3NH-123" value="" style="endArrow=classic;html=1;rounded=0;fontSize=40;strokeWidth=1;entryX=1.002;entryY=0.224;entryDx=0;entryDy=0;entryPerimeter=0;" parent="1" target="AtJam89E-pzduX2Gn3NH-3" edge="1">
          <mxGeometry width="50" height="50" relative="1" as="geometry">
            <mxPoint x="1360" y="805" as="sourcePoint" />
            <mxPoint x="1180" y="560" as="targetPoint" />
            <Array as="points">
              <mxPoint x="1410" y="805" />
              <mxPoint x="1410" y="525" />
              <mxPoint x="1400" y="525" />
            </Array>
          </mxGeometry>
        </mxCell>
        <mxCell id="AtJam89E-pzduX2Gn3NH-106" value="" style="endArrow=classic;html=1;rounded=0;fontSize=40;strokeWidth=1;exitX=0.998;exitY=0.848;exitDx=0;exitDy=0;exitPerimeter=0;entryX=-0.003;entryY=0.113;entryDx=0;entryDy=0;entryPerimeter=0;" parent="1" edge="1">
          <mxGeometry width="50" height="50" relative="1" as="geometry">
            <mxPoint x="649.9999999999999" y="672.6499999999999" as="sourcePoint" />
            <mxPoint x="849.9500000000002" y="170.00000000000006" as="targetPoint" />
            <Array as="points">
              <mxPoint x="700" y="673" />
              <mxPoint x="700" y="170" />
            </Array>
          </mxGeometry>
        </mxCell>
        <mxCell id="AtJam89E-pzduX2Gn3NH-105" value="" style="endArrow=classic;html=1;rounded=0;fontSize=40;strokeWidth=1;exitX=0.998;exitY=0.848;exitDx=0;exitDy=0;exitPerimeter=0;entryX=-0.003;entryY=0.113;entryDx=0;entryDy=0;entryPerimeter=0;" parent="1" source="AtJam89E-pzduX2Gn3NH-1" target="AtJam89E-pzduX2Gn3NH-22" edge="1">
          <mxGeometry width="50" height="50" relative="1" as="geometry">
            <mxPoint x="670" y="480" as="sourcePoint" />
            <mxPoint x="720" y="430" as="targetPoint" />
            <Array as="points">
              <mxPoint x="690" y="650" />
              <mxPoint x="690" y="147" />
            </Array>
          </mxGeometry>
        </mxCell>
        <mxCell id="AtJam89E-pzduX2Gn3NH-103" value="" style="endArrow=classic;html=1;rounded=0;fontSize=40;strokeWidth=1;exitX=1;exitY=0.75;exitDx=0;exitDy=0;entryX=1;entryY=0.75;entryDx=0;entryDy=0;" parent="1" source="AtJam89E-pzduX2Gn3NH-1" target="AtJam89E-pzduX2Gn3NH-23" edge="1">
          <mxGeometry width="50" height="50" relative="1" as="geometry">
            <mxPoint x="870" y="510" as="sourcePoint" />
            <mxPoint x="770" y="290" as="targetPoint" />
            <Array as="points">
              <mxPoint x="680" y="630" />
              <mxPoint x="680" y="243" />
            </Array>
          </mxGeometry>
        </mxCell>
        <mxCell id="AtJam89E-pzduX2Gn3NH-101" value="" style="endArrow=classic;html=1;rounded=0;fontSize=40;strokeWidth=1;exitX=0.75;exitY=1;exitDx=0;exitDy=0;entryX=0;entryY=0.25;entryDx=0;entryDy=0;" parent="1" source="AtJam89E-pzduX2Gn3NH-21" target="AtJam89E-pzduX2Gn3NH-1" edge="1">
          <mxGeometry width="50" height="50" relative="1" as="geometry">
            <mxPoint x="870" y="50" as="sourcePoint" />
            <mxPoint x="920" as="targetPoint" />
            <Array as="points">
              <mxPoint x="391" y="530" />
            </Array>
          </mxGeometry>
        </mxCell>
        <mxCell id="AtJam89E-pzduX2Gn3NH-80" value="" style="endArrow=classic;html=1;rounded=0;fontSize=40;strokeWidth=1;exitX=1;exitY=0.75;exitDx=0;exitDy=0;entryX=0.997;entryY=0.335;entryDx=0;entryDy=0;entryPerimeter=0;" parent="1" source="AtJam89E-pzduX2Gn3NH-24" target="LERbhLxfTXNda7QCPUhL-2" edge="1">
          <mxGeometry width="50" height="50" relative="1" as="geometry">
            <mxPoint x="410" y="590" as="sourcePoint" />
            <mxPoint x="460" y="540" as="targetPoint" />
            <Array as="points">
              <mxPoint x="370" y="775" />
              <mxPoint x="370" y="547" />
            </Array>
          </mxGeometry>
        </mxCell>
        <mxCell id="LERbhLxfTXNda7QCPUhL-2" value="&lt;font style=&quot;font-size: 40px;&quot;&gt;IF&lt;/font&gt;" style="rounded=0;whiteSpace=wrap;html=1;" parent="1" vertex="1">
          <mxGeometry x="100" y="480" width="200" height="200" as="geometry" />
        </mxCell>
        <mxCell id="AtJam89E-pzduX2Gn3NH-1" value="&lt;font style=&quot;font-size: 40px;&quot;&gt;ID&lt;/font&gt;" style="rounded=0;whiteSpace=wrap;html=1;" parent="1" vertex="1">
          <mxGeometry x="450" y="480" width="200" height="200" as="geometry" />
        </mxCell>
        <mxCell id="AtJam89E-pzduX2Gn3NH-2" value="&lt;font style=&quot;font-size: 40px;&quot;&gt;EXE&lt;/font&gt;" style="rounded=0;whiteSpace=wrap;html=1;" parent="1" vertex="1">
          <mxGeometry x="800" y="480" width="200" height="200" as="geometry" />
        </mxCell>
        <mxCell id="AtJam89E-pzduX2Gn3NH-3" value="&lt;font style=&quot;font-size: 40px;&quot;&gt;MEM&lt;/font&gt;" style="rounded=0;whiteSpace=wrap;html=1;" parent="1" vertex="1">
          <mxGeometry x="1150" y="480" width="200" height="200" as="geometry" />
        </mxCell>
        <mxCell id="AtJam89E-pzduX2Gn3NH-4" value="&lt;font style=&quot;font-size: 40px;&quot;&gt;WB&lt;/font&gt;" style="rounded=0;whiteSpace=wrap;html=1;" parent="1" vertex="1">
          <mxGeometry x="1500" y="480" width="200" height="200" as="geometry" />
        </mxCell>
        <mxCell id="AtJam89E-pzduX2Gn3NH-16" value="" style="group" parent="1" vertex="1" connectable="0">
          <mxGeometry x="1350" y="550" width="150" height="60" as="geometry" />
        </mxCell>
        <mxCell id="AtJam89E-pzduX2Gn3NH-8" value="" style="html=1;shadow=0;dashed=0;align=center;verticalAlign=middle;shape=mxgraph.arrows2.twoWayArrow;dy=0.65;dx=22;fontSize=40;" parent="AtJam89E-pzduX2Gn3NH-16" vertex="1">
          <mxGeometry width="150" height="60" as="geometry" />
        </mxCell>
        <mxCell id="AtJam89E-pzduX2Gn3NH-13" value="Wire_MEMWB" style="text;html=1;strokeColor=none;fillColor=none;align=center;verticalAlign=middle;whiteSpace=wrap;rounded=0;fontSize=20;" parent="AtJam89E-pzduX2Gn3NH-16" vertex="1">
          <mxGeometry x="40.38461538461539" y="15" width="69.23076923076924" height="30" as="geometry" />
        </mxCell>
        <mxCell id="AtJam89E-pzduX2Gn3NH-17" value="" style="group" parent="1" vertex="1" connectable="0">
          <mxGeometry x="1000" y="550" width="150" height="60" as="geometry" />
        </mxCell>
        <mxCell id="AtJam89E-pzduX2Gn3NH-7" value="" style="html=1;shadow=0;dashed=0;align=center;verticalAlign=middle;shape=mxgraph.arrows2.twoWayArrow;dy=0.65;dx=22;fontSize=40;" parent="AtJam89E-pzduX2Gn3NH-17" vertex="1">
          <mxGeometry width="150" height="60" as="geometry" />
        </mxCell>
        <mxCell id="AtJam89E-pzduX2Gn3NH-14" value="Wire_EXEMEM" style="text;html=1;strokeColor=none;fillColor=none;align=center;verticalAlign=middle;whiteSpace=wrap;rounded=0;fontSize=20;" parent="AtJam89E-pzduX2Gn3NH-17" vertex="1">
          <mxGeometry x="40.38461538461538" y="15" width="69.23076923076923" height="30" as="geometry" />
        </mxCell>
        <mxCell id="AtJam89E-pzduX2Gn3NH-18" value="" style="group" parent="1" vertex="1" connectable="0">
          <mxGeometry x="650" y="550" width="150" height="60" as="geometry" />
        </mxCell>
        <mxCell id="AtJam89E-pzduX2Gn3NH-6" value="" style="html=1;shadow=0;dashed=0;align=center;verticalAlign=middle;shape=mxgraph.arrows2.twoWayArrow;dy=0.65;dx=22;fontSize=40;" parent="AtJam89E-pzduX2Gn3NH-18" vertex="1">
          <mxGeometry width="150" height="60" as="geometry" />
        </mxCell>
        <mxCell id="AtJam89E-pzduX2Gn3NH-11" value="Wire_IDEXE" style="text;html=1;strokeColor=none;fillColor=none;align=center;verticalAlign=middle;whiteSpace=wrap;rounded=0;fontSize=20;" parent="AtJam89E-pzduX2Gn3NH-18" vertex="1">
          <mxGeometry x="40.38461538461538" y="15" width="69.23076923076923" height="30" as="geometry" />
        </mxCell>
        <mxCell id="AtJam89E-pzduX2Gn3NH-19" value="" style="group" parent="1" vertex="1" connectable="0">
          <mxGeometry x="300" y="550" width="150" height="60" as="geometry" />
        </mxCell>
        <mxCell id="AtJam89E-pzduX2Gn3NH-5" value="" style="html=1;shadow=0;dashed=0;align=center;verticalAlign=middle;shape=mxgraph.arrows2.twoWayArrow;dy=0.65;dx=22;fontSize=40;" parent="AtJam89E-pzduX2Gn3NH-19" vertex="1">
          <mxGeometry width="150" height="60" as="geometry" />
        </mxCell>
        <mxCell id="AtJam89E-pzduX2Gn3NH-10" value="Wire_IFID" style="text;html=1;strokeColor=none;fillColor=none;align=center;verticalAlign=middle;whiteSpace=wrap;rounded=0;fontSize=20;" parent="AtJam89E-pzduX2Gn3NH-19" vertex="1">
          <mxGeometry x="40.38461538461538" y="15" width="69.23076923076923" height="30" as="geometry" />
        </mxCell>
        <mxCell id="AtJam89E-pzduX2Gn3NH-21" value="&lt;font style=&quot;font-size: 40px;&quot;&gt;Hazard&lt;br&gt;Ctrl&lt;br&gt;&lt;/font&gt;" style="rounded=0;whiteSpace=wrap;html=1;" parent="1" vertex="1">
          <mxGeometry x="278" y="130" width="150" height="150" as="geometry" />
        </mxCell>
        <mxCell id="AtJam89E-pzduX2Gn3NH-22" value="&lt;font style=&quot;font-size: 40px;&quot;&gt;Forward&lt;br&gt;Unit&lt;br&gt;&lt;/font&gt;" style="rounded=0;whiteSpace=wrap;html=1;" parent="1" vertex="1">
          <mxGeometry x="850" y="130" width="150" height="150" as="geometry" />
        </mxCell>
        <mxCell id="AtJam89E-pzduX2Gn3NH-23" value="&lt;font style=&quot;font-size: 40px;&quot;&gt;Branch&lt;br&gt;Ctrl&lt;br&gt;&lt;/font&gt;" style="rounded=0;whiteSpace=wrap;html=1;" parent="1" vertex="1">
          <mxGeometry x="500" y="130" width="150" height="150" as="geometry" />
        </mxCell>
        <mxCell id="AtJam89E-pzduX2Gn3NH-24" value="&lt;font style=&quot;font-size: 40px;&quot;&gt;IM1&lt;br&gt;&lt;/font&gt;" style="rounded=0;whiteSpace=wrap;html=1;" parent="1" vertex="1">
          <mxGeometry x="200" y="700" width="100" height="100" as="geometry" />
        </mxCell>
        <mxCell id="AtJam89E-pzduX2Gn3NH-25" value="&lt;font style=&quot;font-size: 40px;&quot;&gt;DM1&lt;br&gt;&lt;/font&gt;" style="rounded=0;whiteSpace=wrap;html=1;" parent="1" vertex="1">
          <mxGeometry x="1260" y="720" width="100" height="117.5" as="geometry" />
        </mxCell>
        <mxCell id="AtJam89E-pzduX2Gn3NH-31" value="" style="html=1;shadow=0;dashed=0;align=center;verticalAlign=middle;shape=mxgraph.arrows2.bendDoubleArrow;dy=15;dx=38;arrowHead=55;rounded=0;fontSize=20;" parent="1" vertex="1">
          <mxGeometry x="178" y="210" width="100" height="270" as="geometry" />
        </mxCell>
        <mxCell id="AtJam89E-pzduX2Gn3NH-28" value="Wire_IFHC" style="text;html=1;strokeColor=none;fillColor=none;align=center;verticalAlign=middle;whiteSpace=wrap;rounded=0;fontSize=20;rotation=-92;" parent="1" vertex="1">
          <mxGeometry x="170" y="312.5" width="69.23" height="35" as="geometry" />
        </mxCell>
        <mxCell id="AtJam89E-pzduX2Gn3NH-32" value="" style="endArrow=none;html=1;fontSize=20;rounded=0;strokeWidth=7;" parent="1" edge="1">
          <mxGeometry width="50" height="50" relative="1" as="geometry">
            <mxPoint y="876" as="sourcePoint" />
            <mxPoint x="1700" y="876" as="targetPoint" />
          </mxGeometry>
        </mxCell>
        <mxCell id="AtJam89E-pzduX2Gn3NH-33" value="" style="endArrow=none;html=1;fontSize=20;rounded=0;strokeWidth=7;" parent="1" edge="1">
          <mxGeometry width="50" height="50" relative="1" as="geometry">
            <mxPoint y="916" as="sourcePoint" />
            <mxPoint x="1700" y="916" as="targetPoint" />
          </mxGeometry>
        </mxCell>
        <mxCell id="AtJam89E-pzduX2Gn3NH-34" value="Clk" style="text;html=1;strokeColor=none;fillColor=none;align=center;verticalAlign=middle;whiteSpace=wrap;rounded=0;fontSize=20;rotation=0;" parent="1" vertex="1">
          <mxGeometry x="1.0658141036401503e-14" y="840" width="69.23" height="35" as="geometry" />
        </mxCell>
        <mxCell id="AtJam89E-pzduX2Gn3NH-35" value="rst" style="text;html=1;strokeColor=none;fillColor=none;align=center;verticalAlign=middle;whiteSpace=wrap;rounded=0;fontSize=20;rotation=0;" parent="1" vertex="1">
          <mxGeometry x="1.0658141036401503e-14" y="883" width="69.23" height="35" as="geometry" />
        </mxCell>
        <mxCell id="AtJam89E-pzduX2Gn3NH-38" value="" style="group" parent="1" vertex="1" connectable="0">
          <mxGeometry x="80" y="625" width="40" height="20" as="geometry" />
        </mxCell>
        <mxCell id="AtJam89E-pzduX2Gn3NH-37" value="" style="triangle;whiteSpace=wrap;html=1;fontSize=40;" parent="AtJam89E-pzduX2Gn3NH-38" vertex="1">
          <mxGeometry x="20" y="5" width="20" height="20" as="geometry" />
        </mxCell>
        <mxCell id="AtJam89E-pzduX2Gn3NH-40" value="" style="endArrow=none;html=1;rounded=0;fontSize=40;strokeWidth=3;entryX=0;entryY=0.5;entryDx=0;entryDy=0;" parent="1" target="AtJam89E-pzduX2Gn3NH-41" edge="1">
          <mxGeometry width="50" height="50" relative="1" as="geometry">
            <mxPoint x="431" y="880" as="sourcePoint" />
            <mxPoint x="431" y="640" as="targetPoint" />
            <Array as="points">
              <mxPoint x="431" y="640" />
            </Array>
          </mxGeometry>
        </mxCell>
        <mxCell id="AtJam89E-pzduX2Gn3NH-41" value="" style="triangle;whiteSpace=wrap;html=1;fontSize=40;" parent="1" vertex="1">
          <mxGeometry x="450" y="630" width="20" height="20" as="geometry" />
        </mxCell>
        <mxCell id="AtJam89E-pzduX2Gn3NH-44" value="" style="endArrow=none;html=1;rounded=0;fontSize=40;strokeWidth=3;entryX=0;entryY=0.5;entryDx=0;entryDy=0;" parent="1" target="AtJam89E-pzduX2Gn3NH-45" edge="1">
          <mxGeometry width="50" height="50" relative="1" as="geometry">
            <mxPoint x="780" y="875" as="sourcePoint" />
            <mxPoint x="780" y="635" as="targetPoint" />
            <Array as="points">
              <mxPoint x="780" y="635" />
            </Array>
          </mxGeometry>
        </mxCell>
        <mxCell id="AtJam89E-pzduX2Gn3NH-45" value="" style="triangle;whiteSpace=wrap;html=1;fontSize=40;" parent="1" vertex="1">
          <mxGeometry x="800" y="625" width="20" height="20" as="geometry" />
        </mxCell>
        <mxCell id="AtJam89E-pzduX2Gn3NH-46" value="" style="endArrow=none;html=1;rounded=0;fontSize=40;strokeWidth=3;entryX=0;entryY=0.5;entryDx=0;entryDy=0;" parent="1" target="AtJam89E-pzduX2Gn3NH-47" edge="1">
          <mxGeometry width="50" height="50" relative="1" as="geometry">
            <mxPoint x="1130" y="875" as="sourcePoint" />
            <mxPoint x="1130" y="635" as="targetPoint" />
            <Array as="points">
              <mxPoint x="1130" y="635" />
            </Array>
          </mxGeometry>
        </mxCell>
        <mxCell id="AtJam89E-pzduX2Gn3NH-47" value="" style="triangle;whiteSpace=wrap;html=1;fontSize=40;" parent="1" vertex="1">
          <mxGeometry x="1150" y="625" width="20" height="20" as="geometry" />
        </mxCell>
        <mxCell id="AtJam89E-pzduX2Gn3NH-48" value="" style="endArrow=none;html=1;rounded=0;fontSize=40;strokeWidth=3;entryX=0;entryY=0.5;entryDx=0;entryDy=0;" parent="1" target="AtJam89E-pzduX2Gn3NH-49" edge="1">
          <mxGeometry width="50" height="50" relative="1" as="geometry">
            <mxPoint x="1480" y="875" as="sourcePoint" />
            <mxPoint x="1480" y="635" as="targetPoint" />
            <Array as="points">
              <mxPoint x="1480" y="635" />
            </Array>
          </mxGeometry>
        </mxCell>
        <mxCell id="AtJam89E-pzduX2Gn3NH-49" value="" style="triangle;whiteSpace=wrap;html=1;fontSize=40;" parent="1" vertex="1">
          <mxGeometry x="1500" y="625" width="20" height="20" as="geometry" />
        </mxCell>
        <mxCell id="AtJam89E-pzduX2Gn3NH-50" value="" style="endArrow=none;html=1;rounded=0;fontSize=40;strokeWidth=3;entryX=0;entryY=0.5;entryDx=0;entryDy=0;" parent="1" edge="1">
          <mxGeometry width="50" height="50" relative="1" as="geometry">
            <mxPoint x="80" y="880" as="sourcePoint" />
            <mxPoint x="100" y="640" as="targetPoint" />
            <Array as="points">
              <mxPoint x="80" y="640" />
            </Array>
          </mxGeometry>
        </mxCell>
        <mxCell id="AtJam89E-pzduX2Gn3NH-54" value="" style="endArrow=none;html=1;rounded=0;fontSize=40;strokeWidth=3;entryX=0.005;entryY=0.631;entryDx=0;entryDy=0;entryPerimeter=0;" parent="1" target="LERbhLxfTXNda7QCPUhL-2" edge="1">
          <mxGeometry width="50" height="50" relative="1" as="geometry">
            <mxPoint x="69.23" y="918" as="sourcePoint" />
            <mxPoint x="89.23" y="678" as="targetPoint" />
            <Array as="points">
              <mxPoint x="69" y="606" />
            </Array>
          </mxGeometry>
        </mxCell>
        <mxCell id="AtJam89E-pzduX2Gn3NH-55" value="" style="endArrow=none;html=1;rounded=0;fontSize=40;strokeWidth=3;entryX=0.005;entryY=0.631;entryDx=0;entryDy=0;entryPerimeter=0;" parent="1" edge="1">
          <mxGeometry width="50" height="50" relative="1" as="geometry">
            <mxPoint x="418.23" y="918" as="sourcePoint" />
            <mxPoint x="450" y="606.2" as="targetPoint" />
            <Array as="points">
              <mxPoint x="418" y="606" />
            </Array>
          </mxGeometry>
        </mxCell>
        <mxCell id="AtJam89E-pzduX2Gn3NH-56" value="" style="endArrow=none;html=1;rounded=0;fontSize=40;strokeWidth=3;entryX=0.005;entryY=0.631;entryDx=0;entryDy=0;entryPerimeter=0;" parent="1" edge="1">
          <mxGeometry width="50" height="50" relative="1" as="geometry">
            <mxPoint x="768.23" y="919" as="sourcePoint" />
            <mxPoint x="800" y="607.2" as="targetPoint" />
            <Array as="points">
              <mxPoint x="768" y="607" />
            </Array>
          </mxGeometry>
        </mxCell>
        <mxCell id="AtJam89E-pzduX2Gn3NH-57" value="" style="endArrow=none;html=1;rounded=0;fontSize=40;strokeWidth=3;entryX=0.005;entryY=0.631;entryDx=0;entryDy=0;entryPerimeter=0;" parent="1" edge="1">
          <mxGeometry width="50" height="50" relative="1" as="geometry">
            <mxPoint x="1118.23" y="918" as="sourcePoint" />
            <mxPoint x="1150" y="606.2" as="targetPoint" />
            <Array as="points">
              <mxPoint x="1118" y="606" />
            </Array>
          </mxGeometry>
        </mxCell>
        <mxCell id="AtJam89E-pzduX2Gn3NH-58" value="" style="endArrow=none;html=1;rounded=0;fontSize=40;strokeWidth=3;entryX=0.005;entryY=0.631;entryDx=0;entryDy=0;entryPerimeter=0;" parent="1" edge="1">
          <mxGeometry width="50" height="50" relative="1" as="geometry">
            <mxPoint x="1468.23" y="918" as="sourcePoint" />
            <mxPoint x="1500" y="606.2" as="targetPoint" />
            <Array as="points">
              <mxPoint x="1468" y="606" />
            </Array>
          </mxGeometry>
        </mxCell>
        <mxCell id="AtJam89E-pzduX2Gn3NH-59" value="" style="group" parent="1" vertex="1" connectable="0">
          <mxGeometry x="180" y="770" width="50" height="25" as="geometry" />
        </mxCell>
        <mxCell id="AtJam89E-pzduX2Gn3NH-60" value="" style="triangle;whiteSpace=wrap;html=1;fontSize=40;" parent="AtJam89E-pzduX2Gn3NH-59" vertex="1">
          <mxGeometry x="20" y="5" width="20" height="20" as="geometry" />
        </mxCell>
        <mxCell id="AtJam89E-pzduX2Gn3NH-64" value="" style="ellipse;whiteSpace=wrap;html=1;aspect=fixed;fontSize=40;" parent="AtJam89E-pzduX2Gn3NH-59" vertex="1">
          <mxGeometry x="40" y="13" width="4" height="4" as="geometry" />
        </mxCell>
        <mxCell id="AtJam89E-pzduX2Gn3NH-61" value="" style="endArrow=none;html=1;rounded=0;fontSize=40;strokeWidth=3;entryX=0;entryY=0.5;entryDx=0;entryDy=0;" parent="1" edge="1">
          <mxGeometry width="50" height="50" relative="1" as="geometry">
            <mxPoint x="180" y="880" as="sourcePoint" />
            <mxPoint x="200" y="785.5" as="targetPoint" />
            <Array as="points">
              <mxPoint x="180" y="785.5" />
            </Array>
          </mxGeometry>
        </mxCell>
        <mxCell id="AtJam89E-pzduX2Gn3NH-62" value="" style="triangle;whiteSpace=wrap;html=1;fontSize=40;" parent="1" vertex="1">
          <mxGeometry x="1260" y="800" width="20" height="20" as="geometry" />
        </mxCell>
        <mxCell id="AtJam89E-pzduX2Gn3NH-63" value="" style="endArrow=none;html=1;rounded=0;fontSize=40;strokeWidth=3;entryX=0;entryY=0.5;entryDx=0;entryDy=0;" parent="1" target="AtJam89E-pzduX2Gn3NH-62" edge="1">
          <mxGeometry width="50" height="50" relative="1" as="geometry">
            <mxPoint x="1230" y="875" as="sourcePoint" />
            <mxPoint x="1250" y="780.5" as="targetPoint" />
            <Array as="points">
              <mxPoint x="1230" y="810" />
            </Array>
          </mxGeometry>
        </mxCell>
        <mxCell id="AtJam89E-pzduX2Gn3NH-65" value="" style="ellipse;whiteSpace=wrap;html=1;aspect=fixed;fontSize=40;" parent="1" vertex="1">
          <mxGeometry x="1270" y="777.5" width="4" height="4" as="geometry" />
        </mxCell>
        <mxCell id="AtJam89E-pzduX2Gn3NH-77" value="" style="endArrow=classic;html=1;rounded=0;fontSize=40;strokeWidth=1;entryX=0.25;entryY=0;entryDx=0;entryDy=0;exitX=0.5;exitY=0;exitDx=0;exitDy=0;" parent="1" source="AtJam89E-pzduX2Gn3NH-23" target="LERbhLxfTXNda7QCPUhL-2" edge="1">
          <mxGeometry width="50" height="50" relative="1" as="geometry">
            <mxPoint x="470" y="620" as="sourcePoint" />
            <mxPoint x="520" y="570" as="targetPoint" />
            <Array as="points">
              <mxPoint x="575" y="80" />
              <mxPoint x="150" y="80" />
            </Array>
          </mxGeometry>
        </mxCell>
        <mxCell id="AtJam89E-pzduX2Gn3NH-79" value="BranchCtrl" style="text;html=1;strokeColor=none;fillColor=none;align=center;verticalAlign=middle;whiteSpace=wrap;rounded=0;fontSize=20;rotation=0;" parent="1" vertex="1">
          <mxGeometry x="490" y="40" width="69.23" height="35" as="geometry" />
        </mxCell>
        <mxCell id="AtJam89E-pzduX2Gn3NH-81" value="Instr_out" style="text;html=1;strokeColor=none;fillColor=none;align=center;verticalAlign=middle;whiteSpace=wrap;rounded=0;fontSize=20;rotation=-92;" parent="1" vertex="1">
          <mxGeometry x="318.38" y="690" width="69.23" height="35" as="geometry" />
        </mxCell>
        <mxCell id="AtJam89E-pzduX2Gn3NH-82" value="" style="endArrow=classic;html=1;rounded=0;fontSize=40;strokeWidth=1;exitX=1;exitY=0.75;exitDx=0;exitDy=0;entryX=0;entryY=0.5;entryDx=0;entryDy=0;" parent="1" source="LERbhLxfTXNda7QCPUhL-2" target="AtJam89E-pzduX2Gn3NH-24" edge="1">
          <mxGeometry width="50" height="50" relative="1" as="geometry">
            <mxPoint x="410" y="590" as="sourcePoint" />
            <mxPoint x="460" y="540" as="targetPoint" />
            <Array as="points">
              <mxPoint x="330" y="630" />
              <mxPoint x="330" y="690" />
              <mxPoint x="110" y="690" />
              <mxPoint x="110" y="750" />
            </Array>
          </mxGeometry>
        </mxCell>
        <mxCell id="AtJam89E-pzduX2Gn3NH-83" value="PC_out" style="text;html=1;strokeColor=none;fillColor=none;align=center;verticalAlign=middle;whiteSpace=wrap;rounded=0;fontSize=20;rotation=0;" parent="1" vertex="1">
          <mxGeometry x="120" y="720" width="69.23" height="35" as="geometry" />
        </mxCell>
        <mxCell id="AtJam89E-pzduX2Gn3NH-90" value="" style="group" parent="1" vertex="1" connectable="0">
          <mxGeometry x="300" y="470" width="500" height="60" as="geometry" />
        </mxCell>
        <mxCell id="AtJam89E-pzduX2Gn3NH-91" value="" style="html=1;shadow=0;dashed=0;align=center;verticalAlign=middle;shape=mxgraph.arrows2.twoWayArrow;dy=0.65;dx=22;fontSize=40;" parent="AtJam89E-pzduX2Gn3NH-90" vertex="1">
          <mxGeometry width="499.99999999999994" height="60" as="geometry" />
        </mxCell>
        <mxCell id="AtJam89E-pzduX2Gn3NH-92" value="Wire_IFEXE" style="text;html=1;strokeColor=none;fillColor=none;align=center;verticalAlign=middle;whiteSpace=wrap;rounded=0;fontSize=20;" parent="AtJam89E-pzduX2Gn3NH-90" vertex="1">
          <mxGeometry x="134.61538461538458" y="15" width="230.76923076923072" height="30" as="geometry" />
        </mxCell>
        <mxCell id="AtJam89E-pzduX2Gn3NH-94" value="" style="endArrow=classic;html=1;rounded=0;fontSize=40;strokeWidth=1;entryX=0.158;entryY=0;entryDx=0;entryDy=0;exitX=1;exitY=0.25;exitDx=0;exitDy=0;entryPerimeter=0;" parent="1" source="AtJam89E-pzduX2Gn3NH-4" target="AtJam89E-pzduX2Gn3NH-1" edge="1">
          <mxGeometry width="50" height="50" relative="1" as="geometry">
            <mxPoint x="1760" y="530" as="sourcePoint" />
            <mxPoint x="469.99999999999955" y="479.9999999999998" as="targetPoint" />
            <Array as="points">
              <mxPoint x="1810" y="530" />
              <mxPoint x="1810" y="460" />
              <mxPoint x="482" y="460" />
            </Array>
          </mxGeometry>
        </mxCell>
        <mxCell id="AtJam89E-pzduX2Gn3NH-95" value="WB_rdaddr" style="text;html=1;strokeColor=none;fillColor=none;align=center;verticalAlign=middle;whiteSpace=wrap;rounded=0;fontSize=20;rotation=0;" parent="1" vertex="1">
          <mxGeometry x="1720" y="495" width="69.23" height="35" as="geometry" />
        </mxCell>
        <mxCell id="AtJam89E-pzduX2Gn3NH-96" value="WB_rddata" style="text;html=1;strokeColor=none;fillColor=none;align=center;verticalAlign=middle;whiteSpace=wrap;rounded=0;fontSize=20;rotation=0;" parent="1" vertex="1">
          <mxGeometry x="1720" y="545" width="69.23" height="35" as="geometry" />
        </mxCell>
        <mxCell id="AtJam89E-pzduX2Gn3NH-97" value="WB_RegWrite" style="text;html=1;strokeColor=none;fillColor=none;align=center;verticalAlign=middle;whiteSpace=wrap;rounded=0;fontSize=20;rotation=0;" parent="1" vertex="1">
          <mxGeometry x="1734" y="596" width="69.23" height="35" as="geometry" />
        </mxCell>
        <mxCell id="AtJam89E-pzduX2Gn3NH-98" value="" style="endArrow=classic;html=1;rounded=0;fontSize=40;strokeWidth=1;entryX=0.25;entryY=0;entryDx=0;entryDy=0;" parent="1" target="AtJam89E-pzduX2Gn3NH-1" edge="1">
          <mxGeometry width="50" height="50" relative="1" as="geometry">
            <mxPoint x="1700" y="580" as="sourcePoint" />
            <mxPoint x="471.99999999999955" y="489.9999999999998" as="targetPoint" />
            <Array as="points">
              <mxPoint x="1820" y="580" />
              <mxPoint x="1820" y="450" />
              <mxPoint x="500" y="450" />
            </Array>
          </mxGeometry>
        </mxCell>
        <mxCell id="AtJam89E-pzduX2Gn3NH-99" value="" style="endArrow=classic;html=1;rounded=0;fontSize=40;strokeWidth=1;exitX=1;exitY=0.75;exitDx=0;exitDy=0;" parent="1" source="AtJam89E-pzduX2Gn3NH-4" edge="1">
          <mxGeometry width="50" height="50" relative="1" as="geometry">
            <mxPoint x="1710" y="590" as="sourcePoint" />
            <mxPoint x="520" y="480" as="targetPoint" />
            <Array as="points">
              <mxPoint x="1840" y="630" />
              <mxPoint x="1840" y="440" />
              <mxPoint x="520" y="440" />
            </Array>
          </mxGeometry>
        </mxCell>
        <mxCell id="AtJam89E-pzduX2Gn3NH-102" value="IDFlush" style="text;html=1;strokeColor=none;fillColor=none;align=center;verticalAlign=middle;whiteSpace=wrap;rounded=0;fontSize=20;rotation=-92;" parent="1" vertex="1">
          <mxGeometry x="340.39" y="360" width="69.23" height="35" as="geometry" />
        </mxCell>
        <mxCell id="AtJam89E-pzduX2Gn3NH-104" value="ID_branch" style="text;html=1;strokeColor=none;fillColor=none;align=center;verticalAlign=middle;whiteSpace=wrap;rounded=0;fontSize=20;rotation=-90;" parent="1" vertex="1">
          <mxGeometry x="630" y="290" width="69.23" height="35" as="geometry" />
        </mxCell>
        <mxCell id="AtJam89E-pzduX2Gn3NH-107" value="ID_rs1addr" style="text;html=1;strokeColor=none;fillColor=none;align=center;verticalAlign=middle;whiteSpace=wrap;rounded=0;fontSize=20;rotation=0;" parent="1" vertex="1">
          <mxGeometry x="730.77" y="117" width="69.23" height="35" as="geometry" />
        </mxCell>
        <mxCell id="AtJam89E-pzduX2Gn3NH-108" value="ID_rs2addr" style="text;html=1;strokeColor=none;fillColor=none;align=center;verticalAlign=middle;whiteSpace=wrap;rounded=0;fontSize=20;rotation=0;" parent="1" vertex="1">
          <mxGeometry x="730.77" y="140" width="69.23" height="35" as="geometry" />
        </mxCell>
        <mxCell id="AtJam89E-pzduX2Gn3NH-109" value="" style="endArrow=classic;html=1;rounded=0;fontSize=40;strokeWidth=1;entryX=0.25;entryY=0;entryDx=0;entryDy=0;" parent="1" target="AtJam89E-pzduX2Gn3NH-2" edge="1">
          <mxGeometry width="50" height="50" relative="1" as="geometry">
            <mxPoint x="850" y="450" as="sourcePoint" />
            <mxPoint x="1300" y="450" as="targetPoint" />
          </mxGeometry>
        </mxCell>
        <mxCell id="AtJam89E-pzduX2Gn3NH-110" value="" style="endArrow=classic;html=1;rounded=0;fontSize=40;strokeWidth=1;exitX=1;exitY=0.75;exitDx=0;exitDy=0;entryX=0.395;entryY=0.007;entryDx=0;entryDy=0;entryPerimeter=0;" parent="1" source="AtJam89E-pzduX2Gn3NH-22" target="AtJam89E-pzduX2Gn3NH-2" edge="1">
          <mxGeometry width="50" height="50" relative="1" as="geometry">
            <mxPoint x="1180" y="480" as="sourcePoint" />
            <mxPoint x="1000" y="350" as="targetPoint" />
            <Array as="points">
              <mxPoint x="1140" y="243" />
              <mxPoint x="1140" y="300" />
              <mxPoint x="879" y="300" />
            </Array>
          </mxGeometry>
        </mxCell>
        <mxCell id="AtJam89E-pzduX2Gn3NH-111" value="" style="endArrow=classic;html=1;rounded=0;fontSize=40;strokeWidth=1;exitX=1;exitY=0.25;exitDx=0;exitDy=0;entryX=0.322;entryY=-0.009;entryDx=0;entryDy=0;entryPerimeter=0;" parent="1" source="AtJam89E-pzduX2Gn3NH-22" target="AtJam89E-pzduX2Gn3NH-2" edge="1">
          <mxGeometry width="50" height="50" relative="1" as="geometry">
            <mxPoint x="872" y="492" as="sourcePoint" />
            <mxPoint x="1060" y="220" as="targetPoint" />
            <Array as="points">
              <mxPoint x="1170" y="168" />
              <mxPoint x="1170" y="290" />
              <mxPoint x="864" y="290" />
            </Array>
          </mxGeometry>
        </mxCell>
        <mxCell id="AtJam89E-pzduX2Gn3NH-113" value="Forward_rs1src" style="text;html=1;strokeColor=none;fillColor=none;align=center;verticalAlign=middle;whiteSpace=wrap;rounded=0;fontSize=20;rotation=0;" parent="1" vertex="1">
          <mxGeometry x="1040.39" y="140" width="69.23" height="35" as="geometry" />
        </mxCell>
        <mxCell id="AtJam89E-pzduX2Gn3NH-114" value="Forward_rs2src" style="text;html=1;strokeColor=none;fillColor=none;align=center;verticalAlign=middle;whiteSpace=wrap;rounded=0;fontSize=20;rotation=0;" parent="1" vertex="1">
          <mxGeometry x="1040.38" y="210" width="69.23" height="35" as="geometry" />
        </mxCell>
        <mxCell id="AtJam89E-pzduX2Gn3NH-115" value="" style="endArrow=classic;html=1;rounded=0;fontSize=40;strokeWidth=1;entryX=0.142;entryY=0.008;entryDx=0;entryDy=0;entryPerimeter=0;" parent="1" target="AtJam89E-pzduX2Gn3NH-2" edge="1">
          <mxGeometry width="50" height="50" relative="1" as="geometry">
            <mxPoint x="575" y="80" as="sourcePoint" />
            <mxPoint x="830" y="470" as="targetPoint" />
            <Array as="points">
              <mxPoint x="830" y="80" />
            </Array>
          </mxGeometry>
        </mxCell>
        <mxCell id="AtJam89E-pzduX2Gn3NH-116" value="" style="endArrow=classic;html=1;rounded=0;fontSize=40;strokeWidth=1;entryX=0.5;entryY=0;entryDx=0;entryDy=0;exitX=1.005;exitY=0.105;exitDx=0;exitDy=0;exitPerimeter=0;" parent="1" source="AtJam89E-pzduX2Gn3NH-3" target="AtJam89E-pzduX2Gn3NH-2" edge="1">
          <mxGeometry width="50" height="50" relative="1" as="geometry">
            <mxPoint x="1370" y="500" as="sourcePoint" />
            <mxPoint x="1240" y="305" as="targetPoint" />
            <Array as="points">
              <mxPoint x="1380" y="500" />
              <mxPoint x="1380" y="320" />
              <mxPoint x="900" y="320" />
            </Array>
          </mxGeometry>
        </mxCell>
        <mxCell id="AtJam89E-pzduX2Gn3NH-117" value="Forward_Memrddata" style="text;html=1;strokeColor=none;fillColor=none;align=center;verticalAlign=middle;whiteSpace=wrap;rounded=0;fontSize=20;rotation=0;" parent="1" vertex="1">
          <mxGeometry x="1250" y="290" width="69.23" height="35" as="geometry" />
        </mxCell>
        <mxCell id="AtJam89E-pzduX2Gn3NH-118" value="" style="endArrow=classic;html=1;rounded=0;fontSize=40;strokeWidth=1;exitX=1;exitY=0.25;exitDx=0;exitDy=0;entryX=0.75;entryY=1;entryDx=0;entryDy=0;" parent="1" source="AtJam89E-pzduX2Gn3NH-2" target="AtJam89E-pzduX2Gn3NH-23" edge="1">
          <mxGeometry width="50" height="50" relative="1" as="geometry">
            <mxPoint x="1030" y="480" as="sourcePoint" />
            <mxPoint x="1080" y="430" as="targetPoint" />
            <Array as="points">
              <mxPoint x="1040" y="530" />
              <mxPoint x="1040" y="430" />
              <mxPoint x="613" y="430" />
            </Array>
          </mxGeometry>
        </mxCell>
        <mxCell id="AtJam89E-pzduX2Gn3NH-119" value="ZeroFlag" style="text;html=1;strokeColor=none;fillColor=none;align=center;verticalAlign=middle;whiteSpace=wrap;rounded=0;fontSize=20;rotation=-90;" parent="1" vertex="1">
          <mxGeometry x="560.77" y="312.5" width="69.23" height="35" as="geometry" />
        </mxCell>
        <mxCell id="AtJam89E-pzduX2Gn3NH-122" value="MEM_din" style="text;html=1;strokeColor=none;fillColor=none;align=center;verticalAlign=middle;whiteSpace=wrap;rounded=0;fontSize=20;rotation=0;" parent="1" vertex="1">
          <mxGeometry x="1170" y="707.5" width="69.23" height="35" as="geometry" />
        </mxCell>
        <mxCell id="AtJam89E-pzduX2Gn3NH-124" value="DM_dataout" style="text;html=1;strokeColor=none;fillColor=none;align=center;verticalAlign=middle;whiteSpace=wrap;rounded=0;fontSize=20;rotation=-90;" parent="1" vertex="1">
          <mxGeometry x="1363" y="732.5" width="69.23" height="35" as="geometry" />
        </mxCell>
        <mxCell id="AtJam89E-pzduX2Gn3NH-125" value="MEM_CS" style="text;html=1;strokeColor=none;fillColor=none;align=center;verticalAlign=middle;whiteSpace=wrap;rounded=0;fontSize=20;rotation=0;" parent="1" vertex="1">
          <mxGeometry x="1170" y="742.5" width="69.23" height="35" as="geometry" />
        </mxCell>
        <mxCell id="AtJam89E-pzduX2Gn3NH-126" value="" style="endArrow=classic;html=1;rounded=0;fontSize=40;strokeWidth=1;exitX=0.998;exitY=0.879;exitDx=0;exitDy=0;exitPerimeter=0;entryX=-0.007;entryY=0.465;entryDx=0;entryDy=0;entryPerimeter=0;" parent="1" source="AtJam89E-pzduX2Gn3NH-3" target="AtJam89E-pzduX2Gn3NH-25" edge="1">
          <mxGeometry width="50" height="50" relative="1" as="geometry">
            <mxPoint x="1460" y="610" as="sourcePoint" />
            <mxPoint x="1510" y="560" as="targetPoint" />
            <Array as="points">
              <mxPoint x="1370" y="656" />
              <mxPoint x="1370" y="690" />
              <mxPoint x="1150" y="690" />
              <mxPoint x="1150" y="775" />
            </Array>
          </mxGeometry>
        </mxCell>
        <mxCell id="AtJam89E-pzduX2Gn3NH-127" value="MEM_WEB" style="text;html=1;strokeColor=none;fillColor=none;align=center;verticalAlign=middle;whiteSpace=wrap;rounded=0;fontSize=20;rotation=0;" parent="1" vertex="1">
          <mxGeometry x="1160" y="770" width="69.23" height="35" as="geometry" />
        </mxCell>
        <mxCell id="AtJam89E-pzduX2Gn3NH-132" value="" style="endArrow=classic;html=1;rounded=0;fontSize=40;strokeWidth=1;entryX=0.25;entryY=1;entryDx=0;entryDy=0;" parent="1" target="AtJam89E-pzduX2Gn3NH-25" edge="1">
          <mxGeometry width="50" height="50" relative="1" as="geometry">
            <mxPoint x="1090" y="590" as="sourcePoint" />
            <mxPoint x="1490" y="580" as="targetPoint" />
            <Array as="points">
              <mxPoint x="1090" y="850" />
              <mxPoint x="1285" y="850" />
            </Array>
          </mxGeometry>
        </mxCell>
        <mxCell id="AtJam89E-pzduX2Gn3NH-133" value="" style="endArrow=classic;html=1;rounded=0;fontSize=40;strokeWidth=1;entryX=0.5;entryY=1;entryDx=0;entryDy=0;exitX=0.139;exitY=0.833;exitDx=0;exitDy=0;exitPerimeter=0;" parent="1" source="AtJam89E-pzduX2Gn3NH-14" target="AtJam89E-pzduX2Gn3NH-25" edge="1">
          <mxGeometry width="50" height="50" relative="1" as="geometry">
            <mxPoint x="1440" y="630" as="sourcePoint" />
            <mxPoint x="1490" y="580" as="targetPoint" />
            <Array as="points">
              <mxPoint x="1050" y="860" />
              <mxPoint x="1310" y="860" />
            </Array>
          </mxGeometry>
        </mxCell>
        <mxCell id="AtJam89E-pzduX2Gn3NH-134" value="EXE_MemRead" style="text;html=1;strokeColor=none;fillColor=none;align=center;verticalAlign=middle;whiteSpace=wrap;rounded=0;fontSize=20;rotation=-90;" parent="1" vertex="1">
          <mxGeometry x="1000" y="655" width="69.23" height="35" as="geometry" />
        </mxCell>
        <mxCell id="AtJam89E-pzduX2Gn3NH-135" value="EXE_ALUout[15:2]" style="text;html=1;strokeColor=none;fillColor=none;align=center;verticalAlign=middle;whiteSpace=wrap;rounded=0;fontSize=20;rotation=-90;" parent="1" vertex="1">
          <mxGeometry x="1040.39" y="665" width="69.23" height="35" as="geometry" />
        </mxCell>
        <mxCell id="AtJam89E-pzduX2Gn3NH-137" value="" style="endArrow=classic;html=1;rounded=0;fontSize=40;strokeWidth=1;exitX=1.002;exitY=0.825;exitDx=0;exitDy=0;exitPerimeter=0;entryX=-0.003;entryY=0.183;entryDx=0;entryDy=0;entryPerimeter=0;" parent="1" source="AtJam89E-pzduX2Gn3NH-3" target="AtJam89E-pzduX2Gn3NH-25" edge="1">
          <mxGeometry width="50" height="50" relative="1" as="geometry">
            <mxPoint x="1370" y="700" as="sourcePoint" />
            <mxPoint x="1420" y="650" as="targetPoint" />
            <Array as="points">
              <mxPoint x="1380" y="645" />
              <mxPoint x="1380" y="700" />
              <mxPoint x="1160" y="700" />
              <mxPoint x="1160" y="740" />
            </Array>
          </mxGeometry>
        </mxCell>
        <mxCell id="AtJam89E-pzduX2Gn3NH-139" value="" style="endArrow=classic;html=1;rounded=0;fontSize=40;strokeWidth=1;entryX=0.5;entryY=0;entryDx=0;entryDy=0;" parent="1" target="AtJam89E-pzduX2Gn3NH-21" edge="1">
          <mxGeometry width="50" height="50" relative="1" as="geometry">
            <mxPoint x="353" y="80" as="sourcePoint" />
            <mxPoint x="710" y="310" as="targetPoint" />
          </mxGeometry>
        </mxCell>
        <mxCell id="AtJam89E-pzduX2Gn3NH-145" value="" style="endArrow=classic;html=1;rounded=0;fontSize=40;strokeWidth=1;exitX=0.428;exitY=0.833;exitDx=0;exitDy=0;exitPerimeter=0;entryX=0;entryY=0.5;entryDx=0;entryDy=0;" parent="1" source="AtJam89E-pzduX2Gn3NH-11" target="AtJam89E-pzduX2Gn3NH-21" edge="1">
          <mxGeometry width="50" height="50" relative="1" as="geometry">
            <mxPoint x="620" y="510" as="sourcePoint" />
            <mxPoint x="70" y="200" as="targetPoint" />
            <Array as="points">
              <mxPoint x="720" y="800" />
              <mxPoint y="800" />
              <mxPoint y="205" />
            </Array>
          </mxGeometry>
        </mxCell>
        <mxCell id="AtJam89E-pzduX2Gn3NH-146" value="" style="endArrow=classic;html=1;rounded=0;fontSize=40;strokeWidth=1;exitX=0.572;exitY=0.833;exitDx=0;exitDy=0;exitPerimeter=0;entryX=-0.003;entryY=0.362;entryDx=0;entryDy=0;entryPerimeter=0;" parent="1" source="AtJam89E-pzduX2Gn3NH-11" target="AtJam89E-pzduX2Gn3NH-21" edge="1">
          <mxGeometry width="50" height="50" relative="1" as="geometry">
            <mxPoint x="620" y="510" as="sourcePoint" />
            <mxPoint x="-102.75862068965517" y="810" as="targetPoint" />
            <Array as="points">
              <mxPoint x="730" y="810" />
              <mxPoint x="-30" y="810" />
              <mxPoint x="-30" y="184" />
            </Array>
          </mxGeometry>
        </mxCell>
        <mxCell id="AtJam89E-pzduX2Gn3NH-147" value="" style="endArrow=classic;html=1;rounded=0;fontSize=40;strokeWidth=1;exitX=0.717;exitY=0.833;exitDx=0;exitDy=0;exitPerimeter=0;entryX=0;entryY=0.25;entryDx=0;entryDy=0;" parent="1" source="AtJam89E-pzduX2Gn3NH-11" target="AtJam89E-pzduX2Gn3NH-21" edge="1">
          <mxGeometry width="50" height="50" relative="1" as="geometry">
            <mxPoint x="620" y="510" as="sourcePoint" />
            <mxPoint x="-110" y="820" as="targetPoint" />
            <Array as="points">
              <mxPoint x="740" y="820" />
              <mxPoint x="-60" y="820" />
              <mxPoint x="-60" y="170" />
            </Array>
          </mxGeometry>
        </mxCell>
        <mxCell id="AtJam89E-pzduX2Gn3NH-148" value="" style="endArrow=classic;html=1;rounded=0;fontSize=40;strokeWidth=1;exitX=0.861;exitY=0.833;exitDx=0;exitDy=0;exitPerimeter=0;entryX=-0.012;entryY=0.114;entryDx=0;entryDy=0;entryPerimeter=0;" parent="1" source="AtJam89E-pzduX2Gn3NH-11" target="AtJam89E-pzduX2Gn3NH-21" edge="1">
          <mxGeometry width="50" height="50" relative="1" as="geometry">
            <mxPoint x="620" y="510" as="sourcePoint" />
            <mxPoint x="-110" y="830" as="targetPoint" />
            <Array as="points">
              <mxPoint x="750" y="830" />
              <mxPoint x="-90" y="830" />
              <mxPoint x="-90" y="147" />
            </Array>
          </mxGeometry>
        </mxCell>
        <mxCell id="AtJam89E-pzduX2Gn3NH-149" value="ID_MemRead" style="text;html=1;strokeColor=none;fillColor=none;align=center;verticalAlign=middle;whiteSpace=wrap;rounded=0;fontSize=20;rotation=-92;" parent="1" vertex="1">
          <mxGeometry x="-50" y="470" width="69.23" height="35" as="geometry" />
        </mxCell>
        <mxCell id="AtJam89E-pzduX2Gn3NH-150" value="rs1addr" style="text;html=1;strokeColor=none;fillColor=none;align=center;verticalAlign=middle;whiteSpace=wrap;rounded=0;fontSize=20;rotation=-92;" parent="1" vertex="1">
          <mxGeometry x="-140" y="470" width="69.23" height="35" as="geometry" />
        </mxCell>
        <mxCell id="AtJam89E-pzduX2Gn3NH-151" value="rs2addr" style="text;html=1;strokeColor=none;fillColor=none;align=center;verticalAlign=middle;whiteSpace=wrap;rounded=0;fontSize=20;rotation=-92;" parent="1" vertex="1">
          <mxGeometry x="-110.00000000000001" y="470" width="69.23" height="35" as="geometry" />
        </mxCell>
        <mxCell id="AtJam89E-pzduX2Gn3NH-152" value="ID_rdaddr" style="text;html=1;strokeColor=none;fillColor=none;align=center;verticalAlign=middle;whiteSpace=wrap;rounded=0;fontSize=20;rotation=-92;" parent="1" vertex="1">
          <mxGeometry x="-80.00000000000001" y="470" width="69.23" height="35" as="geometry" />
        </mxCell>
        <mxCell id="AtJam89E-pzduX2Gn3NH-153" value="" style="endArrow=classic;html=1;rounded=0;fontSize=40;strokeWidth=1;exitX=0.5;exitY=0.167;exitDx=0;exitDy=0;entryX=-0.015;entryY=0.435;entryDx=0;entryDy=0;entryPerimeter=0;exitPerimeter=0;" parent="1" source="AtJam89E-pzduX2Gn3NH-14" target="AtJam89E-pzduX2Gn3NH-22" edge="1">
          <mxGeometry width="50" height="50" relative="1" as="geometry">
            <mxPoint x="880" y="300" as="sourcePoint" />
            <mxPoint x="930" y="250" as="targetPoint" />
            <Array as="points">
              <mxPoint x="1075" y="420" />
              <mxPoint x="710" y="420" />
              <mxPoint x="710" y="195" />
            </Array>
          </mxGeometry>
        </mxCell>
        <mxCell id="AtJam89E-pzduX2Gn3NH-154" value="EXE_rdaddr" style="text;html=1;strokeColor=none;fillColor=none;align=center;verticalAlign=middle;whiteSpace=wrap;rounded=0;fontSize=20;rotation=0;" parent="1" vertex="1">
          <mxGeometry x="735.77" y="163" width="69.23" height="35" as="geometry" />
        </mxCell>
        <mxCell id="AtJam89E-pzduX2Gn3NH-155" value="" style="endArrow=classic;html=1;rounded=0;fontSize=40;strokeWidth=1;entryX=-0.003;entryY=0.596;entryDx=0;entryDy=0;entryPerimeter=0;exitX=0.75;exitY=0.167;exitDx=0;exitDy=0;exitPerimeter=0;" parent="1" source="AtJam89E-pzduX2Gn3NH-14" target="AtJam89E-pzduX2Gn3NH-22" edge="1">
          <mxGeometry width="50" height="50" relative="1" as="geometry">
            <mxPoint x="800" y="240" as="sourcePoint" />
            <mxPoint x="850" y="190" as="targetPoint" />
            <Array as="points">
              <mxPoint x="1090" y="410" />
              <mxPoint x="720" y="410" />
              <mxPoint x="720" y="219" />
            </Array>
          </mxGeometry>
        </mxCell>
        <mxCell id="AtJam89E-pzduX2Gn3NH-156" value="EXE_RegWrite" style="text;html=1;strokeColor=none;fillColor=none;align=center;verticalAlign=middle;whiteSpace=wrap;rounded=0;fontSize=20;rotation=0;" parent="1" vertex="1">
          <mxGeometry x="750.77" y="187.5" width="69.23" height="35" as="geometry" />
        </mxCell>
        <mxCell id="AtJam89E-pzduX2Gn3NH-157" value="" style="endArrow=classic;html=1;rounded=0;fontSize=40;strokeWidth=1;entryX=0;entryY=0.75;entryDx=0;entryDy=0;exitX=0.75;exitY=0.167;exitDx=0;exitDy=0;exitPerimeter=0;" parent="1" source="AtJam89E-pzduX2Gn3NH-13" target="AtJam89E-pzduX2Gn3NH-22" edge="1">
          <mxGeometry width="50" height="50" relative="1" as="geometry">
            <mxPoint x="940" y="360" as="sourcePoint" />
            <mxPoint x="990" y="310" as="targetPoint" />
            <Array as="points">
              <mxPoint x="1440" y="400" />
              <mxPoint x="730" y="400" />
              <mxPoint x="730" y="243" />
            </Array>
          </mxGeometry>
        </mxCell>
        <mxCell id="AtJam89E-pzduX2Gn3NH-160" value="" style="endArrow=classic;html=1;rounded=0;fontSize=40;strokeWidth=1;entryX=-0.013;entryY=0.86;entryDx=0;entryDy=0;entryPerimeter=0;exitX=0.998;exitY=0.147;exitDx=0;exitDy=0;exitPerimeter=0;" parent="1" source="AtJam89E-pzduX2Gn3NH-13" target="AtJam89E-pzduX2Gn3NH-22" edge="1">
          <mxGeometry width="50" height="50" relative="1" as="geometry">
            <mxPoint x="940" y="360" as="sourcePoint" />
            <mxPoint x="990" y="310" as="targetPoint" />
            <Array as="points">
              <mxPoint x="1460" y="390" />
              <mxPoint x="740" y="390" />
              <mxPoint x="740" y="259" />
            </Array>
          </mxGeometry>
        </mxCell>
        <mxCell id="AtJam89E-pzduX2Gn3NH-163" value="MEM_rdaddr" style="text;html=1;strokeColor=none;fillColor=none;align=center;verticalAlign=middle;whiteSpace=wrap;rounded=0;fontSize=20;rotation=0;" parent="1" vertex="1">
          <mxGeometry x="1260" y="360" width="69.23" height="35" as="geometry" />
        </mxCell>
        <mxCell id="AtJam89E-pzduX2Gn3NH-164" value="MEM_RegWrite" style="text;html=1;strokeColor=none;fillColor=none;align=center;verticalAlign=middle;whiteSpace=wrap;rounded=0;fontSize=20;rotation=0;" parent="1" vertex="1">
          <mxGeometry x="1270" y="395" width="69.23" height="35" as="geometry" />
        </mxCell>
      </root>
    </mxGraphModel>
  </diagram>
  <diagram id="6MASUO2sk8zTfo9casH_" name="IF">
    <mxGraphModel dx="2042" dy="1234" grid="1" gridSize="10" guides="1" tooltips="1" connect="1" arrows="1" fold="1" page="1" pageScale="1" pageWidth="850" pageHeight="1100" math="0" shadow="0">
      <root>
        <mxCell id="0" />
        <mxCell id="1" parent="0" />
        <mxCell id="v2UC8kIAamlj0m0Apmrl-1" value="" style="whiteSpace=wrap;html=1;aspect=fixed;fontSize=40;fillColor=none;" parent="1" vertex="1">
          <mxGeometry x="127" y="140" width="600" height="600" as="geometry" />
        </mxCell>
        <mxCell id="v2UC8kIAamlj0m0Apmrl-2" value="" style="endArrow=classic;html=1;rounded=0;fontSize=40;strokeWidth=1;entryX=-0.002;entryY=0.126;entryDx=0;entryDy=0;entryPerimeter=0;" parent="1" edge="1">
          <mxGeometry width="50" height="50" relative="1" as="geometry">
            <mxPoint x="17" y="180" as="sourcePoint" />
            <mxPoint x="125.79999999999973" y="179.60000000000014" as="targetPoint" />
          </mxGeometry>
        </mxCell>
        <mxCell id="v2UC8kIAamlj0m0Apmrl-3" value="&lt;font style=&quot;font-size: 20px;&quot;&gt;Clk&lt;/font&gt;" style="text;html=1;strokeColor=none;fillColor=none;align=center;verticalAlign=middle;whiteSpace=wrap;rounded=0;fontSize=40;" parent="1" vertex="1">
          <mxGeometry x="7" y="144" width="60" height="30" as="geometry" />
        </mxCell>
        <mxCell id="v2UC8kIAamlj0m0Apmrl-4" value="" style="endArrow=classic;html=1;rounded=0;fontSize=40;strokeWidth=1;entryX=-0.002;entryY=0.126;entryDx=0;entryDy=0;entryPerimeter=0;" parent="1" edge="1">
          <mxGeometry width="50" height="50" relative="1" as="geometry">
            <mxPoint x="17" y="208" as="sourcePoint" />
            <mxPoint x="125.80000000000018" y="207.5999999999999" as="targetPoint" />
          </mxGeometry>
        </mxCell>
        <mxCell id="v2UC8kIAamlj0m0Apmrl-5" value="&lt;font style=&quot;font-size: 20px;&quot;&gt;rst&lt;/font&gt;" style="text;html=1;strokeColor=none;fillColor=none;align=center;verticalAlign=middle;whiteSpace=wrap;rounded=0;fontSize=40;" parent="1" vertex="1">
          <mxGeometry x="7" y="174" width="60" height="30" as="geometry" />
        </mxCell>
        <mxCell id="v2UC8kIAamlj0m0Apmrl-6" value="" style="endArrow=classic;html=1;rounded=0;fontSize=40;strokeWidth=1;entryX=-0.002;entryY=0.126;entryDx=0;entryDy=0;entryPerimeter=0;" parent="1" edge="1">
          <mxGeometry width="50" height="50" relative="1" as="geometry">
            <mxPoint x="17" y="396" as="sourcePoint" />
            <mxPoint x="125.80000000000018" y="395.5999999999999" as="targetPoint" />
          </mxGeometry>
        </mxCell>
        <mxCell id="v2UC8kIAamlj0m0Apmrl-7" value="&lt;font style=&quot;font-size: 20px;&quot;&gt;BranchCtrl&lt;/font&gt;" style="text;html=1;strokeColor=none;fillColor=none;align=center;verticalAlign=middle;whiteSpace=wrap;rounded=0;fontSize=40;" parent="1" vertex="1">
          <mxGeometry x="37" y="360" width="60" height="30" as="geometry" />
        </mxCell>
        <mxCell id="v2UC8kIAamlj0m0Apmrl-8" value="" style="endArrow=classic;html=1;rounded=0;fontSize=40;strokeWidth=1;entryX=-0.002;entryY=0.126;entryDx=0;entryDy=0;entryPerimeter=0;" parent="1" edge="1">
          <mxGeometry width="50" height="50" relative="1" as="geometry">
            <mxPoint x="17" y="656" as="sourcePoint" />
            <mxPoint x="125.80000000000018" y="655.5999999999999" as="targetPoint" />
          </mxGeometry>
        </mxCell>
        <mxCell id="v2UC8kIAamlj0m0Apmrl-9" value="&lt;font style=&quot;font-size: 20px;&quot;&gt;Instr_out&lt;/font&gt;" style="text;html=1;strokeColor=none;fillColor=none;align=center;verticalAlign=middle;whiteSpace=wrap;rounded=0;fontSize=40;" parent="1" vertex="1">
          <mxGeometry x="25.8" y="620" width="60" height="30" as="geometry" />
        </mxCell>
        <mxCell id="v2UC8kIAamlj0m0Apmrl-10" value="" style="shape=flexArrow;endArrow=classic;html=1;rounded=0;fontSize=20;strokeWidth=1;entryX=-0.006;entryY=0.394;entryDx=0;entryDy=0;entryPerimeter=0;" parent="1" edge="1">
          <mxGeometry width="50" height="50" relative="1" as="geometry">
            <mxPoint x="20.59999999999991" y="455" as="sourcePoint" />
            <mxPoint x="127" y="455.4000000000001" as="targetPoint" />
          </mxGeometry>
        </mxCell>
        <mxCell id="v2UC8kIAamlj0m0Apmrl-11" value="" style="shape=flexArrow;endArrow=classic;html=1;rounded=0;fontSize=20;strokeWidth=1;entryX=-0.006;entryY=0.394;entryDx=0;entryDy=0;entryPerimeter=0;" parent="1" edge="1">
          <mxGeometry width="50" height="50" relative="1" as="geometry">
            <mxPoint x="20.59999999999991" y="280" as="sourcePoint" />
            <mxPoint x="127" y="280.4000000000001" as="targetPoint" />
            <Array as="points">
              <mxPoint x="67" y="280" />
            </Array>
          </mxGeometry>
        </mxCell>
        <mxCell id="v2UC8kIAamlj0m0Apmrl-12" value="&lt;font style=&quot;font-size: 20px;&quot;&gt;IFEXEi&lt;/font&gt;" style="text;html=1;strokeColor=none;fillColor=none;align=center;verticalAlign=middle;whiteSpace=wrap;rounded=0;fontSize=40;" parent="1" vertex="1">
          <mxGeometry x="17" y="415" width="60" height="30" as="geometry" />
        </mxCell>
        <mxCell id="v2UC8kIAamlj0m0Apmrl-13" value="&lt;font style=&quot;font-size: 20px;&quot;&gt;IFHCi&lt;/font&gt;" style="text;html=1;strokeColor=none;fillColor=none;align=center;verticalAlign=middle;whiteSpace=wrap;rounded=0;fontSize=40;" parent="1" vertex="1">
          <mxGeometry x="17" y="239.13" width="60" height="30" as="geometry" />
        </mxCell>
        <mxCell id="v2UC8kIAamlj0m0Apmrl-14" value="" style="shape=flexArrow;endArrow=classic;html=1;rounded=0;fontSize=20;strokeWidth=1;entryX=-0.006;entryY=0.394;entryDx=0;entryDy=0;entryPerimeter=0;" parent="1" edge="1">
          <mxGeometry width="50" height="50" relative="1" as="geometry">
            <mxPoint x="727" y="360.1300000000001" as="sourcePoint" />
            <mxPoint x="833.4000000000001" y="360.5300000000002" as="targetPoint" />
          </mxGeometry>
        </mxCell>
        <mxCell id="v2UC8kIAamlj0m0Apmrl-15" value="&lt;font style=&quot;font-size: 20px;&quot;&gt;IFIDo&lt;/font&gt;" style="text;html=1;strokeColor=none;fillColor=none;align=center;verticalAlign=middle;whiteSpace=wrap;rounded=0;fontSize=40;" parent="1" vertex="1">
          <mxGeometry x="737" y="322.13" width="60" height="30" as="geometry" />
        </mxCell>
        <mxCell id="v2UC8kIAamlj0m0Apmrl-16" value="" style="endArrow=classic;html=1;rounded=0;fontSize=40;strokeWidth=1;entryX=-0.002;entryY=0.126;entryDx=0;entryDy=0;entryPerimeter=0;" parent="1" edge="1">
          <mxGeometry width="50" height="50" relative="1" as="geometry">
            <mxPoint x="727" y="228" as="sourcePoint" />
            <mxPoint x="835.7999999999997" y="227.60000000000014" as="targetPoint" />
          </mxGeometry>
        </mxCell>
        <mxCell id="v2UC8kIAamlj0m0Apmrl-17" value="&lt;font style=&quot;font-size: 20px;&quot;&gt;PC_out&lt;/font&gt;" style="text;html=1;strokeColor=none;fillColor=none;align=center;verticalAlign=middle;whiteSpace=wrap;rounded=0;fontSize=40;" parent="1" vertex="1">
          <mxGeometry x="737" y="192" width="60" height="30" as="geometry" />
        </mxCell>
        <mxCell id="v2UC8kIAamlj0m0Apmrl-18" value="" style="endArrow=classic;html=1;rounded=0;fontSize=20;strokeWidth=1;exitX=-0.001;exitY=0.109;exitDx=0;exitDy=0;exitPerimeter=0;entryX=-0.009;entryY=0.071;entryDx=0;entryDy=0;entryPerimeter=0;" parent="1" target="v2UC8kIAamlj0m0Apmrl-24" edge="1">
          <mxGeometry width="50" height="50" relative="1" as="geometry">
            <mxPoint x="126.40000000000009" y="180.4000000000001" as="sourcePoint" />
            <mxPoint x="347" y="181.25" as="targetPoint" />
          </mxGeometry>
        </mxCell>
        <mxCell id="v2UC8kIAamlj0m0Apmrl-19" value="" style="endArrow=classic;html=1;rounded=0;fontSize=20;strokeWidth=1;exitX=0;exitY=0.112;exitDx=0;exitDy=0;exitPerimeter=0;entryX=0;entryY=0.25;entryDx=0;entryDy=0;" parent="1" source="v2UC8kIAamlj0m0Apmrl-1" target="v2UC8kIAamlj0m0Apmrl-24" edge="1">
          <mxGeometry width="50" height="50" relative="1" as="geometry">
            <mxPoint x="127.59999999999991" y="246.00000000000006" as="sourcePoint" />
            <mxPoint x="-103" y="120" as="targetPoint" />
          </mxGeometry>
        </mxCell>
        <mxCell id="v2UC8kIAamlj0m0Apmrl-20" value="" style="endArrow=classic;html=1;rounded=0;fontSize=20;strokeWidth=1;exitX=0.001;exitY=0.234;exitDx=0;exitDy=0;exitPerimeter=0;entryX=0;entryY=0.75;entryDx=0;entryDy=0;" parent="1" source="v2UC8kIAamlj0m0Apmrl-1" target="v2UC8kIAamlj0m0Apmrl-24" edge="1">
          <mxGeometry width="50" height="50" relative="1" as="geometry">
            <mxPoint x="132" y="280" as="sourcePoint" />
            <mxPoint x="347" y="280" as="targetPoint" />
          </mxGeometry>
        </mxCell>
        <mxCell id="v2UC8kIAamlj0m0Apmrl-21" value="IFHCi.PCWrite" style="text;html=1;strokeColor=none;fillColor=none;align=center;verticalAlign=middle;whiteSpace=wrap;rounded=0;fontSize=20;" parent="1" vertex="1">
          <mxGeometry x="197" y="250" width="60" height="30" as="geometry" />
        </mxCell>
        <mxCell id="v2UC8kIAamlj0m0Apmrl-22" value="" style="group" parent="1" vertex="1" connectable="0">
          <mxGeometry x="354.5" y="140" width="145" height="175" as="geometry" />
        </mxCell>
        <mxCell id="v2UC8kIAamlj0m0Apmrl-23" value="" style="group" parent="v2UC8kIAamlj0m0Apmrl-22" vertex="1" connectable="0">
          <mxGeometry y="30" width="145" height="145" as="geometry" />
        </mxCell>
        <mxCell id="v2UC8kIAamlj0m0Apmrl-24" value="" style="whiteSpace=wrap;html=1;aspect=fixed;fontSize=20;fillColor=none;" parent="v2UC8kIAamlj0m0Apmrl-23" vertex="1">
          <mxGeometry x="23" width="145" height="145" as="geometry" />
        </mxCell>
        <mxCell id="v2UC8kIAamlj0m0Apmrl-25" value="" style="endArrow=classic;html=1;rounded=0;fontSize=20;strokeWidth=1;exitX=0.001;exitY=0.384;exitDx=0;exitDy=0;exitPerimeter=0;" parent="v2UC8kIAamlj0m0Apmrl-23" source="v2UC8kIAamlj0m0Apmrl-24" target="v2UC8kIAamlj0m0Apmrl-26" edge="1">
          <mxGeometry width="50" height="50" relative="1" as="geometry">
            <mxPoint x="10" y="60.870000000000005" as="sourcePoint" />
            <mxPoint x="55" y="60.870000000000005" as="targetPoint" />
          </mxGeometry>
        </mxCell>
        <mxCell id="v2UC8kIAamlj0m0Apmrl-26" value="" style="shape=trapezoid;perimeter=trapezoidPerimeter;whiteSpace=wrap;html=1;fixedSize=1;fontSize=20;fillColor=none;rotation=90;" parent="v2UC8kIAamlj0m0Apmrl-23" vertex="1">
          <mxGeometry x="63" y="40.870000000000005" width="65" height="30" as="geometry" />
        </mxCell>
        <mxCell id="v2UC8kIAamlj0m0Apmrl-27" value="" style="endArrow=classic;html=1;rounded=0;fontSize=20;strokeWidth=1;entryX=1;entryY=0.25;entryDx=0;entryDy=0;exitX=0;exitY=0.75;exitDx=0;exitDy=0;" parent="v2UC8kIAamlj0m0Apmrl-23" source="v2UC8kIAamlj0m0Apmrl-24" target="v2UC8kIAamlj0m0Apmrl-26" edge="1">
          <mxGeometry width="50" height="50" relative="1" as="geometry">
            <mxPoint x="20" y="30.870000000000005" as="sourcePoint" />
            <mxPoint x="70" y="-19.129999999999995" as="targetPoint" />
            <Array as="points">
              <mxPoint x="100" y="110.87" />
            </Array>
          </mxGeometry>
        </mxCell>
        <mxCell id="v2UC8kIAamlj0m0Apmrl-28" value="" style="endArrow=classic;html=1;rounded=0;fontSize=20;strokeWidth=1;exitX=0.5;exitY=0;exitDx=0;exitDy=0;entryX=0.998;entryY=0.406;entryDx=0;entryDy=0;entryPerimeter=0;" parent="v2UC8kIAamlj0m0Apmrl-23" source="v2UC8kIAamlj0m0Apmrl-26" target="v2UC8kIAamlj0m0Apmrl-24" edge="1">
          <mxGeometry width="50" height="50" relative="1" as="geometry">
            <mxPoint x="20" y="30.870000000000005" as="sourcePoint" />
            <mxPoint x="70" y="-19.129999999999995" as="targetPoint" />
          </mxGeometry>
        </mxCell>
        <mxCell id="v2UC8kIAamlj0m0Apmrl-29" value="PC" style="text;html=1;strokeColor=none;fillColor=none;align=center;verticalAlign=middle;whiteSpace=wrap;rounded=0;fontSize=20;" parent="v2UC8kIAamlj0m0Apmrl-22" vertex="1">
          <mxGeometry x="62.5" width="60" height="30" as="geometry" />
        </mxCell>
        <mxCell id="v2UC8kIAamlj0m0Apmrl-30" value="" style="shape=trapezoid;perimeter=trapezoidPerimeter;whiteSpace=wrap;html=1;fixedSize=1;fontSize=20;fillColor=none;rotation=90;" parent="1" vertex="1">
          <mxGeometry x="267" y="440" width="95" height="30" as="geometry" />
        </mxCell>
        <mxCell id="v2UC8kIAamlj0m0Apmrl-31" value="" style="endArrow=classic;html=1;rounded=0;fontFamily=Helvetica;fontSize=20;fontColor=default;strokeWidth=1;exitX=0.999;exitY=0.409;exitDx=0;exitDy=0;exitPerimeter=0;entryX=0.25;entryY=1;entryDx=0;entryDy=0;" parent="1" source="v2UC8kIAamlj0m0Apmrl-24" target="v2UC8kIAamlj0m0Apmrl-38" edge="1">
          <mxGeometry width="50" height="50" relative="1" as="geometry">
            <mxPoint x="337" y="440" as="sourcePoint" />
            <mxPoint x="387" y="390" as="targetPoint" />
            <Array as="points">
              <mxPoint x="547" y="230" />
              <mxPoint x="547" y="560" />
              <mxPoint x="177" y="560" />
              <mxPoint x="177" y="480" />
            </Array>
          </mxGeometry>
        </mxCell>
        <mxCell id="v2UC8kIAamlj0m0Apmrl-32" value="" style="endArrow=classic;html=1;rounded=0;fontFamily=Helvetica;fontSize=20;fontColor=default;strokeWidth=1;entryX=0;entryY=0.5;entryDx=0;entryDy=0;exitX=0.001;exitY=0.426;exitDx=0;exitDy=0;exitPerimeter=0;" parent="1" source="v2UC8kIAamlj0m0Apmrl-1" target="v2UC8kIAamlj0m0Apmrl-30" edge="1">
          <mxGeometry width="50" height="50" relative="1" as="geometry">
            <mxPoint x="407" y="390" as="sourcePoint" />
            <mxPoint x="457" y="340" as="targetPoint" />
            <Array as="points">
              <mxPoint x="315" y="396" />
            </Array>
          </mxGeometry>
        </mxCell>
        <mxCell id="v2UC8kIAamlj0m0Apmrl-33" value="" style="endArrow=classic;html=1;rounded=0;fontFamily=Helvetica;fontSize=20;fontColor=default;strokeWidth=1;entryX=0.25;entryY=1;entryDx=0;entryDy=0;" parent="1" target="v2UC8kIAamlj0m0Apmrl-30" edge="1">
          <mxGeometry width="50" height="50" relative="1" as="geometry">
            <mxPoint x="127" y="455" as="sourcePoint" />
            <mxPoint x="427" y="450" as="targetPoint" />
            <Array as="points">
              <mxPoint x="147" y="431" />
            </Array>
          </mxGeometry>
        </mxCell>
        <mxCell id="v2UC8kIAamlj0m0Apmrl-34" value="" style="endArrow=classic;html=1;rounded=0;fontFamily=Helvetica;fontSize=20;fontColor=default;strokeWidth=1;entryX=0.5;entryY=1;entryDx=0;entryDy=0;exitX=0.001;exitY=0.526;exitDx=0;exitDy=0;exitPerimeter=0;" parent="1" source="v2UC8kIAamlj0m0Apmrl-1" target="v2UC8kIAamlj0m0Apmrl-30" edge="1">
          <mxGeometry width="50" height="50" relative="1" as="geometry">
            <mxPoint x="377" y="500" as="sourcePoint" />
            <mxPoint x="427" y="450" as="targetPoint" />
          </mxGeometry>
        </mxCell>
        <mxCell id="v2UC8kIAamlj0m0Apmrl-35" value="IFEXEi.PC_imm" style="text;html=1;strokeColor=none;fillColor=none;align=center;verticalAlign=middle;whiteSpace=wrap;rounded=0;fontFamily=Helvetica;fontSize=20;fontColor=default;" parent="1" vertex="1">
          <mxGeometry x="191" y="400" width="60" height="30" as="geometry" />
        </mxCell>
        <mxCell id="v2UC8kIAamlj0m0Apmrl-36" value="IFEXEi.PC_jr" style="text;html=1;strokeColor=none;fillColor=none;align=center;verticalAlign=middle;whiteSpace=wrap;rounded=0;fontFamily=Helvetica;fontSize=20;fontColor=default;" parent="1" vertex="1">
          <mxGeometry x="177" y="427" width="60" height="30" as="geometry" />
        </mxCell>
        <mxCell id="v2UC8kIAamlj0m0Apmrl-37" value="" style="endArrow=classic;html=1;rounded=0;fontFamily=Helvetica;fontSize=20;fontColor=default;strokeWidth=1;entryX=0.998;entryY=0.147;entryDx=0;entryDy=0;entryPerimeter=0;" parent="1" target="v2UC8kIAamlj0m0Apmrl-1" edge="1">
          <mxGeometry width="50" height="50" relative="1" as="geometry">
            <mxPoint x="547" y="230" as="sourcePoint" />
            <mxPoint x="517" y="370" as="targetPoint" />
          </mxGeometry>
        </mxCell>
        <mxCell id="v2UC8kIAamlj0m0Apmrl-38" value="" style="shape=trapezoid;perimeter=trapezoidPerimeter;whiteSpace=wrap;html=1;fixedSize=1;fontSize=20;fillColor=none;rotation=90;" parent="1" vertex="1">
          <mxGeometry x="212" y="480" width="55" height="30" as="geometry" />
        </mxCell>
        <mxCell id="v2UC8kIAamlj0m0Apmrl-39" value="" style="endArrow=classic;html=1;rounded=0;fontFamily=Helvetica;fontSize=20;fontColor=default;strokeWidth=1;" parent="1" edge="1">
          <mxGeometry width="50" height="50" relative="1" as="geometry">
            <mxPoint x="203" y="520" as="sourcePoint" />
            <mxPoint x="224" y="520" as="targetPoint" />
          </mxGeometry>
        </mxCell>
        <mxCell id="v2UC8kIAamlj0m0Apmrl-40" value="4" style="text;html=1;strokeColor=none;fillColor=none;align=center;verticalAlign=middle;whiteSpace=wrap;rounded=0;fontFamily=Helvetica;fontSize=20;fontColor=default;" parent="1" vertex="1">
          <mxGeometry x="167" y="505" width="60" height="30" as="geometry" />
        </mxCell>
        <mxCell id="v2UC8kIAamlj0m0Apmrl-41" value="+" style="text;html=1;strokeColor=none;fillColor=none;align=center;verticalAlign=middle;whiteSpace=wrap;rounded=0;fontFamily=Helvetica;fontSize=20;fontColor=default;" parent="1" vertex="1">
          <mxGeometry x="209" y="480" width="60" height="30" as="geometry" />
        </mxCell>
        <mxCell id="v2UC8kIAamlj0m0Apmrl-42" value="" style="endArrow=classic;html=1;rounded=0;fontFamily=Helvetica;fontSize=20;fontColor=default;strokeWidth=1;entryX=0.919;entryY=1.029;entryDx=0;entryDy=0;exitX=0.5;exitY=0;exitDx=0;exitDy=0;entryPerimeter=0;" parent="1" source="v2UC8kIAamlj0m0Apmrl-38" target="v2UC8kIAamlj0m0Apmrl-30" edge="1">
          <mxGeometry width="50" height="50" relative="1" as="geometry">
            <mxPoint x="267" y="490" as="sourcePoint" />
            <mxPoint x="507" y="370" as="targetPoint" />
          </mxGeometry>
        </mxCell>
        <mxCell id="v2UC8kIAamlj0m0Apmrl-43" value="PCtoIM" style="text;html=1;strokeColor=none;fillColor=none;align=center;verticalAlign=middle;whiteSpace=wrap;rounded=0;fontFamily=Helvetica;fontSize=20;fontColor=default;" parent="1" vertex="1">
          <mxGeometry x="477" y="520" width="60" height="30" as="geometry" />
        </mxCell>
        <mxCell id="v2UC8kIAamlj0m0Apmrl-44" value="" style="endArrow=classic;html=1;rounded=0;fontFamily=Helvetica;fontSize=20;fontColor=default;strokeWidth=1;entryX=-0.003;entryY=0.374;entryDx=0;entryDy=0;entryPerimeter=0;exitX=0.5;exitY=0;exitDx=0;exitDy=0;" parent="1" source="v2UC8kIAamlj0m0Apmrl-30" target="v2UC8kIAamlj0m0Apmrl-24" edge="1">
          <mxGeometry width="50" height="50" relative="1" as="geometry">
            <mxPoint x="217" y="380" as="sourcePoint" />
            <mxPoint x="267" y="330" as="targetPoint" />
            <Array as="points">
              <mxPoint x="347" y="455" />
              <mxPoint x="347" y="224" />
            </Array>
          </mxGeometry>
        </mxCell>
        <mxCell id="v2UC8kIAamlj0m0Apmrl-45" value="PC_in" style="text;html=1;strokeColor=none;fillColor=none;align=center;verticalAlign=middle;whiteSpace=wrap;rounded=0;fontFamily=Helvetica;fontSize=20;fontColor=default;rotation=-90;" parent="1" vertex="1">
          <mxGeometry x="330" y="400" width="60" height="30" as="geometry" />
        </mxCell>
        <mxCell id="v2UC8kIAamlj0m0Apmrl-46" value="" style="endArrow=classic;html=1;rounded=0;fontFamily=Helvetica;fontSize=20;fontColor=default;strokeWidth=1;exitX=0;exitY=0.862;exitDx=0;exitDy=0;exitPerimeter=0;entryX=0.75;entryY=1;entryDx=0;entryDy=0;" parent="1" source="v2UC8kIAamlj0m0Apmrl-1" target="v2UC8kIAamlj0m0Apmrl-47" edge="1">
          <mxGeometry width="50" height="50" relative="1" as="geometry">
            <mxPoint x="360" y="400" as="sourcePoint" />
            <mxPoint x="410" y="350" as="targetPoint" />
            <Array as="points">
              <mxPoint x="600" y="660" />
              <mxPoint x="600" y="383" />
            </Array>
          </mxGeometry>
        </mxCell>
        <mxCell id="v2UC8kIAamlj0m0Apmrl-47" value="" style="shape=trapezoid;perimeter=trapezoidPerimeter;whiteSpace=wrap;html=1;fixedSize=1;fontFamily=Helvetica;fontSize=20;fontColor=default;strokeColor=default;fillColor=none;rotation=90;" parent="1" vertex="1">
          <mxGeometry x="620" y="340" width="90" height="40" as="geometry" />
        </mxCell>
        <mxCell id="v2UC8kIAamlj0m0Apmrl-48" value="" style="endArrow=classic;html=1;rounded=0;fontFamily=Helvetica;fontSize=20;fontColor=default;strokeWidth=1;entryX=0.25;entryY=1;entryDx=0;entryDy=0;" parent="1" target="v2UC8kIAamlj0m0Apmrl-47" edge="1">
          <mxGeometry width="50" height="50" relative="1" as="geometry">
            <mxPoint x="600" y="230" as="sourcePoint" />
            <mxPoint x="410" y="250" as="targetPoint" />
            <Array as="points">
              <mxPoint x="600" y="340" />
            </Array>
          </mxGeometry>
        </mxCell>
        <mxCell id="v2UC8kIAamlj0m0Apmrl-49" value="" style="endArrow=classic;html=1;rounded=0;fontFamily=Helvetica;fontSize=20;fontColor=default;strokeWidth=1;entryX=0;entryY=0.5;entryDx=0;entryDy=0;exitX=0.001;exitY=0.235;exitDx=0;exitDy=0;exitPerimeter=0;" parent="1" source="v2UC8kIAamlj0m0Apmrl-1" target="v2UC8kIAamlj0m0Apmrl-47" edge="1">
          <mxGeometry width="50" height="50" relative="1" as="geometry">
            <mxPoint x="130" y="280" as="sourcePoint" />
            <mxPoint x="410" y="250" as="targetPoint" />
            <Array as="points">
              <mxPoint x="150" y="310" />
              <mxPoint x="665" y="310" />
            </Array>
          </mxGeometry>
        </mxCell>
        <mxCell id="v2UC8kIAamlj0m0Apmrl-50" value="IFHCi.IFID_RegWrite" style="text;html=1;strokeColor=none;fillColor=none;align=center;verticalAlign=middle;whiteSpace=wrap;rounded=0;fontFamily=Helvetica;fontSize=20;fontColor=default;" parent="1" vertex="1">
          <mxGeometry x="220" y="280" width="60" height="30" as="geometry" />
        </mxCell>
        <mxCell id="v2UC8kIAamlj0m0Apmrl-51" value="" style="endArrow=classic;html=1;rounded=0;fontFamily=Helvetica;fontSize=20;fontColor=default;strokeWidth=1;entryX=0;entryY=0.25;entryDx=0;entryDy=0;exitX=-0.001;exitY=0.235;exitDx=0;exitDy=0;exitPerimeter=0;" parent="1" source="v2UC8kIAamlj0m0Apmrl-1" target="v2UC8kIAamlj0m0Apmrl-47" edge="1">
          <mxGeometry width="50" height="50" relative="1" as="geometry">
            <mxPoint x="430" y="320" as="sourcePoint" />
            <mxPoint x="480" y="270" as="targetPoint" />
            <Array as="points">
              <mxPoint x="140" y="340" />
              <mxPoint x="570" y="340" />
              <mxPoint x="570" y="300" />
              <mxPoint x="672" y="300" />
            </Array>
          </mxGeometry>
        </mxCell>
        <mxCell id="v2UC8kIAamlj0m0Apmrl-52" value="IFHCi.InstrFlush" style="text;html=1;strokeColor=none;fillColor=none;align=center;verticalAlign=middle;whiteSpace=wrap;rounded=0;fontFamily=Helvetica;fontSize=20;fontColor=default;" parent="1" vertex="1">
          <mxGeometry x="197" y="315" width="60" height="30" as="geometry" />
        </mxCell>
        <mxCell id="v2UC8kIAamlj0m0Apmrl-53" value="" style="endArrow=classic;html=1;rounded=0;fontFamily=Helvetica;fontSize=20;fontColor=default;strokeWidth=1;exitX=0.5;exitY=0;exitDx=0;exitDy=0;" parent="1" source="v2UC8kIAamlj0m0Apmrl-47" edge="1">
          <mxGeometry width="50" height="50" relative="1" as="geometry">
            <mxPoint x="400" y="350" as="sourcePoint" />
            <mxPoint x="730" y="360" as="targetPoint" />
          </mxGeometry>
        </mxCell>
      </root>
    </mxGraphModel>
  </diagram>
  <diagram id="LKS_uBKTHl27mEhVpwQP" name="ID">
    <mxGraphModel dx="1702" dy="1028" grid="1" gridSize="10" guides="1" tooltips="1" connect="1" arrows="1" fold="1" page="1" pageScale="1" pageWidth="850" pageHeight="1100" math="0" shadow="0">
      <root>
        <mxCell id="0" />
        <mxCell id="1" parent="0" />
        <mxCell id="qYvPp2u0p2_YrLe-tAom-1" value="" style="whiteSpace=wrap;html=1;aspect=fixed;fontSize=40;fillColor=none;" parent="1" vertex="1">
          <mxGeometry x="124" y="145" width="600" height="600" as="geometry" />
        </mxCell>
        <mxCell id="qYvPp2u0p2_YrLe-tAom-2" value="" style="endArrow=classic;html=1;rounded=0;fontSize=40;strokeWidth=1;entryX=-0.002;entryY=0.126;entryDx=0;entryDy=0;entryPerimeter=0;" parent="1" edge="1">
          <mxGeometry width="50" height="50" relative="1" as="geometry">
            <mxPoint x="17" y="180" as="sourcePoint" />
            <mxPoint x="125.79999999999973" y="179.60000000000014" as="targetPoint" />
          </mxGeometry>
        </mxCell>
        <mxCell id="qYvPp2u0p2_YrLe-tAom-3" value="&lt;font style=&quot;font-size: 20px;&quot;&gt;Clk&lt;/font&gt;" style="text;html=1;strokeColor=none;fillColor=none;align=center;verticalAlign=middle;whiteSpace=wrap;rounded=0;fontSize=40;" parent="1" vertex="1">
          <mxGeometry x="7" y="144" width="60" height="30" as="geometry" />
        </mxCell>
        <mxCell id="qYvPp2u0p2_YrLe-tAom-4" value="" style="endArrow=classic;html=1;rounded=0;fontSize=40;strokeWidth=1;entryX=-0.002;entryY=0.126;entryDx=0;entryDy=0;entryPerimeter=0;" parent="1" edge="1">
          <mxGeometry width="50" height="50" relative="1" as="geometry">
            <mxPoint x="17" y="208" as="sourcePoint" />
            <mxPoint x="125.80000000000018" y="207.5999999999999" as="targetPoint" />
          </mxGeometry>
        </mxCell>
        <mxCell id="qYvPp2u0p2_YrLe-tAom-5" value="&lt;font style=&quot;font-size: 20px;&quot;&gt;rst&lt;/font&gt;" style="text;html=1;strokeColor=none;fillColor=none;align=center;verticalAlign=middle;whiteSpace=wrap;rounded=0;fontSize=40;" parent="1" vertex="1">
          <mxGeometry x="7" y="174" width="60" height="30" as="geometry" />
        </mxCell>
        <mxCell id="qYvPp2u0p2_YrLe-tAom-56" value="IMMediateGenerator" style="whiteSpace=wrap;html=1;aspect=fixed;fillColor=none;" parent="1" vertex="1">
          <mxGeometry x="320" y="570" width="160" height="160" as="geometry" />
        </mxCell>
        <mxCell id="qYvPp2u0p2_YrLe-tAom-57" value="&lt;font color=&quot;#ffffff&quot;&gt;&lt;br&gt;&lt;span style=&quot;font-family: Helvetica; font-size: 12px; font-style: normal; font-variant-ligatures: normal; font-variant-caps: normal; font-weight: 400; letter-spacing: normal; orphans: 2; text-align: center; text-indent: 0px; text-transform: none; widows: 2; word-spacing: 0px; -webkit-text-stroke-width: 0px; text-decoration-thickness: initial; text-decoration-style: initial; text-decoration-color: initial; float: none; display: inline !important;&quot;&gt;ControlUnit&lt;/span&gt;&lt;/font&gt;" style="whiteSpace=wrap;html=1;aspect=fixed;fillColor=none;" parent="1" vertex="1">
          <mxGeometry x="320" y="380" width="160" height="160" as="geometry" />
        </mxCell>
        <mxCell id="0ffXymxxKPCDrZLorsO_-1" value="" style="shape=flexArrow;endArrow=classic;html=1;rounded=0;fontSize=20;strokeWidth=1;entryX=-0.006;entryY=0.394;entryDx=0;entryDy=0;entryPerimeter=0;" parent="1" edge="1">
          <mxGeometry width="50" height="50" relative="1" as="geometry">
            <mxPoint x="18.600000000000023" y="397.9999999999999" as="sourcePoint" />
            <mxPoint x="125.00000000000011" y="398.4000000000002" as="targetPoint" />
          </mxGeometry>
        </mxCell>
        <mxCell id="0ffXymxxKPCDrZLorsO_-2" value="&lt;font style=&quot;font-size: 20px;&quot;&gt;IFIDi&lt;/font&gt;" style="text;html=1;strokeColor=none;fillColor=none;align=center;verticalAlign=middle;whiteSpace=wrap;rounded=0;fontSize=40;" parent="1" vertex="1">
          <mxGeometry x="30.600000000000023" y="360" width="60" height="30" as="geometry" />
        </mxCell>
        <mxCell id="0ffXymxxKPCDrZLorsO_-3" value="" style="endArrow=classic;html=1;rounded=0;fontSize=40;strokeWidth=1;entryX=-0.002;entryY=0.126;entryDx=0;entryDy=0;entryPerimeter=0;" parent="1" edge="1">
          <mxGeometry width="50" height="50" relative="1" as="geometry">
            <mxPoint x="18.2" y="238" as="sourcePoint" />
            <mxPoint x="126.99999999999973" y="237.60000000000014" as="targetPoint" />
          </mxGeometry>
        </mxCell>
        <mxCell id="0ffXymxxKPCDrZLorsO_-4" value="" style="endArrow=classic;html=1;rounded=0;fontSize=40;strokeWidth=1;entryX=-0.002;entryY=0.126;entryDx=0;entryDy=0;entryPerimeter=0;" parent="1" edge="1">
          <mxGeometry width="50" height="50" relative="1" as="geometry">
            <mxPoint x="18.2" y="266" as="sourcePoint" />
            <mxPoint x="127.00000000000018" y="265.5999999999999" as="targetPoint" />
          </mxGeometry>
        </mxCell>
        <mxCell id="0ffXymxxKPCDrZLorsO_-5" value="&lt;font style=&quot;font-size: 20px;&quot;&gt;WB_rdaddr&lt;/font&gt;" style="text;html=1;strokeColor=none;fillColor=none;align=center;verticalAlign=middle;whiteSpace=wrap;rounded=0;fontSize=40;" parent="1" vertex="1">
          <mxGeometry x="30" y="232" width="60" height="30" as="geometry" />
        </mxCell>
        <mxCell id="0ffXymxxKPCDrZLorsO_-6" value="&lt;font style=&quot;font-size: 20px;&quot;&gt;WB_RegWrite&lt;/font&gt;" style="text;html=1;strokeColor=none;fillColor=none;align=center;verticalAlign=middle;whiteSpace=wrap;rounded=0;fontSize=40;" parent="1" vertex="1">
          <mxGeometry x="35" y="202" width="60" height="30" as="geometry" />
        </mxCell>
        <mxCell id="0ffXymxxKPCDrZLorsO_-7" value="" style="endArrow=classic;html=1;rounded=0;fontSize=40;strokeWidth=1;entryX=-0.002;entryY=0.126;entryDx=0;entryDy=0;entryPerimeter=0;" parent="1" edge="1">
          <mxGeometry width="50" height="50" relative="1" as="geometry">
            <mxPoint x="18.200000000000045" y="293.35" as="sourcePoint" />
            <mxPoint x="126.99999999999977" y="292.95000000000016" as="targetPoint" />
          </mxGeometry>
        </mxCell>
        <mxCell id="0ffXymxxKPCDrZLorsO_-8" value="" style="endArrow=classic;html=1;rounded=0;fontSize=40;strokeWidth=1;entryX=-0.002;entryY=0.126;entryDx=0;entryDy=0;entryPerimeter=0;" parent="1" edge="1">
          <mxGeometry width="50" height="50" relative="1" as="geometry">
            <mxPoint x="15.200000000000045" y="735.19" as="sourcePoint" />
            <mxPoint x="124.00000000000023" y="734.79" as="targetPoint" />
          </mxGeometry>
        </mxCell>
        <mxCell id="0ffXymxxKPCDrZLorsO_-9" value="&lt;font style=&quot;font-size: 20px;&quot;&gt;ID_Flush&lt;/font&gt;" style="text;html=1;strokeColor=none;fillColor=none;align=center;verticalAlign=middle;whiteSpace=wrap;rounded=0;fontSize=40;" parent="1" vertex="1">
          <mxGeometry x="38.2" y="690" width="60" height="30" as="geometry" />
        </mxCell>
        <mxCell id="0ffXymxxKPCDrZLorsO_-10" value="&lt;font style=&quot;font-size: 20px;&quot;&gt;WB_rddata&lt;/font&gt;" style="text;html=1;strokeColor=none;fillColor=none;align=center;verticalAlign=middle;whiteSpace=wrap;rounded=0;fontSize=40;" parent="1" vertex="1">
          <mxGeometry x="35" y="257.35" width="60" height="30" as="geometry" />
        </mxCell>
        <mxCell id="0ffXymxxKPCDrZLorsO_-11" value="" style="shape=flexArrow;endArrow=classic;html=1;rounded=0;fontSize=20;strokeWidth=1;entryX=-0.006;entryY=0.394;entryDx=0;entryDy=0;entryPerimeter=0;" parent="1" edge="1">
          <mxGeometry width="50" height="50" relative="1" as="geometry">
            <mxPoint x="725" y="374.9999999999999" as="sourcePoint" />
            <mxPoint x="831.4000000000001" y="375.4000000000001" as="targetPoint" />
          </mxGeometry>
        </mxCell>
        <mxCell id="0ffXymxxKPCDrZLorsO_-12" value="&lt;font style=&quot;font-size: 20px;&quot;&gt;IDEXEo&lt;/font&gt;" style="text;html=1;strokeColor=none;fillColor=none;align=center;verticalAlign=middle;whiteSpace=wrap;rounded=0;fontSize=40;" parent="1" vertex="1">
          <mxGeometry x="737.4" y="339.05" width="60" height="30" as="geometry" />
        </mxCell>
        <mxCell id="0ffXymxxKPCDrZLorsO_-21" value="" style="endArrow=classic;html=1;rounded=0;fontSize=40;strokeWidth=1;entryX=-0.002;entryY=0.126;entryDx=0;entryDy=0;entryPerimeter=0;" parent="1" edge="1">
          <mxGeometry width="50" height="50" relative="1" as="geometry">
            <mxPoint x="725" y="639" as="sourcePoint" />
            <mxPoint x="833.7999999999997" y="638.6000000000001" as="targetPoint" />
          </mxGeometry>
        </mxCell>
        <mxCell id="0ffXymxxKPCDrZLorsO_-22" value="" style="endArrow=classic;html=1;rounded=0;fontSize=40;strokeWidth=1;entryX=-0.002;entryY=0.126;entryDx=0;entryDy=0;entryPerimeter=0;" parent="1" edge="1">
          <mxGeometry width="50" height="50" relative="1" as="geometry">
            <mxPoint x="725" y="667" as="sourcePoint" />
            <mxPoint x="833.8000000000003" y="666.5999999999999" as="targetPoint" />
          </mxGeometry>
        </mxCell>
        <mxCell id="0ffXymxxKPCDrZLorsO_-23" value="&lt;font style=&quot;font-size: 20px;&quot;&gt;ID_rs2addr&lt;/font&gt;" style="text;html=1;strokeColor=none;fillColor=none;align=center;verticalAlign=middle;whiteSpace=wrap;rounded=0;fontSize=40;" parent="1" vertex="1">
          <mxGeometry x="745.8" y="633" width="60" height="30" as="geometry" />
        </mxCell>
        <mxCell id="0ffXymxxKPCDrZLorsO_-24" value="&lt;font style=&quot;font-size: 20px;&quot;&gt;ID_rs1addr&lt;/font&gt;" style="text;html=1;strokeColor=none;fillColor=none;align=center;verticalAlign=middle;whiteSpace=wrap;rounded=0;fontSize=40;" parent="1" vertex="1">
          <mxGeometry x="745.8" y="603" width="60" height="30" as="geometry" />
        </mxCell>
        <mxCell id="0ffXymxxKPCDrZLorsO_-25" value="" style="endArrow=classic;html=1;rounded=0;fontSize=40;strokeWidth=1;entryX=-0.002;entryY=0.126;entryDx=0;entryDy=0;entryPerimeter=0;" parent="1" edge="1">
          <mxGeometry width="50" height="50" relative="1" as="geometry">
            <mxPoint x="725" y="536.97" as="sourcePoint" />
            <mxPoint x="833.7999999999997" y="536.5700000000002" as="targetPoint" />
          </mxGeometry>
        </mxCell>
        <mxCell id="0ffXymxxKPCDrZLorsO_-26" value="&lt;font style=&quot;font-size: 20px;&quot;&gt;ID_branch&lt;/font&gt;" style="text;html=1;strokeColor=none;fillColor=none;align=center;verticalAlign=middle;whiteSpace=wrap;rounded=0;fontSize=40;" parent="1" vertex="1">
          <mxGeometry x="743.8" y="501.97" width="60" height="30" as="geometry" />
        </mxCell>
        <mxCell id="0ffXymxxKPCDrZLorsO_-28" value="" style="endArrow=classic;html=1;rounded=0;entryX=-0.007;entryY=0.123;entryDx=0;entryDy=0;entryPerimeter=0;exitX=-0.001;exitY=0.064;exitDx=0;exitDy=0;exitPerimeter=0;" parent="1" source="qYvPp2u0p2_YrLe-tAom-1" edge="1">
          <mxGeometry width="50" height="50" relative="1" as="geometry">
            <mxPoint x="440" y="390" as="sourcePoint" />
            <mxPoint x="318.8800000000001" y="179.67999999999995" as="targetPoint" />
          </mxGeometry>
        </mxCell>
        <mxCell id="0ffXymxxKPCDrZLorsO_-29" value="" style="endArrow=classic;html=1;rounded=0;entryX=-0.007;entryY=0.123;entryDx=0;entryDy=0;entryPerimeter=0;exitX=-0.001;exitY=0.064;exitDx=0;exitDy=0;exitPerimeter=0;" parent="1" edge="1">
          <mxGeometry width="50" height="50" relative="1" as="geometry">
            <mxPoint x="127.5200000000001" y="207.99999999999997" as="sourcePoint" />
            <mxPoint x="319.9999999999999" y="209.28000000000006" as="targetPoint" />
          </mxGeometry>
        </mxCell>
        <mxCell id="0ffXymxxKPCDrZLorsO_-30" value="" style="endArrow=classic;html=1;rounded=0;entryX=-0.007;entryY=0.123;entryDx=0;entryDy=0;entryPerimeter=0;exitX=-0.001;exitY=0.064;exitDx=0;exitDy=0;exitPerimeter=0;" parent="1" edge="1">
          <mxGeometry width="50" height="50" relative="1" as="geometry">
            <mxPoint x="127.0000000000001" y="237.36" as="sourcePoint" />
            <mxPoint x="319.48" y="238.6400000000001" as="targetPoint" />
          </mxGeometry>
        </mxCell>
        <mxCell id="0ffXymxxKPCDrZLorsO_-31" value="" style="endArrow=classic;html=1;rounded=0;entryX=-0.007;entryY=0.123;entryDx=0;entryDy=0;entryPerimeter=0;exitX=-0.001;exitY=0.064;exitDx=0;exitDy=0;exitPerimeter=0;" parent="1" edge="1">
          <mxGeometry width="50" height="50" relative="1" as="geometry">
            <mxPoint x="127.0000000000001" y="266" as="sourcePoint" />
            <mxPoint x="319.48" y="267.2800000000001" as="targetPoint" />
          </mxGeometry>
        </mxCell>
        <mxCell id="0ffXymxxKPCDrZLorsO_-32" value="" style="endArrow=classic;html=1;rounded=0;entryX=-0.007;entryY=0.123;entryDx=0;entryDy=0;entryPerimeter=0;exitX=-0.001;exitY=0.064;exitDx=0;exitDy=0;exitPerimeter=0;" parent="1" edge="1">
          <mxGeometry width="50" height="50" relative="1" as="geometry">
            <mxPoint x="127.5200000000001" y="293" as="sourcePoint" />
            <mxPoint x="320" y="294.2800000000001" as="targetPoint" />
          </mxGeometry>
        </mxCell>
        <mxCell id="0ffXymxxKPCDrZLorsO_-33" value="RF" style="rounded=0;whiteSpace=wrap;html=1;fillColor=none;" parent="1" vertex="1">
          <mxGeometry x="320" y="160" width="160" height="200" as="geometry" />
        </mxCell>
        <mxCell id="0ffXymxxKPCDrZLorsO_-34" value="" style="endArrow=classic;html=1;rounded=0;entryX=0;entryY=0.75;entryDx=0;entryDy=0;exitX=0;exitY=0.429;exitDx=0;exitDy=0;exitPerimeter=0;" parent="1" source="qYvPp2u0p2_YrLe-tAom-1" target="0ffXymxxKPCDrZLorsO_-33" edge="1">
          <mxGeometry width="50" height="50" relative="1" as="geometry">
            <mxPoint x="130" y="400" as="sourcePoint" />
            <mxPoint x="420" y="230" as="targetPoint" />
            <Array as="points">
              <mxPoint x="150" y="310" />
            </Array>
          </mxGeometry>
        </mxCell>
        <mxCell id="0ffXymxxKPCDrZLorsO_-35" value="" style="endArrow=classic;html=1;rounded=0;entryX=-0.001;entryY=0.881;entryDx=0;entryDy=0;entryPerimeter=0;exitX=-0.001;exitY=0.43;exitDx=0;exitDy=0;exitPerimeter=0;" parent="1" source="qYvPp2u0p2_YrLe-tAom-1" target="0ffXymxxKPCDrZLorsO_-33" edge="1">
          <mxGeometry width="50" height="50" relative="1" as="geometry">
            <mxPoint x="180" y="370" as="sourcePoint" />
            <mxPoint x="230" y="320" as="targetPoint" />
            <Array as="points">
              <mxPoint x="150" y="336" />
            </Array>
          </mxGeometry>
        </mxCell>
        <mxCell id="0ffXymxxKPCDrZLorsO_-36" value="IFIDi.IF_instrout[19:15]" style="text;html=1;strokeColor=none;fillColor=none;align=center;verticalAlign=middle;whiteSpace=wrap;rounded=0;" parent="1" vertex="1">
          <mxGeometry x="210" y="287.35" width="60" height="30" as="geometry" />
        </mxCell>
        <mxCell id="0ffXymxxKPCDrZLorsO_-37" value="IFIDi.IF_instrout[24:20]" style="text;html=1;strokeColor=none;fillColor=none;align=center;verticalAlign=middle;whiteSpace=wrap;rounded=0;" parent="1" vertex="1">
          <mxGeometry x="210" y="312" width="60" height="30" as="geometry" />
        </mxCell>
        <mxCell id="0ffXymxxKPCDrZLorsO_-38" value="" style="endArrow=classic;html=1;rounded=0;entryX=1;entryY=0.384;entryDx=0;entryDy=0;entryPerimeter=0;exitX=0.996;exitY=0.669;exitDx=0;exitDy=0;exitPerimeter=0;" parent="1" source="0ffXymxxKPCDrZLorsO_-33" target="qYvPp2u0p2_YrLe-tAom-1" edge="1">
          <mxGeometry width="50" height="50" relative="1" as="geometry">
            <mxPoint x="480" y="370" as="sourcePoint" />
            <mxPoint x="530" y="320" as="targetPoint" />
            <Array as="points">
              <mxPoint x="680" y="294" />
              <mxPoint x="680" y="360" />
            </Array>
          </mxGeometry>
        </mxCell>
        <mxCell id="0ffXymxxKPCDrZLorsO_-39" value="" style="endArrow=classic;html=1;rounded=0;exitX=1;exitY=0.75;exitDx=0;exitDy=0;entryX=1;entryY=0.384;entryDx=0;entryDy=0;entryPerimeter=0;" parent="1" source="0ffXymxxKPCDrZLorsO_-33" target="qYvPp2u0p2_YrLe-tAom-1" edge="1">
          <mxGeometry width="50" height="50" relative="1" as="geometry">
            <mxPoint x="490" y="220" as="sourcePoint" />
            <mxPoint x="720" y="360" as="targetPoint" />
            <Array as="points">
              <mxPoint x="670" y="310" />
              <mxPoint x="670" y="370" />
            </Array>
          </mxGeometry>
        </mxCell>
        <mxCell id="0ffXymxxKPCDrZLorsO_-40" value="Wire_rs1" style="text;html=1;strokeColor=none;fillColor=none;align=center;verticalAlign=middle;whiteSpace=wrap;rounded=0;" parent="1" vertex="1">
          <mxGeometry x="490" y="270" width="60" height="30" as="geometry" />
        </mxCell>
        <mxCell id="0ffXymxxKPCDrZLorsO_-41" value="Wire_rs2" style="text;html=1;strokeColor=none;fillColor=none;align=center;verticalAlign=middle;whiteSpace=wrap;rounded=0;" parent="1" vertex="1">
          <mxGeometry x="490" y="310" width="60" height="30" as="geometry" />
        </mxCell>
        <mxCell id="0ffXymxxKPCDrZLorsO_-42" value="" style="endArrow=classic;html=1;rounded=0;exitX=0;exitY=0.423;exitDx=0;exitDy=0;exitPerimeter=0;entryX=-0.002;entryY=0.171;entryDx=0;entryDy=0;entryPerimeter=0;" parent="1" edge="1">
          <mxGeometry width="50" height="50" relative="1" as="geometry">
            <mxPoint x="125" y="399.4200000000001" as="sourcePoint" />
            <mxPoint x="319.67999999999995" y="399.3600000000001" as="targetPoint" />
          </mxGeometry>
        </mxCell>
        <mxCell id="0ffXymxxKPCDrZLorsO_-43" value="IFIDi.IF_instrout[6:0]" style="text;html=1;strokeColor=none;fillColor=none;align=center;verticalAlign=middle;whiteSpace=wrap;rounded=0;" parent="1" vertex="1">
          <mxGeometry x="204" y="374" width="60" height="30" as="geometry" />
        </mxCell>
        <mxCell id="0ffXymxxKPCDrZLorsO_-44" value="" style="endArrow=classic;html=1;rounded=0;exitX=0.994;exitY=0.03;exitDx=0;exitDy=0;exitPerimeter=0;entryX=-0.007;entryY=0.156;entryDx=0;entryDy=0;entryPerimeter=0;" parent="1" source="qYvPp2u0p2_YrLe-tAom-57" target="qYvPp2u0p2_YrLe-tAom-56" edge="1">
          <mxGeometry width="50" height="50" relative="1" as="geometry">
            <mxPoint x="620" y="530" as="sourcePoint" />
            <mxPoint x="670" y="480" as="targetPoint" />
            <Array as="points">
              <mxPoint x="490" y="385" />
              <mxPoint x="490" y="370" />
              <mxPoint x="300" y="370" />
              <mxPoint x="300" y="595" />
            </Array>
          </mxGeometry>
        </mxCell>
        <mxCell id="0ffXymxxKPCDrZLorsO_-45" value="Wire_immtype" style="text;html=1;strokeColor=none;fillColor=none;align=center;verticalAlign=middle;whiteSpace=wrap;rounded=0;rotation=-90;" parent="1" vertex="1">
          <mxGeometry x="260" y="453.97" width="60" height="30" as="geometry" />
        </mxCell>
        <mxCell id="0ffXymxxKPCDrZLorsO_-46" value="" style="endArrow=classic;html=1;rounded=0;entryX=0.004;entryY=0.316;entryDx=0;entryDy=0;entryPerimeter=0;exitX=-0.002;exitY=0.426;exitDx=0;exitDy=0;exitPerimeter=0;" parent="1" source="qYvPp2u0p2_YrLe-tAom-1" target="qYvPp2u0p2_YrLe-tAom-56" edge="1">
          <mxGeometry width="50" height="50" relative="1" as="geometry">
            <mxPoint x="500" y="530" as="sourcePoint" />
            <mxPoint x="550" y="480" as="targetPoint" />
            <Array as="points">
              <mxPoint x="160" y="620" />
            </Array>
          </mxGeometry>
        </mxCell>
        <mxCell id="0ffXymxxKPCDrZLorsO_-47" value="IFIDi.IF_instrout" style="text;html=1;strokeColor=none;fillColor=none;align=center;verticalAlign=middle;whiteSpace=wrap;rounded=0;" parent="1" vertex="1">
          <mxGeometry x="200" y="595" width="60" height="30" as="geometry" />
        </mxCell>
        <mxCell id="0ffXymxxKPCDrZLorsO_-51" value="Wire_branch" style="text;html=1;strokeColor=none;fillColor=none;align=center;verticalAlign=middle;whiteSpace=wrap;rounded=0;" parent="1" vertex="1">
          <mxGeometry x="486" y="512" width="60" height="30" as="geometry" />
        </mxCell>
        <mxCell id="0ffXymxxKPCDrZLorsO_-52" value="" style="endArrow=classic;html=1;rounded=0;entryX=1;entryY=0.826;entryDx=0;entryDy=0;entryPerimeter=0;" parent="1" target="qYvPp2u0p2_YrLe-tAom-1" edge="1">
          <mxGeometry width="50" height="50" relative="1" as="geometry">
            <mxPoint x="160" y="310" as="sourcePoint" />
            <mxPoint x="500" y="520" as="targetPoint" />
            <Array as="points">
              <mxPoint x="160" y="550" />
              <mxPoint x="680" y="550" />
            </Array>
          </mxGeometry>
        </mxCell>
        <mxCell id="0ffXymxxKPCDrZLorsO_-53" value="" style="endArrow=classic;html=1;rounded=0;entryX=1;entryY=0.87;entryDx=0;entryDy=0;entryPerimeter=0;" parent="1" edge="1">
          <mxGeometry width="50" height="50" relative="1" as="geometry">
            <mxPoint x="170" y="336" as="sourcePoint" />
            <mxPoint x="724.9999999999999" y="661.62" as="targetPoint" />
            <Array as="points">
              <mxPoint x="170" y="556" />
              <mxPoint x="670" y="556" />
            </Array>
          </mxGeometry>
        </mxCell>
        <mxCell id="0ffXymxxKPCDrZLorsO_-54" value="" style="endArrow=classic;html=1;rounded=0;exitX=1;exitY=0.5;exitDx=0;exitDy=0;entryX=0.999;entryY=0.388;entryDx=0;entryDy=0;entryPerimeter=0;" parent="1" source="qYvPp2u0p2_YrLe-tAom-56" target="qYvPp2u0p2_YrLe-tAom-1" edge="1">
          <mxGeometry width="50" height="50" relative="1" as="geometry">
            <mxPoint x="417" y="535" as="sourcePoint" />
            <mxPoint x="727" y="375" as="targetPoint" />
            <Array as="points">
              <mxPoint x="640" y="650" />
              <mxPoint x="640" y="380" />
            </Array>
          </mxGeometry>
        </mxCell>
        <mxCell id="0ffXymxxKPCDrZLorsO_-58" value="" style="endArrow=classic;html=1;rounded=0;exitX=0.997;exitY=0.62;exitDx=0;exitDy=0;exitPerimeter=0;" parent="1" source="qYvPp2u0p2_YrLe-tAom-57" edge="1">
          <mxGeometry width="50" height="50" relative="1" as="geometry">
            <mxPoint x="410" y="480" as="sourcePoint" />
            <mxPoint x="590" y="480" as="targetPoint" />
            <Array as="points" />
          </mxGeometry>
        </mxCell>
        <mxCell id="0ffXymxxKPCDrZLorsO_-59" value="" style="endArrow=classic;html=1;rounded=0;entryX=1;entryY=0.383;entryDx=0;entryDy=0;entryPerimeter=0;exitX=0.997;exitY=0.536;exitDx=0;exitDy=0;exitPerimeter=0;" parent="1" source="qYvPp2u0p2_YrLe-tAom-57" target="qYvPp2u0p2_YrLe-tAom-1" edge="1">
          <mxGeometry width="50" height="50" relative="1" as="geometry">
            <mxPoint x="410" y="480" as="sourcePoint" />
            <mxPoint x="460" y="430" as="targetPoint" />
            <Array as="points">
              <mxPoint x="700" y="466" />
            </Array>
          </mxGeometry>
        </mxCell>
        <mxCell id="0ffXymxxKPCDrZLorsO_-60" value="" style="endArrow=classic;html=1;rounded=0;entryX=1;entryY=0.383;entryDx=0;entryDy=0;entryPerimeter=0;exitX=1.001;exitY=0.447;exitDx=0;exitDy=0;exitPerimeter=0;" parent="1" source="qYvPp2u0p2_YrLe-tAom-57" target="qYvPp2u0p2_YrLe-tAom-1" edge="1">
          <mxGeometry width="50" height="50" relative="1" as="geometry">
            <mxPoint x="520" y="485" as="sourcePoint" />
            <mxPoint x="570" y="435" as="targetPoint" />
            <Array as="points">
              <mxPoint x="700" y="450" />
            </Array>
          </mxGeometry>
        </mxCell>
        <mxCell id="0ffXymxxKPCDrZLorsO_-61" value="" style="endArrow=classic;html=1;rounded=0;entryX=1;entryY=0.385;entryDx=0;entryDy=0;entryPerimeter=0;exitX=0.995;exitY=0.357;exitDx=0;exitDy=0;exitPerimeter=0;" parent="1" source="qYvPp2u0p2_YrLe-tAom-57" target="qYvPp2u0p2_YrLe-tAom-1" edge="1">
          <mxGeometry width="50" height="50" relative="1" as="geometry">
            <mxPoint x="480" y="440" as="sourcePoint" />
            <mxPoint x="530" y="390" as="targetPoint" />
            <Array as="points">
              <mxPoint x="690" y="437" />
            </Array>
          </mxGeometry>
        </mxCell>
        <mxCell id="0ffXymxxKPCDrZLorsO_-62" value="" style="endArrow=classic;html=1;rounded=0;entryX=0.999;entryY=0.383;entryDx=0;entryDy=0;entryPerimeter=0;exitX=1;exitY=0.25;exitDx=0;exitDy=0;" parent="1" source="qYvPp2u0p2_YrLe-tAom-57" target="qYvPp2u0p2_YrLe-tAom-1" edge="1">
          <mxGeometry width="50" height="50" relative="1" as="geometry">
            <mxPoint x="410" y="480" as="sourcePoint" />
            <mxPoint x="460" y="430" as="targetPoint" />
            <Array as="points">
              <mxPoint x="690" y="420" />
            </Array>
          </mxGeometry>
        </mxCell>
        <mxCell id="0ffXymxxKPCDrZLorsO_-63" value="" style="endArrow=classic;html=1;rounded=0;entryX=1;entryY=0.385;entryDx=0;entryDy=0;entryPerimeter=0;exitX=1.001;exitY=0.154;exitDx=0;exitDy=0;exitPerimeter=0;" parent="1" source="qYvPp2u0p2_YrLe-tAom-57" target="qYvPp2u0p2_YrLe-tAom-1" edge="1">
          <mxGeometry width="50" height="50" relative="1" as="geometry">
            <mxPoint x="410" y="480" as="sourcePoint" />
            <mxPoint x="460" y="430" as="targetPoint" />
            <Array as="points">
              <mxPoint x="690" y="405" />
            </Array>
          </mxGeometry>
        </mxCell>
        <mxCell id="0ffXymxxKPCDrZLorsO_-66" value="Wire_csrweb" style="text;html=1;strokeColor=none;fillColor=none;align=center;verticalAlign=middle;whiteSpace=wrap;rounded=0;" parent="1" vertex="1">
          <mxGeometry x="486" y="498.97" width="60" height="30" as="geometry" />
        </mxCell>
        <mxCell id="0ffXymxxKPCDrZLorsO_-67" value="Wire_RegWrite" style="text;html=1;strokeColor=none;fillColor=none;align=center;verticalAlign=middle;whiteSpace=wrap;rounded=0;" parent="1" vertex="1">
          <mxGeometry x="492" y="484.97" width="60" height="30" as="geometry" />
        </mxCell>
        <mxCell id="0ffXymxxKPCDrZLorsO_-68" value="Wire_MemtoReg" style="text;html=1;strokeColor=none;fillColor=none;align=center;verticalAlign=middle;whiteSpace=wrap;rounded=0;" parent="1" vertex="1">
          <mxGeometry x="496" y="442" width="60" height="30" as="geometry" />
        </mxCell>
        <mxCell id="0ffXymxxKPCDrZLorsO_-70" value="Wire_MemWrite" style="text;html=1;strokeColor=none;fillColor=none;align=center;verticalAlign=middle;whiteSpace=wrap;rounded=0;" parent="1" vertex="1">
          <mxGeometry x="493" y="455.62" width="60" height="30" as="geometry" />
        </mxCell>
        <mxCell id="0ffXymxxKPCDrZLorsO_-71" value="Wire_RDSrc" style="text;html=1;strokeColor=none;fillColor=none;align=center;verticalAlign=middle;whiteSpace=wrap;rounded=0;" parent="1" vertex="1">
          <mxGeometry x="484" y="428" width="60" height="30" as="geometry" />
        </mxCell>
        <mxCell id="0ffXymxxKPCDrZLorsO_-72" value="Wire_MemRead" style="text;html=1;strokeColor=none;fillColor=none;align=center;verticalAlign=middle;whiteSpace=wrap;rounded=0;" parent="1" vertex="1">
          <mxGeometry x="494" y="471.97" width="60" height="30" as="geometry" />
        </mxCell>
        <mxCell id="0ffXymxxKPCDrZLorsO_-73" value="Wire_ALUSrc" style="text;html=1;strokeColor=none;fillColor=none;align=center;verticalAlign=middle;whiteSpace=wrap;rounded=0;" parent="1" vertex="1">
          <mxGeometry x="487" y="414" width="60" height="30" as="geometry" />
        </mxCell>
        <mxCell id="0ffXymxxKPCDrZLorsO_-74" value="Text" style="text;html=1;strokeColor=none;fillColor=none;align=center;verticalAlign=middle;whiteSpace=wrap;rounded=0;" parent="1" vertex="1">
          <mxGeometry x="530" y="410" width="60" height="30" as="geometry" />
        </mxCell>
        <mxCell id="0ffXymxxKPCDrZLorsO_-75" value="Wire_PCtoRegSrc" style="text;html=1;strokeColor=none;fillColor=none;align=center;verticalAlign=middle;whiteSpace=wrap;rounded=0;" parent="1" vertex="1">
          <mxGeometry x="499" y="397" width="60" height="30" as="geometry" />
        </mxCell>
        <mxCell id="0ffXymxxKPCDrZLorsO_-76" value="Wire_ALUOP" style="text;html=1;strokeColor=none;fillColor=none;align=center;verticalAlign=middle;whiteSpace=wrap;rounded=0;" parent="1" vertex="1">
          <mxGeometry x="487" y="380" width="60" height="30" as="geometry" />
        </mxCell>
        <mxCell id="0ffXymxxKPCDrZLorsO_-79" value="" style="endArrow=classic;html=1;rounded=0;exitX=0.997;exitY=0.62;exitDx=0;exitDy=0;exitPerimeter=0;" parent="1" edge="1">
          <mxGeometry width="50" height="50" relative="1" as="geometry">
            <mxPoint x="480.51999999999987" y="495.20000000000005" as="sourcePoint" />
            <mxPoint x="591" y="495.9999999999999" as="targetPoint" />
            <Array as="points" />
          </mxGeometry>
        </mxCell>
        <mxCell id="0ffXymxxKPCDrZLorsO_-80" value="" style="endArrow=classic;html=1;rounded=0;exitX=0.997;exitY=0.62;exitDx=0;exitDy=0;exitPerimeter=0;" parent="1" edge="1">
          <mxGeometry width="50" height="50" relative="1" as="geometry">
            <mxPoint x="480.51999999999987" y="508.20000000000005" as="sourcePoint" />
            <mxPoint x="591" y="508.9999999999999" as="targetPoint" />
            <Array as="points" />
          </mxGeometry>
        </mxCell>
        <mxCell id="0ffXymxxKPCDrZLorsO_-81" value="" style="endArrow=classic;html=1;rounded=0;exitX=0.997;exitY=0.62;exitDx=0;exitDy=0;exitPerimeter=0;" parent="1" edge="1">
          <mxGeometry width="50" height="50" relative="1" as="geometry">
            <mxPoint x="480.51999999999987" y="522.2" as="sourcePoint" />
            <mxPoint x="591" y="522.9999999999999" as="targetPoint" />
            <Array as="points" />
          </mxGeometry>
        </mxCell>
        <mxCell id="0ffXymxxKPCDrZLorsO_-82" value="" style="endArrow=classic;html=1;rounded=0;exitX=0.997;exitY=0.62;exitDx=0;exitDy=0;exitPerimeter=0;" parent="1" edge="1">
          <mxGeometry width="50" height="50" relative="1" as="geometry">
            <mxPoint x="480.51999999999987" y="536.2" as="sourcePoint" />
            <mxPoint x="590" y="536" as="targetPoint" />
            <Array as="points" />
          </mxGeometry>
        </mxCell>
        <mxCell id="0ffXymxxKPCDrZLorsO_-83" value="" style="shape=trapezoid;perimeter=trapezoidPerimeter;whiteSpace=wrap;html=1;fixedSize=1;fillColor=none;rotation=90;" parent="1" vertex="1">
          <mxGeometry x="569" y="490.5" width="70" height="27.47" as="geometry" />
        </mxCell>
        <mxCell id="0ffXymxxKPCDrZLorsO_-84" value="" style="endArrow=classic;html=1;rounded=0;entryX=1;entryY=0.386;entryDx=0;entryDy=0;entryPerimeter=0;exitX=0.36;exitY=0.023;exitDx=0;exitDy=0;exitPerimeter=0;" parent="1" source="0ffXymxxKPCDrZLorsO_-83" target="qYvPp2u0p2_YrLe-tAom-1" edge="1">
          <mxGeometry width="50" height="50" relative="1" as="geometry">
            <mxPoint x="660" y="510" as="sourcePoint" />
            <mxPoint x="720" y="380" as="targetPoint" />
            <Array as="points">
              <mxPoint x="700" y="494" />
            </Array>
          </mxGeometry>
        </mxCell>
        <mxCell id="0ffXymxxKPCDrZLorsO_-85" value="" style="endArrow=classic;html=1;rounded=0;entryX=0.999;entryY=0.653;entryDx=0;entryDy=0;entryPerimeter=0;exitX=0.612;exitY=0.036;exitDx=0;exitDy=0;exitPerimeter=0;" parent="1" source="0ffXymxxKPCDrZLorsO_-83" target="qYvPp2u0p2_YrLe-tAom-1" edge="1">
          <mxGeometry width="50" height="50" relative="1" as="geometry">
            <mxPoint x="660" y="510" as="sourcePoint" />
            <mxPoint x="710" y="460" as="targetPoint" />
            <Array as="points">
              <mxPoint x="700" y="512" />
            </Array>
          </mxGeometry>
        </mxCell>
        <mxCell id="0ffXymxxKPCDrZLorsO_-86" value="" style="endArrow=classic;html=1;rounded=0;entryX=1;entryY=0.5;entryDx=0;entryDy=0;exitX=-0.002;exitY=0.987;exitDx=0;exitDy=0;exitPerimeter=0;" parent="1" source="qYvPp2u0p2_YrLe-tAom-1" target="0ffXymxxKPCDrZLorsO_-83" edge="1">
          <mxGeometry width="50" height="50" relative="1" as="geometry">
            <mxPoint x="400" y="410" as="sourcePoint" />
            <mxPoint x="450" y="360" as="targetPoint" />
            <Array as="points">
              <mxPoint x="610" y="737" />
            </Array>
          </mxGeometry>
        </mxCell>
      </root>
    </mxGraphModel>
  </diagram>
  <diagram id="dfoTbQ3lcsud4Z-msYGn" name="EXE">
    <mxGraphModel dx="2258" dy="851" grid="1" gridSize="10" guides="1" tooltips="1" connect="1" arrows="1" fold="1" page="1" pageScale="1" pageWidth="850" pageHeight="1100" math="0" shadow="0">
      <root>
        <mxCell id="0" />
        <mxCell id="1" parent="0" />
        <mxCell id="wqLe1zNDprKQrwuVgf73-1" value="" style="whiteSpace=wrap;html=1;aspect=fixed;fontSize=40;fillColor=none;" parent="1" vertex="1">
          <mxGeometry x="120" y="144" width="600" height="600" as="geometry" />
        </mxCell>
        <mxCell id="wqLe1zNDprKQrwuVgf73-2" value="" style="endArrow=classic;html=1;rounded=0;fontSize=40;strokeWidth=1;entryX=-0.002;entryY=0.126;entryDx=0;entryDy=0;entryPerimeter=0;" parent="1" edge="1">
          <mxGeometry width="50" height="50" relative="1" as="geometry">
            <mxPoint x="12" y="180" as="sourcePoint" />
            <mxPoint x="120.79999999999973" y="179.60000000000025" as="targetPoint" />
          </mxGeometry>
        </mxCell>
        <mxCell id="wqLe1zNDprKQrwuVgf73-3" value="&lt;font style=&quot;font-size: 20px;&quot;&gt;Clk&lt;/font&gt;" style="text;html=1;strokeColor=none;fillColor=none;align=center;verticalAlign=middle;whiteSpace=wrap;rounded=0;fontSize=40;" parent="1" vertex="1">
          <mxGeometry x="7" y="144" width="60" height="30" as="geometry" />
        </mxCell>
        <mxCell id="wqLe1zNDprKQrwuVgf73-4" value="" style="endArrow=classic;html=1;rounded=0;fontSize=40;strokeWidth=1;entryX=-0.002;entryY=0.126;entryDx=0;entryDy=0;entryPerimeter=0;" parent="1" edge="1">
          <mxGeometry width="50" height="50" relative="1" as="geometry">
            <mxPoint x="12" y="208" as="sourcePoint" />
            <mxPoint x="120.80000000000018" y="207.5999999999999" as="targetPoint" />
          </mxGeometry>
        </mxCell>
        <mxCell id="wqLe1zNDprKQrwuVgf73-5" value="&lt;font style=&quot;font-size: 20px;&quot;&gt;rst&lt;/font&gt;" style="text;html=1;strokeColor=none;fillColor=none;align=center;verticalAlign=middle;whiteSpace=wrap;rounded=0;fontSize=40;" parent="1" vertex="1">
          <mxGeometry x="2" y="174" width="60" height="30" as="geometry" />
        </mxCell>
        <mxCell id="wqLe1zNDprKQrwuVgf73-74" value="ALU" style="whiteSpace=wrap;html=1;aspect=fixed;fillColor=none;" parent="1" vertex="1">
          <mxGeometry x="345" y="561" width="160" height="160" as="geometry" />
        </mxCell>
        <mxCell id="wqLe1zNDprKQrwuVgf73-75" value="ALUCtrl" style="whiteSpace=wrap;html=1;aspect=fixed;fillColor=none;" parent="1" vertex="1">
          <mxGeometry x="320" y="360" width="160" height="160" as="geometry" />
        </mxCell>
        <mxCell id="wqLe1zNDprKQrwuVgf73-76" value="Src" style="whiteSpace=wrap;html=1;aspect=fixed;fillColor=none;" parent="1" vertex="1">
          <mxGeometry x="320" y="160" width="160" height="160" as="geometry" />
        </mxCell>
        <mxCell id="z13VzlMirbYvFcCR3OXc-1" value="" style="shape=flexArrow;endArrow=classic;html=1;rounded=0;fontSize=20;strokeWidth=1;entryX=-0.006;entryY=0.394;entryDx=0;entryDy=0;entryPerimeter=0;" parent="1" edge="1">
          <mxGeometry width="50" height="50" relative="1" as="geometry">
            <mxPoint x="13.599999999999909" y="439.65999999999997" as="sourcePoint" />
            <mxPoint x="120" y="440.06000000000006" as="targetPoint" />
          </mxGeometry>
        </mxCell>
        <mxCell id="z13VzlMirbYvFcCR3OXc-2" value="&lt;font style=&quot;font-size: 20px;&quot;&gt;IDEXEi&lt;/font&gt;" style="text;html=1;strokeColor=none;fillColor=none;align=center;verticalAlign=middle;whiteSpace=wrap;rounded=0;fontSize=40;" parent="1" vertex="1">
          <mxGeometry x="32.800000000000026" y="400" width="60" height="30" as="geometry" />
        </mxCell>
        <mxCell id="0vs9x5AkY0KmyGSsoLqe-1" value="" style="endArrow=classic;html=1;rounded=0;fontSize=40;strokeWidth=1;entryX=-0.002;entryY=0.126;entryDx=0;entryDy=0;entryPerimeter=0;" parent="1" edge="1">
          <mxGeometry width="50" height="50" relative="1" as="geometry">
            <mxPoint x="9.800000000000045" y="700.21" as="sourcePoint" />
            <mxPoint x="118.60000000000022" y="699.8100000000002" as="targetPoint" />
          </mxGeometry>
        </mxCell>
        <mxCell id="0vs9x5AkY0KmyGSsoLqe-2" value="&lt;font style=&quot;font-size: 20px;&quot;&gt;WB_rddata&lt;/font&gt;" style="text;html=1;strokeColor=none;fillColor=none;align=center;verticalAlign=middle;whiteSpace=wrap;rounded=0;fontSize=40;" parent="1" vertex="1">
          <mxGeometry x="32.800000000000004" y="620.5" width="60" height="30" as="geometry" />
        </mxCell>
        <mxCell id="0vs9x5AkY0KmyGSsoLqe-3" value="" style="endArrow=classic;html=1;rounded=0;fontSize=40;strokeWidth=1;entryX=-0.002;entryY=0.126;entryDx=0;entryDy=0;entryPerimeter=0;" parent="1" edge="1">
          <mxGeometry width="50" height="50" relative="1" as="geometry">
            <mxPoint x="11.200000000000045" y="655.4200000000001" as="sourcePoint" />
            <mxPoint x="120.00000000000023" y="655.0200000000002" as="targetPoint" />
          </mxGeometry>
        </mxCell>
        <mxCell id="0vs9x5AkY0KmyGSsoLqe-4" value="&lt;font style=&quot;font-size: 20px;&quot;&gt;Forward_rs2src&lt;/font&gt;" style="text;html=1;strokeColor=none;fillColor=none;align=center;verticalAlign=middle;whiteSpace=wrap;rounded=0;fontSize=40;" parent="1" vertex="1">
          <mxGeometry x="20" y="670.5" width="60" height="30" as="geometry" />
        </mxCell>
        <mxCell id="0vs9x5AkY0KmyGSsoLqe-5" value="" style="endArrow=classic;html=1;rounded=0;fontSize=40;strokeWidth=1;entryX=-0.002;entryY=0.126;entryDx=0;entryDy=0;entryPerimeter=0;" parent="1" edge="1">
          <mxGeometry width="50" height="50" relative="1" as="geometry">
            <mxPoint x="9.800000000000047" y="615.4200000000001" as="sourcePoint" />
            <mxPoint x="118.60000000000022" y="615.0200000000002" as="targetPoint" />
          </mxGeometry>
        </mxCell>
        <mxCell id="0vs9x5AkY0KmyGSsoLqe-6" value="&lt;font style=&quot;font-size: 20px;&quot;&gt;Forward_rs1src&lt;/font&gt;" style="text;html=1;strokeColor=none;fillColor=none;align=center;verticalAlign=middle;whiteSpace=wrap;rounded=0;fontSize=40;" parent="1" vertex="1">
          <mxGeometry x="20" y="503" width="60" height="30" as="geometry" />
        </mxCell>
        <mxCell id="0vs9x5AkY0KmyGSsoLqe-7" value="" style="endArrow=classic;html=1;rounded=0;fontSize=40;strokeWidth=1;entryX=-0.002;entryY=0.126;entryDx=0;entryDy=0;entryPerimeter=0;" parent="1" edge="1">
          <mxGeometry width="50" height="50" relative="1" as="geometry">
            <mxPoint x="11.200000000000045" y="542.71" as="sourcePoint" />
            <mxPoint x="120.00000000000023" y="542.3100000000002" as="targetPoint" />
          </mxGeometry>
        </mxCell>
        <mxCell id="0vs9x5AkY0KmyGSsoLqe-8" value="&lt;font style=&quot;font-size: 20px;&quot;&gt;Forward_Memrddata&lt;/font&gt;" style="text;html=1;strokeColor=none;fillColor=none;align=center;verticalAlign=middle;whiteSpace=wrap;rounded=0;fontSize=40;" parent="1" vertex="1">
          <mxGeometry x="-2" y="568" width="60" height="50" as="geometry" />
        </mxCell>
        <mxCell id="0vs9x5AkY0KmyGSsoLqe-11" value="" style="endArrow=classic;html=1;rounded=0;fontSize=40;strokeWidth=1;entryX=-0.002;entryY=0.126;entryDx=0;entryDy=0;entryPerimeter=0;" parent="1" edge="1">
          <mxGeometry width="50" height="50" relative="1" as="geometry">
            <mxPoint x="11.199999999999955" y="370.40000000000003" as="sourcePoint" />
            <mxPoint x="120.00000000000014" y="370.00000000000017" as="targetPoint" />
          </mxGeometry>
        </mxCell>
        <mxCell id="0vs9x5AkY0KmyGSsoLqe-12" value="&lt;font style=&quot;font-size: 20px;&quot;&gt;BranchCtrl&lt;/font&gt;" style="text;html=1;strokeColor=none;fillColor=none;align=center;verticalAlign=middle;whiteSpace=wrap;rounded=0;fontSize=40;" parent="1" vertex="1">
          <mxGeometry x="32.800000000000004" y="330" width="60" height="30" as="geometry" />
        </mxCell>
        <mxCell id="0vs9x5AkY0KmyGSsoLqe-14" value="" style="shape=flexArrow;endArrow=classic;html=1;rounded=0;fontSize=20;strokeWidth=1;entryX=-0.006;entryY=0.394;entryDx=0;entryDy=0;entryPerimeter=0;" parent="1" edge="1">
          <mxGeometry width="50" height="50" relative="1" as="geometry">
            <mxPoint x="718.9999999999999" y="292" as="sourcePoint" />
            <mxPoint x="825.4" y="292.4000000000001" as="targetPoint" />
          </mxGeometry>
        </mxCell>
        <mxCell id="0vs9x5AkY0KmyGSsoLqe-15" value="&lt;font style=&quot;font-size: 20px;&quot;&gt;EXEMEMo&lt;/font&gt;" style="text;html=1;strokeColor=none;fillColor=none;align=center;verticalAlign=middle;whiteSpace=wrap;rounded=0;fontSize=40;" parent="1" vertex="1">
          <mxGeometry x="745" y="242" width="60" height="30" as="geometry" />
        </mxCell>
        <mxCell id="0vs9x5AkY0KmyGSsoLqe-16" value="" style="shape=flexArrow;endArrow=classic;html=1;rounded=0;fontSize=20;strokeWidth=1;entryX=-0.006;entryY=0.394;entryDx=0;entryDy=0;entryPerimeter=0;" parent="1" edge="1">
          <mxGeometry width="50" height="50" relative="1" as="geometry">
            <mxPoint x="718.9999999999999" y="370" as="sourcePoint" />
            <mxPoint x="825.4" y="370.4000000000001" as="targetPoint" />
          </mxGeometry>
        </mxCell>
        <mxCell id="0vs9x5AkY0KmyGSsoLqe-17" value="&lt;font style=&quot;font-size: 20px;&quot;&gt;IFEXEo&lt;/font&gt;" style="text;html=1;strokeColor=none;fillColor=none;align=center;verticalAlign=middle;whiteSpace=wrap;rounded=0;fontSize=40;" parent="1" vertex="1">
          <mxGeometry x="731" y="332" width="60" height="30" as="geometry" />
        </mxCell>
        <mxCell id="0vs9x5AkY0KmyGSsoLqe-18" value="" style="endArrow=classic;html=1;rounded=0;fontSize=40;strokeWidth=1;entryX=-0.002;entryY=0.126;entryDx=0;entryDy=0;entryPerimeter=0;" parent="1" edge="1">
          <mxGeometry width="50" height="50" relative="1" as="geometry">
            <mxPoint x="720.6000000000001" y="537.19" as="sourcePoint" />
            <mxPoint x="829.4000000000003" y="536.7900000000002" as="targetPoint" />
          </mxGeometry>
        </mxCell>
        <mxCell id="0vs9x5AkY0KmyGSsoLqe-19" value="&lt;font style=&quot;font-size: 20px;&quot;&gt;ZeroFlag&lt;/font&gt;" style="text;html=1;strokeColor=none;fillColor=none;align=center;verticalAlign=middle;whiteSpace=wrap;rounded=0;fontSize=40;" parent="1" vertex="1">
          <mxGeometry x="743.5999999999999" y="492" width="60" height="30" as="geometry" />
        </mxCell>
        <mxCell id="ABQtwVfF9L0Tg0fV3hrK-1" value="" style="endArrow=classic;html=1;rounded=0;entryX=0.004;entryY=0.143;entryDx=0;entryDy=0;entryPerimeter=0;exitX=0;exitY=0.066;exitDx=0;exitDy=0;exitPerimeter=0;" edge="1" parent="1" source="wqLe1zNDprKQrwuVgf73-1" target="wqLe1zNDprKQrwuVgf73-76">
          <mxGeometry width="50" height="50" relative="1" as="geometry">
            <mxPoint x="470" y="450" as="sourcePoint" />
            <mxPoint x="520" y="400" as="targetPoint" />
          </mxGeometry>
        </mxCell>
        <mxCell id="ABQtwVfF9L0Tg0fV3hrK-2" value="" style="endArrow=classic;html=1;rounded=0;entryX=0.004;entryY=0.143;entryDx=0;entryDy=0;entryPerimeter=0;" edge="1" parent="1">
          <mxGeometry width="50" height="50" relative="1" as="geometry">
            <mxPoint x="120" y="207" as="sourcePoint" />
            <mxPoint x="320.6400000000003" y="208.88" as="targetPoint" />
          </mxGeometry>
        </mxCell>
        <mxCell id="ABQtwVfF9L0Tg0fV3hrK-3" value="" style="endArrow=classic;html=1;rounded=0;entryX=-0.007;entryY=0.891;entryDx=0;entryDy=0;entryPerimeter=0;exitX=1;exitY=0.5;exitDx=0;exitDy=0;" edge="1" parent="1" source="wqLe1zNDprKQrwuVgf73-75" target="wqLe1zNDprKQrwuVgf73-76">
          <mxGeometry width="50" height="50" relative="1" as="geometry">
            <mxPoint x="410" y="420" as="sourcePoint" />
            <mxPoint x="460" y="370" as="targetPoint" />
            <Array as="points">
              <mxPoint x="490" y="440" />
              <mxPoint x="490" y="350" />
              <mxPoint x="310" y="350" />
              <mxPoint x="310" y="303" />
            </Array>
          </mxGeometry>
        </mxCell>
        <mxCell id="ABQtwVfF9L0Tg0fV3hrK-4" value="" style="endArrow=classic;html=1;rounded=0;entryX=0;entryY=0.25;entryDx=0;entryDy=0;" edge="1" parent="1" target="wqLe1zNDprKQrwuVgf73-74">
          <mxGeometry width="50" height="50" relative="1" as="geometry">
            <mxPoint x="490" y="440" as="sourcePoint" />
            <mxPoint x="460" y="550" as="targetPoint" />
            <Array as="points">
              <mxPoint x="490" y="530" />
              <mxPoint x="300" y="530" />
              <mxPoint x="300" y="600" />
            </Array>
          </mxGeometry>
        </mxCell>
        <mxCell id="ABQtwVfF9L0Tg0fV3hrK-5" value="Wire_ALUCtrl" style="text;html=1;strokeColor=none;fillColor=none;align=center;verticalAlign=middle;whiteSpace=wrap;rounded=0;rotation=-90;" vertex="1" parent="1">
          <mxGeometry x="470" y="430" width="60" height="30" as="geometry" />
        </mxCell>
        <mxCell id="ABQtwVfF9L0Tg0fV3hrK-6" value="" style="endArrow=classic;html=1;rounded=0;entryX=0;entryY=0.25;entryDx=0;entryDy=0;" edge="1" parent="1" target="wqLe1zNDprKQrwuVgf73-75">
          <mxGeometry width="50" height="50" relative="1" as="geometry">
            <mxPoint x="120" y="440" as="sourcePoint" />
            <mxPoint x="540" y="450" as="targetPoint" />
            <Array as="points">
              <mxPoint x="130" y="400" />
            </Array>
          </mxGeometry>
        </mxCell>
        <mxCell id="ABQtwVfF9L0Tg0fV3hrK-7" value="" style="endArrow=classic;html=1;rounded=0;entryX=0;entryY=0.5;entryDx=0;entryDy=0;" edge="1" parent="1" source="wqLe1zNDprKQrwuVgf73-1" target="wqLe1zNDprKQrwuVgf73-75">
          <mxGeometry width="50" height="50" relative="1" as="geometry">
            <mxPoint x="490" y="500" as="sourcePoint" />
            <mxPoint x="540" y="450" as="targetPoint" />
          </mxGeometry>
        </mxCell>
        <mxCell id="ABQtwVfF9L0Tg0fV3hrK-8" value="" style="endArrow=classic;html=1;rounded=0;entryX=0;entryY=0.75;entryDx=0;entryDy=0;" edge="1" parent="1" target="wqLe1zNDprKQrwuVgf73-75">
          <mxGeometry width="50" height="50" relative="1" as="geometry">
            <mxPoint x="120" y="440" as="sourcePoint" />
            <mxPoint x="540" y="450" as="targetPoint" />
            <Array as="points">
              <mxPoint x="130" y="480" />
            </Array>
          </mxGeometry>
        </mxCell>
        <mxCell id="ABQtwVfF9L0Tg0fV3hrK-9" value="IDEXEi.ID_ALUOP" style="text;html=1;strokeColor=none;fillColor=none;align=center;verticalAlign=middle;whiteSpace=wrap;rounded=0;" vertex="1" parent="1">
          <mxGeometry x="180" y="456" width="60" height="30" as="geometry" />
        </mxCell>
        <mxCell id="ABQtwVfF9L0Tg0fV3hrK-10" value="IDEXEi.ID_Funct3" style="text;html=1;strokeColor=none;fillColor=none;align=center;verticalAlign=middle;whiteSpace=wrap;rounded=0;" vertex="1" parent="1">
          <mxGeometry x="180" y="370" width="60" height="30" as="geometry" />
        </mxCell>
        <mxCell id="ABQtwVfF9L0Tg0fV3hrK-11" value="IDEXEi.ID_Funct3" style="text;html=1;strokeColor=none;fillColor=none;align=center;verticalAlign=middle;whiteSpace=wrap;rounded=0;" vertex="1" parent="1">
          <mxGeometry x="180" y="416" width="60" height="30" as="geometry" />
        </mxCell>
        <mxCell id="ABQtwVfF9L0Tg0fV3hrK-12" value="" style="endArrow=classic;html=1;rounded=0;entryX=-0.007;entryY=0.386;entryDx=0;entryDy=0;entryPerimeter=0;exitX=0;exitY=0.5;exitDx=0;exitDy=0;" edge="1" parent="1" source="wqLe1zNDprKQrwuVgf73-1" target="wqLe1zNDprKQrwuVgf73-76">
          <mxGeometry width="50" height="50" relative="1" as="geometry">
            <mxPoint x="490" y="420" as="sourcePoint" />
            <mxPoint x="540" y="370" as="targetPoint" />
            <Array as="points">
              <mxPoint x="140" y="280" />
            </Array>
          </mxGeometry>
        </mxCell>
        <mxCell id="ABQtwVfF9L0Tg0fV3hrK-13" value="" style="endArrow=classic;html=1;rounded=0;" edge="1" parent="1">
          <mxGeometry width="50" height="50" relative="1" as="geometry">
            <mxPoint x="120" y="440" as="sourcePoint" />
            <mxPoint x="320" y="240" as="targetPoint" />
            <Array as="points">
              <mxPoint x="140" y="300" />
            </Array>
          </mxGeometry>
        </mxCell>
        <mxCell id="ABQtwVfF9L0Tg0fV3hrK-14" value="" style="endArrow=classic;html=1;rounded=0;" edge="1" parent="1">
          <mxGeometry width="50" height="50" relative="1" as="geometry">
            <mxPoint x="120" y="440" as="sourcePoint" />
            <mxPoint x="320" y="260" as="targetPoint" />
            <Array as="points">
              <mxPoint x="140" y="320" />
            </Array>
          </mxGeometry>
        </mxCell>
        <mxCell id="ABQtwVfF9L0Tg0fV3hrK-15" value="" style="endArrow=classic;html=1;rounded=0;" edge="1" parent="1">
          <mxGeometry width="50" height="50" relative="1" as="geometry">
            <mxPoint x="120" y="440" as="sourcePoint" />
            <mxPoint x="320" y="280" as="targetPoint" />
            <Array as="points">
              <mxPoint x="140" y="340" />
            </Array>
          </mxGeometry>
        </mxCell>
        <mxCell id="ABQtwVfF9L0Tg0fV3hrK-16" value="IDEXEi.rs1addr" style="text;html=1;strokeColor=none;fillColor=none;align=center;verticalAlign=middle;whiteSpace=wrap;rounded=0;rotation=-20;" vertex="1" parent="1">
          <mxGeometry x="147" y="244" width="60" height="30" as="geometry" />
        </mxCell>
        <mxCell id="ABQtwVfF9L0Tg0fV3hrK-17" value="IDEXEi.ID_imm" style="text;html=1;strokeColor=none;fillColor=none;align=center;verticalAlign=middle;whiteSpace=wrap;rounded=0;rotation=-20;" vertex="1" parent="1">
          <mxGeometry x="153" y="262" width="60" height="30" as="geometry" />
        </mxCell>
        <mxCell id="ABQtwVfF9L0Tg0fV3hrK-18" value="IDEXEi.csraddr" style="text;html=1;strokeColor=none;fillColor=none;align=center;verticalAlign=middle;whiteSpace=wrap;rounded=0;rotation=-20;" vertex="1" parent="1">
          <mxGeometry x="156" y="281" width="60" height="30" as="geometry" />
        </mxCell>
        <mxCell id="ABQtwVfF9L0Tg0fV3hrK-19" value="IDEXEi.csrweb" style="text;html=1;strokeColor=none;fillColor=none;align=center;verticalAlign=middle;whiteSpace=wrap;rounded=0;rotation=-20;" vertex="1" parent="1">
          <mxGeometry x="157" y="300" width="60" height="30" as="geometry" />
        </mxCell>
        <mxCell id="ABQtwVfF9L0Tg0fV3hrK-21" value="" style="endArrow=classic;html=1;rounded=0;exitX=0.5;exitY=0;exitDx=0;exitDy=0;" edge="1" parent="1" source="ABQtwVfF9L0Tg0fV3hrK-23">
          <mxGeometry width="50" height="50" relative="1" as="geometry">
            <mxPoint x="240" y="320" as="sourcePoint" />
            <mxPoint x="320" y="320" as="targetPoint" />
            <Array as="points">
              <mxPoint x="241" y="320" />
            </Array>
          </mxGeometry>
        </mxCell>
        <mxCell id="ABQtwVfF9L0Tg0fV3hrK-22" value="Src_state" style="text;html=1;strokeColor=none;fillColor=none;align=center;verticalAlign=middle;whiteSpace=wrap;rounded=0;" vertex="1" parent="1">
          <mxGeometry x="250" y="292" width="60" height="30" as="geometry" />
        </mxCell>
        <mxCell id="ABQtwVfF9L0Tg0fV3hrK-23" value="" style="shape=trapezoid;perimeter=trapezoidPerimeter;whiteSpace=wrap;html=1;fixedSize=1;rotation=60;size=11.460000000000264;" vertex="1" parent="1">
          <mxGeometry x="194.25" y="330" width="31.5" height="10" as="geometry" />
        </mxCell>
        <mxCell id="ABQtwVfF9L0Tg0fV3hrK-24" value="" style="endArrow=classic;html=1;rounded=0;entryX=0.5;entryY=1;entryDx=0;entryDy=0;" edge="1" parent="1" target="ABQtwVfF9L0Tg0fV3hrK-23">
          <mxGeometry width="50" height="50" relative="1" as="geometry">
            <mxPoint x="120" y="440" as="sourcePoint" />
            <mxPoint x="320" y="250" as="targetPoint" />
            <Array as="points">
              <mxPoint x="140" y="360" />
            </Array>
          </mxGeometry>
        </mxCell>
        <mxCell id="ABQtwVfF9L0Tg0fV3hrK-26" value="" style="endArrow=classic;html=1;rounded=0;exitX=1.005;exitY=0.46;exitDx=0;exitDy=0;exitPerimeter=0;entryX=0.25;entryY=1;entryDx=0;entryDy=0;" edge="1" parent="1" source="wqLe1zNDprKQrwuVgf73-76" target="ABQtwVfF9L0Tg0fV3hrK-27">
          <mxGeometry width="50" height="50" relative="1" as="geometry">
            <mxPoint x="390" y="420" as="sourcePoint" />
            <mxPoint x="440" y="370" as="targetPoint" />
            <Array as="points">
              <mxPoint x="520" y="234" />
              <mxPoint x="520" y="220" />
            </Array>
          </mxGeometry>
        </mxCell>
        <mxCell id="ABQtwVfF9L0Tg0fV3hrK-27" value="" style="shape=trapezoid;perimeter=trapezoidPerimeter;whiteSpace=wrap;html=1;fixedSize=1;rotation=90;" vertex="1" parent="1">
          <mxGeometry x="538" y="224" width="60" height="20" as="geometry" />
        </mxCell>
        <mxCell id="ABQtwVfF9L0Tg0fV3hrK-28" value="" style="endArrow=classic;html=1;rounded=0;entryX=0.75;entryY=1;entryDx=0;entryDy=0;exitX=1;exitY=0.5;exitDx=0;exitDy=0;" edge="1" parent="1" source="wqLe1zNDprKQrwuVgf73-74" target="ABQtwVfF9L0Tg0fV3hrK-27">
          <mxGeometry width="50" height="50" relative="1" as="geometry">
            <mxPoint x="390" y="540" as="sourcePoint" />
            <mxPoint x="440" y="490" as="targetPoint" />
            <Array as="points">
              <mxPoint x="520" y="640" />
              <mxPoint x="520" y="250" />
            </Array>
          </mxGeometry>
        </mxCell>
        <mxCell id="ABQtwVfF9L0Tg0fV3hrK-29" value="" style="endArrow=classic;html=1;rounded=0;entryX=0;entryY=0.25;entryDx=0;entryDy=0;" edge="1" parent="1" target="ABQtwVfF9L0Tg0fV3hrK-27">
          <mxGeometry width="50" height="50" relative="1" as="geometry">
            <mxPoint x="240" y="307" as="sourcePoint" />
            <mxPoint x="575" y="216" as="targetPoint" />
            <Array as="points">
              <mxPoint x="240" y="150" />
              <mxPoint x="570" y="150" />
            </Array>
          </mxGeometry>
        </mxCell>
        <mxCell id="ABQtwVfF9L0Tg0fV3hrK-30" value="" style="endArrow=classic;html=1;rounded=0;entryX=1;entryY=0.25;entryDx=0;entryDy=0;exitX=0.5;exitY=0;exitDx=0;exitDy=0;" edge="1" parent="1" source="ABQtwVfF9L0Tg0fV3hrK-27" target="wqLe1zNDprKQrwuVgf73-1">
          <mxGeometry width="50" height="50" relative="1" as="geometry">
            <mxPoint x="270" y="400" as="sourcePoint" />
            <mxPoint x="320" y="350" as="targetPoint" />
            <Array as="points">
              <mxPoint x="650" y="234" />
              <mxPoint x="650" y="294" />
            </Array>
          </mxGeometry>
        </mxCell>
        <mxCell id="ABQtwVfF9L0Tg0fV3hrK-31" value="" style="shape=trapezoid;perimeter=trapezoidPerimeter;whiteSpace=wrap;html=1;fixedSize=1;rotation=90;" vertex="1" parent="1">
          <mxGeometry x="162" y="535" width="78" height="30" as="geometry" />
        </mxCell>
        <mxCell id="ABQtwVfF9L0Tg0fV3hrK-32" value="" style="shape=trapezoid;perimeter=trapezoidPerimeter;whiteSpace=wrap;html=1;fixedSize=1;rotation=90;" vertex="1" parent="1">
          <mxGeometry x="162" y="636.5" width="78" height="30" as="geometry" />
        </mxCell>
        <mxCell id="ABQtwVfF9L0Tg0fV3hrK-33" value="" style="endArrow=classic;html=1;rounded=0;entryX=1;entryY=0.5;entryDx=0;entryDy=0;exitX=-0.003;exitY=0.891;exitDx=0;exitDy=0;exitPerimeter=0;" edge="1" parent="1" target="ABQtwVfF9L0Tg0fV3hrK-32">
          <mxGeometry width="50" height="50" relative="1" as="geometry">
            <mxPoint x="118.20000000000005" y="699.0999999999999" as="sourcePoint" />
            <mxPoint x="390" y="500.5" as="targetPoint" />
            <Array as="points">
              <mxPoint x="200" y="700" />
            </Array>
          </mxGeometry>
        </mxCell>
        <mxCell id="ABQtwVfF9L0Tg0fV3hrK-34" value="" style="endArrow=classic;html=1;rounded=0;entryX=0;entryY=0.5;entryDx=0;entryDy=0;exitX=0;exitY=0.663;exitDx=0;exitDy=0;exitPerimeter=0;" edge="1" parent="1" source="wqLe1zNDprKQrwuVgf73-1" target="ABQtwVfF9L0Tg0fV3hrK-31">
          <mxGeometry width="50" height="50" relative="1" as="geometry">
            <mxPoint x="340" y="530" as="sourcePoint" />
            <mxPoint x="390" y="480" as="targetPoint" />
            <Array as="points">
              <mxPoint x="130" y="542" />
              <mxPoint x="130" y="490" />
              <mxPoint x="200" y="490" />
            </Array>
          </mxGeometry>
        </mxCell>
        <mxCell id="ABQtwVfF9L0Tg0fV3hrK-35" value="" style="endArrow=classic;html=1;rounded=0;entryX=0.75;entryY=1;entryDx=0;entryDy=0;exitX=-0.001;exitY=0.821;exitDx=0;exitDy=0;exitPerimeter=0;" edge="1" parent="1">
          <mxGeometry width="50" height="50" relative="1" as="geometry">
            <mxPoint x="119.40000000000009" y="657.0999999999999" as="sourcePoint" />
            <mxPoint x="186" y="590" as="targetPoint" />
            <Array as="points">
              <mxPoint x="140" y="657.5" />
              <mxPoint x="140" y="590.5" />
            </Array>
          </mxGeometry>
        </mxCell>
        <mxCell id="ABQtwVfF9L0Tg0fV3hrK-36" value="" style="endArrow=classic;html=1;rounded=0;entryX=0.5;entryY=1;entryDx=0;entryDy=0;exitX=0;exitY=0.75;exitDx=0;exitDy=0;" edge="1" parent="1" source="wqLe1zNDprKQrwuVgf73-1" target="ABQtwVfF9L0Tg0fV3hrK-31">
          <mxGeometry width="50" height="50" relative="1" as="geometry">
            <mxPoint x="190" y="610" as="sourcePoint" />
            <mxPoint x="240" y="560" as="targetPoint" />
            <Array as="points">
              <mxPoint x="130" y="594" />
              <mxPoint x="130" y="550" />
            </Array>
          </mxGeometry>
        </mxCell>
        <mxCell id="ABQtwVfF9L0Tg0fV3hrK-37" value="" style="endArrow=classic;html=1;rounded=0;entryX=0.25;entryY=1;entryDx=0;entryDy=0;" edge="1" parent="1" target="ABQtwVfF9L0Tg0fV3hrK-31">
          <mxGeometry width="50" height="50" relative="1" as="geometry">
            <mxPoint x="120" y="440" as="sourcePoint" />
            <mxPoint x="240" y="560" as="targetPoint" />
            <Array as="points">
              <mxPoint x="140" y="530" />
            </Array>
          </mxGeometry>
        </mxCell>
        <mxCell id="ABQtwVfF9L0Tg0fV3hrK-38" value="" style="endArrow=classic;html=1;rounded=0;entryX=0.799;entryY=1.02;entryDx=0;entryDy=0;entryPerimeter=0;" edge="1" parent="1" target="ABQtwVfF9L0Tg0fV3hrK-32">
          <mxGeometry width="50" height="50" relative="1" as="geometry">
            <mxPoint x="140" y="657.5" as="sourcePoint" />
            <mxPoint x="186" y="672" as="targetPoint" />
            <Array as="points">
              <mxPoint x="140" y="675.5" />
            </Array>
          </mxGeometry>
        </mxCell>
        <mxCell id="ABQtwVfF9L0Tg0fV3hrK-39" value="" style="endArrow=classic;html=1;rounded=0;entryX=0.5;entryY=1;entryDx=0;entryDy=0;" edge="1" parent="1">
          <mxGeometry width="50" height="50" relative="1" as="geometry">
            <mxPoint x="130" y="589" as="sourcePoint" />
            <mxPoint x="186" y="650.5" as="targetPoint" />
            <Array as="points">
              <mxPoint x="130" y="649" />
            </Array>
          </mxGeometry>
        </mxCell>
        <mxCell id="ABQtwVfF9L0Tg0fV3hrK-40" value="" style="endArrow=classic;html=1;rounded=0;entryX=0.25;entryY=1;entryDx=0;entryDy=0;exitX=0;exitY=0.5;exitDx=0;exitDy=0;" edge="1" parent="1" source="wqLe1zNDprKQrwuVgf73-1" target="ABQtwVfF9L0Tg0fV3hrK-32">
          <mxGeometry width="50" height="50" relative="1" as="geometry">
            <mxPoint x="160" y="620" as="sourcePoint" />
            <mxPoint x="210" y="570" as="targetPoint" />
            <Array as="points">
              <mxPoint x="150" y="610" />
            </Array>
          </mxGeometry>
        </mxCell>
        <mxCell id="ABQtwVfF9L0Tg0fV3hrK-41" value="" style="endArrow=classic;html=1;rounded=0;entryX=-0.004;entryY=0.408;entryDx=0;entryDy=0;entryPerimeter=0;exitX=0.5;exitY=0;exitDx=0;exitDy=0;" edge="1" parent="1" source="ABQtwVfF9L0Tg0fV3hrK-31" target="wqLe1zNDprKQrwuVgf73-74">
          <mxGeometry width="50" height="50" relative="1" as="geometry">
            <mxPoint x="160" y="620" as="sourcePoint" />
            <mxPoint x="210" y="570" as="targetPoint" />
            <Array as="points">
              <mxPoint x="240" y="550" />
              <mxPoint x="240" y="625" />
            </Array>
          </mxGeometry>
        </mxCell>
        <mxCell id="ABQtwVfF9L0Tg0fV3hrK-42" value="ALU_rs1" style="text;html=1;strokeColor=none;fillColor=none;align=center;verticalAlign=middle;whiteSpace=wrap;rounded=0;" vertex="1" parent="1">
          <mxGeometry x="240" y="600" width="60" height="30" as="geometry" />
        </mxCell>
        <mxCell id="ABQtwVfF9L0Tg0fV3hrK-43" value="" style="shape=trapezoid;perimeter=trapezoidPerimeter;whiteSpace=wrap;html=1;fixedSize=1;rotation=90;" vertex="1" parent="1">
          <mxGeometry x="225.75" y="680" width="78" height="30" as="geometry" />
        </mxCell>
        <mxCell id="ABQtwVfF9L0Tg0fV3hrK-44" value="" style="endArrow=classic;html=1;rounded=0;entryX=1;entryY=0.25;entryDx=0;entryDy=0;exitX=-0.003;exitY=0.376;exitDx=0;exitDy=0;exitPerimeter=0;" edge="1" parent="1" source="wqLe1zNDprKQrwuVgf73-1" target="ABQtwVfF9L0Tg0fV3hrK-23">
          <mxGeometry width="50" height="50" relative="1" as="geometry">
            <mxPoint x="300" y="490" as="sourcePoint" />
            <mxPoint x="350" y="440" as="targetPoint" />
            <Array as="points">
              <mxPoint x="220" y="370" />
              <mxPoint x="230" y="360" />
            </Array>
          </mxGeometry>
        </mxCell>
        <mxCell id="ABQtwVfF9L0Tg0fV3hrK-45" value="" style="endArrow=classic;html=1;rounded=0;entryX=0.75;entryY=1;entryDx=0;entryDy=0;" edge="1" parent="1" target="ABQtwVfF9L0Tg0fV3hrK-43">
          <mxGeometry width="50" height="50" relative="1" as="geometry">
            <mxPoint x="140" y="300" as="sourcePoint" />
            <mxPoint x="350" y="590" as="targetPoint" />
            <Array as="points">
              <mxPoint x="160" y="715" />
            </Array>
          </mxGeometry>
        </mxCell>
        <mxCell id="ABQtwVfF9L0Tg0fV3hrK-46" value="" style="endArrow=classic;html=1;rounded=0;entryX=0.25;entryY=1;entryDx=0;entryDy=0;exitX=0.5;exitY=0;exitDx=0;exitDy=0;" edge="1" parent="1" source="ABQtwVfF9L0Tg0fV3hrK-32" target="ABQtwVfF9L0Tg0fV3hrK-43">
          <mxGeometry width="50" height="50" relative="1" as="geometry">
            <mxPoint x="300" y="640" as="sourcePoint" />
            <mxPoint x="350" y="590" as="targetPoint" />
            <Array as="points">
              <mxPoint x="230" y="652" />
              <mxPoint x="230" y="676" />
            </Array>
          </mxGeometry>
        </mxCell>
        <mxCell id="ABQtwVfF9L0Tg0fV3hrK-47" value="ALU_rs21" style="text;html=1;strokeColor=none;fillColor=none;align=center;verticalAlign=middle;whiteSpace=wrap;rounded=0;" vertex="1" parent="1">
          <mxGeometry x="213" y="630" width="60" height="30" as="geometry" />
        </mxCell>
        <mxCell id="ABQtwVfF9L0Tg0fV3hrK-48" value="ALU_rs22" style="text;html=1;strokeColor=none;fillColor=none;align=center;verticalAlign=middle;whiteSpace=wrap;rounded=0;" vertex="1" parent="1">
          <mxGeometry x="279" y="654.5" width="60" height="30" as="geometry" />
        </mxCell>
        <mxCell id="ABQtwVfF9L0Tg0fV3hrK-49" value="" style="endArrow=classic;html=1;rounded=0;entryX=0;entryY=0.75;entryDx=0;entryDy=0;exitX=0.5;exitY=0;exitDx=0;exitDy=0;" edge="1" parent="1" source="ABQtwVfF9L0Tg0fV3hrK-43" target="wqLe1zNDprKQrwuVgf73-74">
          <mxGeometry width="50" height="50" relative="1" as="geometry">
            <mxPoint x="300" y="640" as="sourcePoint" />
            <mxPoint x="350" y="590" as="targetPoint" />
            <Array as="points">
              <mxPoint x="320" y="695" />
              <mxPoint x="320" y="681" />
            </Array>
          </mxGeometry>
        </mxCell>
        <mxCell id="ABQtwVfF9L0Tg0fV3hrK-50" value="IDEXEi.ID_ALU" style="text;html=1;strokeColor=none;fillColor=none;align=center;verticalAlign=middle;whiteSpace=wrap;rounded=0;" vertex="1" parent="1">
          <mxGeometry x="190" y="466" width="60" height="30" as="geometry" />
        </mxCell>
        <mxCell id="ABQtwVfF9L0Tg0fV3hrK-51" value="" style="endArrow=classic;html=1;rounded=0;entryX=1;entryY=0.654;entryDx=0;entryDy=0;entryPerimeter=0;exitX=1;exitY=0.75;exitDx=0;exitDy=0;" edge="1" parent="1" source="wqLe1zNDprKQrwuVgf73-74" target="wqLe1zNDprKQrwuVgf73-1">
          <mxGeometry width="50" height="50" relative="1" as="geometry">
            <mxPoint x="300" y="490" as="sourcePoint" />
            <mxPoint x="350" y="440" as="targetPoint" />
            <Array as="points">
              <mxPoint x="640" y="681" />
              <mxPoint x="640" y="536" />
            </Array>
          </mxGeometry>
        </mxCell>
      </root>
    </mxGraphModel>
  </diagram>
  <diagram id="dcnhul87f2G7sbTmLOgt" name="MEM">
    <mxGraphModel dx="1408" dy="851" grid="1" gridSize="10" guides="1" tooltips="1" connect="1" arrows="1" fold="1" page="1" pageScale="1" pageWidth="850" pageHeight="1100" math="0" shadow="0">
      <root>
        <mxCell id="0" />
        <mxCell id="1" parent="0" />
        <mxCell id="57eDhGOJmc79B51WA6YS-1" value="" style="whiteSpace=wrap;html=1;aspect=fixed;fontSize=40;fillColor=none;" vertex="1" parent="1">
          <mxGeometry x="120" y="144" width="600" height="600" as="geometry" />
        </mxCell>
        <mxCell id="57eDhGOJmc79B51WA6YS-2" value="" style="endArrow=classic;html=1;rounded=0;fontSize=40;strokeWidth=1;entryX=-0.002;entryY=0.126;entryDx=0;entryDy=0;entryPerimeter=0;" edge="1" parent="1">
          <mxGeometry width="50" height="50" relative="1" as="geometry">
            <mxPoint x="12" y="180" as="sourcePoint" />
            <mxPoint x="120.79999999999973" y="179.60000000000025" as="targetPoint" />
          </mxGeometry>
        </mxCell>
        <mxCell id="57eDhGOJmc79B51WA6YS-3" value="&lt;font style=&quot;font-size: 20px;&quot;&gt;Clk&lt;/font&gt;" style="text;html=1;strokeColor=none;fillColor=none;align=center;verticalAlign=middle;whiteSpace=wrap;rounded=0;fontSize=40;" vertex="1" parent="1">
          <mxGeometry x="7" y="144" width="60" height="30" as="geometry" />
        </mxCell>
        <mxCell id="57eDhGOJmc79B51WA6YS-4" value="" style="endArrow=classic;html=1;rounded=0;fontSize=40;strokeWidth=1;entryX=-0.002;entryY=0.126;entryDx=0;entryDy=0;entryPerimeter=0;" edge="1" parent="1">
          <mxGeometry width="50" height="50" relative="1" as="geometry">
            <mxPoint x="12" y="208" as="sourcePoint" />
            <mxPoint x="120.80000000000018" y="207.5999999999999" as="targetPoint" />
          </mxGeometry>
        </mxCell>
        <mxCell id="57eDhGOJmc79B51WA6YS-5" value="&lt;font style=&quot;font-size: 20px;&quot;&gt;rst&lt;/font&gt;" style="text;html=1;strokeColor=none;fillColor=none;align=center;verticalAlign=middle;whiteSpace=wrap;rounded=0;fontSize=40;" vertex="1" parent="1">
          <mxGeometry x="2" y="174" width="60" height="30" as="geometry" />
        </mxCell>
        <mxCell id="JId2pdeKCIK8-URWpr0n-1" value="" style="shape=flexArrow;endArrow=classic;html=1;rounded=0;fontSize=20;strokeWidth=1;entryX=-0.006;entryY=0.394;entryDx=0;entryDy=0;entryPerimeter=0;" edge="1" parent="1">
          <mxGeometry width="50" height="50" relative="1" as="geometry">
            <mxPoint x="11.99999999999991" y="249.65999999999985" as="sourcePoint" />
            <mxPoint x="118.4" y="250.05999999999995" as="targetPoint" />
          </mxGeometry>
        </mxCell>
        <mxCell id="JId2pdeKCIK8-URWpr0n-2" value="&lt;font style=&quot;font-size: 20px;&quot;&gt;EXEMEMi&lt;/font&gt;" style="text;html=1;strokeColor=none;fillColor=none;align=center;verticalAlign=middle;whiteSpace=wrap;rounded=0;fontSize=40;" vertex="1" parent="1">
          <mxGeometry x="31.200000000000024" y="210" width="60" height="30" as="geometry" />
        </mxCell>
        <mxCell id="JId2pdeKCIK8-URWpr0n-3" value="" style="shape=flexArrow;endArrow=classic;html=1;rounded=0;fontSize=20;strokeWidth=1;entryX=-0.006;entryY=0.394;entryDx=0;entryDy=0;entryPerimeter=0;" edge="1" parent="1">
          <mxGeometry width="50" height="50" relative="1" as="geometry">
            <mxPoint x="719.9999999999999" y="599.3099999999998" as="sourcePoint" />
            <mxPoint x="826.4" y="599.7099999999999" as="targetPoint" />
          </mxGeometry>
        </mxCell>
        <mxCell id="JId2pdeKCIK8-URWpr0n-4" value="&lt;font style=&quot;font-size: 20px;&quot;&gt;MEMWBo&lt;/font&gt;" style="text;html=1;strokeColor=none;fillColor=none;align=center;verticalAlign=middle;whiteSpace=wrap;rounded=0;fontSize=40;" vertex="1" parent="1">
          <mxGeometry x="739.2" y="559.65" width="60" height="30" as="geometry" />
        </mxCell>
        <mxCell id="JId2pdeKCIK8-URWpr0n-5" value="" style="endArrow=classic;html=1;rounded=0;fontSize=40;strokeWidth=1;entryX=-0.002;entryY=0.126;entryDx=0;entryDy=0;entryPerimeter=0;" edge="1" parent="1">
          <mxGeometry width="50" height="50" relative="1" as="geometry">
            <mxPoint x="11.2" y="606" as="sourcePoint" />
            <mxPoint x="119.99999999999973" y="605.6000000000004" as="targetPoint" />
          </mxGeometry>
        </mxCell>
        <mxCell id="JId2pdeKCIK8-URWpr0n-6" value="&lt;font style=&quot;font-size: 20px;&quot;&gt;DM_dataout&lt;/font&gt;" style="text;html=1;strokeColor=none;fillColor=none;align=center;verticalAlign=middle;whiteSpace=wrap;rounded=0;fontSize=40;" vertex="1" parent="1">
          <mxGeometry x="31.999999999999996" y="570" width="60" height="30" as="geometry" />
        </mxCell>
        <mxCell id="JId2pdeKCIK8-URWpr0n-7" value="" style="endArrow=classic;html=1;rounded=0;fontSize=40;strokeWidth=1;entryX=-0.002;entryY=0.126;entryDx=0;entryDy=0;entryPerimeter=0;" edge="1" parent="1">
          <mxGeometry width="50" height="50" relative="1" as="geometry">
            <mxPoint x="718.4" y="265" as="sourcePoint" />
            <mxPoint x="827.1999999999997" y="264.60000000000036" as="targetPoint" />
          </mxGeometry>
        </mxCell>
        <mxCell id="JId2pdeKCIK8-URWpr0n-8" value="&lt;font style=&quot;font-size: 20px;&quot;&gt;MEM_CS&lt;/font&gt;" style="text;html=1;strokeColor=none;fillColor=none;align=center;verticalAlign=middle;whiteSpace=wrap;rounded=0;fontSize=40;" vertex="1" parent="1">
          <mxGeometry x="739.1999999999999" y="229" width="60" height="30" as="geometry" />
        </mxCell>
        <mxCell id="JId2pdeKCIK8-URWpr0n-9" value="" style="endArrow=classic;html=1;rounded=0;fontSize=40;strokeWidth=1;entryX=-0.002;entryY=0.126;entryDx=0;entryDy=0;entryPerimeter=0;" edge="1" parent="1">
          <mxGeometry width="50" height="50" relative="1" as="geometry">
            <mxPoint x="720" y="470.40000000000003" as="sourcePoint" />
            <mxPoint x="828.7999999999997" y="470.0000000000004" as="targetPoint" />
          </mxGeometry>
        </mxCell>
        <mxCell id="JId2pdeKCIK8-URWpr0n-10" value="&lt;font style=&quot;font-size: 20px;&quot;&gt;MEM_din&lt;/font&gt;" style="text;html=1;strokeColor=none;fillColor=none;align=center;verticalAlign=middle;whiteSpace=wrap;rounded=0;fontSize=40;" vertex="1" parent="1">
          <mxGeometry x="740.8" y="429.99999999999994" width="60" height="30" as="geometry" />
        </mxCell>
        <mxCell id="JId2pdeKCIK8-URWpr0n-11" value="" style="endArrow=classic;html=1;rounded=0;fontSize=40;strokeWidth=1;entryX=-0.002;entryY=0.126;entryDx=0;entryDy=0;entryPerimeter=0;" edge="1" parent="1">
          <mxGeometry width="50" height="50" relative="1" as="geometry">
            <mxPoint x="720" y="395.99999999999994" as="sourcePoint" />
            <mxPoint x="828.7999999999997" y="395.6000000000003" as="targetPoint" />
          </mxGeometry>
        </mxCell>
        <mxCell id="JId2pdeKCIK8-URWpr0n-12" value="&lt;font style=&quot;font-size: 20px;&quot;&gt;MEM_WEB&lt;/font&gt;" style="text;html=1;strokeColor=none;fillColor=none;align=center;verticalAlign=middle;whiteSpace=wrap;rounded=0;fontSize=40;" vertex="1" parent="1">
          <mxGeometry x="740.8" y="359.99999999999994" width="60" height="30" as="geometry" />
        </mxCell>
        <mxCell id="JId2pdeKCIK8-URWpr0n-13" value="" style="endArrow=classic;html=1;rounded=0;fontSize=40;strokeWidth=1;entryX=-0.002;entryY=0.126;entryDx=0;entryDy=0;entryPerimeter=0;" edge="1" parent="1">
          <mxGeometry width="50" height="50" relative="1" as="geometry">
            <mxPoint x="720" y="320.40000000000003" as="sourcePoint" />
            <mxPoint x="828.7999999999997" y="320.0000000000004" as="targetPoint" />
          </mxGeometry>
        </mxCell>
        <mxCell id="JId2pdeKCIK8-URWpr0n-14" value="&lt;font style=&quot;font-size: 20px;&quot;&gt;Forward_Memrddata&lt;/font&gt;" style="text;html=1;strokeColor=none;fillColor=none;align=center;verticalAlign=middle;whiteSpace=wrap;rounded=0;fontSize=40;" vertex="1" parent="1">
          <mxGeometry x="785" y="283" width="60" height="30" as="geometry" />
        </mxCell>
        <mxCell id="JId2pdeKCIK8-URWpr0n-15" value="" style="endArrow=classic;html=1;rounded=0;entryX=0.175;entryY=0.75;entryDx=0;entryDy=0;entryPerimeter=0;" edge="1" parent="1" target="JId2pdeKCIK8-URWpr0n-18">
          <mxGeometry width="50" height="50" relative="1" as="geometry">
            <mxPoint x="118.4" y="250" as="sourcePoint" />
            <mxPoint x="618.4" y="270" as="targetPoint" />
            <Array as="points">
              <mxPoint x="200" y="270" />
            </Array>
          </mxGeometry>
        </mxCell>
        <mxCell id="JId2pdeKCIK8-URWpr0n-16" value="" style="endArrow=classic;html=1;rounded=0;" edge="1" parent="1">
          <mxGeometry width="50" height="50" relative="1" as="geometry">
            <mxPoint x="118.4" y="250" as="sourcePoint" />
            <mxPoint x="118.4" y="250" as="targetPoint" />
          </mxGeometry>
        </mxCell>
        <mxCell id="JId2pdeKCIK8-URWpr0n-17" value="" style="endArrow=classic;html=1;rounded=0;entryX=0.175;entryY=0.25;entryDx=0;entryDy=0;entryPerimeter=0;" edge="1" parent="1" target="JId2pdeKCIK8-URWpr0n-18">
          <mxGeometry width="50" height="50" relative="1" as="geometry">
            <mxPoint x="118.4" y="250" as="sourcePoint" />
            <mxPoint x="618.4" y="270" as="targetPoint" />
          </mxGeometry>
        </mxCell>
        <mxCell id="JId2pdeKCIK8-URWpr0n-18" value="" style="shape=xor;whiteSpace=wrap;html=1;" vertex="1" parent="1">
          <mxGeometry x="358.4" y="241" width="20" height="40" as="geometry" />
        </mxCell>
        <mxCell id="JId2pdeKCIK8-URWpr0n-19" value="EXEMEMi.EXE_MemWrite" style="text;html=1;strokeColor=none;fillColor=none;align=center;verticalAlign=middle;whiteSpace=wrap;rounded=0;" vertex="1" parent="1">
          <mxGeometry x="250" y="246" width="60" height="30" as="geometry" />
        </mxCell>
        <mxCell id="JId2pdeKCIK8-URWpr0n-20" value="EXEMEMi.EXE_MemRead" style="text;html=1;strokeColor=none;fillColor=none;align=center;verticalAlign=middle;whiteSpace=wrap;rounded=0;" vertex="1" parent="1">
          <mxGeometry x="250" y="229" width="60" height="30" as="geometry" />
        </mxCell>
        <mxCell id="JId2pdeKCIK8-URWpr0n-21" value="" style="endArrow=classic;html=1;rounded=0;entryX=1;entryY=0.518;entryDx=0;entryDy=0;entryPerimeter=0;exitX=1;exitY=0.5;exitDx=0;exitDy=0;exitPerimeter=0;" edge="1" parent="1" source="JId2pdeKCIK8-URWpr0n-18">
          <mxGeometry width="50" height="50" relative="1" as="geometry">
            <mxPoint x="408.4" y="210" as="sourcePoint" />
            <mxPoint x="718.4" y="264.79999999999995" as="targetPoint" />
          </mxGeometry>
        </mxCell>
        <mxCell id="JId2pdeKCIK8-URWpr0n-22" value="" style="shape=trapezoid;perimeter=trapezoidPerimeter;whiteSpace=wrap;html=1;fixedSize=1;rotation=90;" vertex="1" parent="1">
          <mxGeometry x="338.4" y="310" width="60" height="20" as="geometry" />
        </mxCell>
        <mxCell id="JId2pdeKCIK8-URWpr0n-23" value="" style="endArrow=classic;html=1;rounded=0;entryX=0.65;entryY=1.07;entryDx=0;entryDy=0;entryPerimeter=0;" edge="1" parent="1" target="JId2pdeKCIK8-URWpr0n-22">
          <mxGeometry width="50" height="50" relative="1" as="geometry">
            <mxPoint x="120" y="250" as="sourcePoint" />
            <mxPoint x="510" y="300" as="targetPoint" />
            <Array as="points">
              <mxPoint x="200" y="330" />
            </Array>
          </mxGeometry>
        </mxCell>
        <mxCell id="JId2pdeKCIK8-URWpr0n-24" value="" style="endArrow=classic;html=1;rounded=0;entryX=0.4;entryY=1.034;entryDx=0;entryDy=0;entryPerimeter=0;" edge="1" parent="1" target="JId2pdeKCIK8-URWpr0n-22">
          <mxGeometry width="50" height="50" relative="1" as="geometry">
            <mxPoint x="120" y="250" as="sourcePoint" />
            <mxPoint x="510" y="300" as="targetPoint" />
            <Array as="points">
              <mxPoint x="200" y="314" />
            </Array>
          </mxGeometry>
        </mxCell>
        <mxCell id="JId2pdeKCIK8-URWpr0n-25" value="" style="endArrow=classic;html=1;rounded=0;entryX=0.999;entryY=0.29;entryDx=0;entryDy=0;entryPerimeter=0;exitX=0.5;exitY=0;exitDx=0;exitDy=0;" edge="1" parent="1" source="JId2pdeKCIK8-URWpr0n-22" target="57eDhGOJmc79B51WA6YS-1">
          <mxGeometry width="50" height="50" relative="1" as="geometry">
            <mxPoint x="460" y="350" as="sourcePoint" />
            <mxPoint x="510" y="300" as="targetPoint" />
          </mxGeometry>
        </mxCell>
        <mxCell id="JId2pdeKCIK8-URWpr0n-26" value="EXEMEMi.EXE_PCtoReg" style="text;html=1;strokeColor=none;fillColor=none;align=center;verticalAlign=middle;whiteSpace=wrap;rounded=0;" vertex="1" parent="1">
          <mxGeometry x="247" y="290" width="60" height="30" as="geometry" />
        </mxCell>
        <mxCell id="JId2pdeKCIK8-URWpr0n-27" value="EXEMEMi.EXE_ALUout" style="text;html=1;strokeColor=none;fillColor=none;align=center;verticalAlign=middle;whiteSpace=wrap;rounded=0;" vertex="1" parent="1">
          <mxGeometry x="243" y="308" width="60" height="30" as="geometry" />
        </mxCell>
        <mxCell id="JId2pdeKCIK8-URWpr0n-28" value="" style="endArrow=classic;html=1;rounded=0;entryX=0;entryY=0.5;entryDx=0;entryDy=0;" edge="1" parent="1" target="JId2pdeKCIK8-URWpr0n-22">
          <mxGeometry width="50" height="50" relative="1" as="geometry">
            <mxPoint x="120" y="250" as="sourcePoint" />
            <mxPoint x="510" y="300" as="targetPoint" />
            <Array as="points">
              <mxPoint x="200" y="290" />
              <mxPoint x="370" y="290" />
            </Array>
          </mxGeometry>
        </mxCell>
        <mxCell id="JId2pdeKCIK8-URWpr0n-29" value="EXEMEMi.EXE_rdsrc" style="text;html=1;strokeColor=none;fillColor=none;align=center;verticalAlign=middle;whiteSpace=wrap;rounded=0;" vertex="1" parent="1">
          <mxGeometry x="236" y="268" width="60" height="30" as="geometry" />
        </mxCell>
        <mxCell id="JId2pdeKCIK8-URWpr0n-30" value="" style="shape=trapezoid;perimeter=trapezoidPerimeter;whiteSpace=wrap;html=1;fixedSize=1;rotation=90;" vertex="1" parent="1">
          <mxGeometry x="338.4" y="380" width="60" height="20" as="geometry" />
        </mxCell>
        <mxCell id="JId2pdeKCIK8-URWpr0n-31" value="" style="endArrow=classic;html=1;rounded=0;entryX=0;entryY=0.25;entryDx=0;entryDy=0;exitX=-0.001;exitY=0.177;exitDx=0;exitDy=0;exitPerimeter=0;" edge="1" parent="1" source="57eDhGOJmc79B51WA6YS-1" target="JId2pdeKCIK8-URWpr0n-30">
          <mxGeometry width="50" height="50" relative="1" as="geometry">
            <mxPoint x="460" y="430" as="sourcePoint" />
            <mxPoint x="510" y="380" as="targetPoint" />
            <Array as="points">
              <mxPoint x="200" y="350" />
              <mxPoint x="371" y="350" />
            </Array>
          </mxGeometry>
        </mxCell>
        <mxCell id="JId2pdeKCIK8-URWpr0n-33" value="EXEMEMi.EXE_Funct3" style="text;html=1;strokeColor=none;fillColor=none;align=center;verticalAlign=middle;whiteSpace=wrap;rounded=0;" vertex="1" parent="1">
          <mxGeometry x="242" y="327" width="60" height="30" as="geometry" />
        </mxCell>
        <mxCell id="JId2pdeKCIK8-URWpr0n-34" value="" style="endArrow=classic;html=1;rounded=0;entryX=0.5;entryY=1;entryDx=0;entryDy=0;" edge="1" parent="1" target="JId2pdeKCIK8-URWpr0n-30">
          <mxGeometry width="50" height="50" relative="1" as="geometry">
            <mxPoint x="200" y="330" as="sourcePoint" />
            <mxPoint x="338.4000000000001" y="370" as="targetPoint" />
            <Array as="points">
              <mxPoint x="200" y="390" />
            </Array>
          </mxGeometry>
        </mxCell>
        <mxCell id="JId2pdeKCIK8-URWpr0n-35" value="" style="endArrow=classic;html=1;rounded=0;exitX=0.5;exitY=0;exitDx=0;exitDy=0;entryX=0.999;entryY=0.42;entryDx=0;entryDy=0;entryPerimeter=0;" edge="1" parent="1" source="JId2pdeKCIK8-URWpr0n-30" target="57eDhGOJmc79B51WA6YS-1">
          <mxGeometry width="50" height="50" relative="1" as="geometry">
            <mxPoint x="460" y="430" as="sourcePoint" />
            <mxPoint x="510" y="380" as="targetPoint" />
          </mxGeometry>
        </mxCell>
        <mxCell id="JId2pdeKCIK8-URWpr0n-36" value="" style="shape=trapezoid;perimeter=trapezoidPerimeter;whiteSpace=wrap;html=1;fixedSize=1;rotation=90;" vertex="1" parent="1">
          <mxGeometry x="337.4" y="460" width="60" height="20" as="geometry" />
        </mxCell>
        <mxCell id="JId2pdeKCIK8-URWpr0n-37" value="" style="endArrow=classic;html=1;rounded=0;entryX=0;entryY=0.25;entryDx=0;entryDy=0;" edge="1" parent="1" target="JId2pdeKCIK8-URWpr0n-36">
          <mxGeometry width="50" height="50" relative="1" as="geometry">
            <mxPoint x="213" y="350.02597402597405" as="sourcePoint" />
            <mxPoint x="414" y="444" as="targetPoint" />
            <Array as="points">
              <mxPoint x="213" y="430" />
              <mxPoint x="371" y="430" />
            </Array>
          </mxGeometry>
        </mxCell>
        <mxCell id="JId2pdeKCIK8-URWpr0n-39" value="" style="endArrow=classic;html=1;rounded=0;entryX=0.25;entryY=1;entryDx=0;entryDy=0;" edge="1" parent="1" target="JId2pdeKCIK8-URWpr0n-36">
          <mxGeometry width="50" height="50" relative="1" as="geometry">
            <mxPoint x="200" y="390" as="sourcePoint" />
            <mxPoint x="560" y="440" as="targetPoint" />
            <Array as="points">
              <mxPoint x="200" y="455" />
            </Array>
          </mxGeometry>
        </mxCell>
        <mxCell id="JId2pdeKCIK8-URWpr0n-40" value="" style="endArrow=classic;html=1;rounded=0;entryX=0.75;entryY=1;entryDx=0;entryDy=0;" edge="1" parent="1" target="JId2pdeKCIK8-URWpr0n-36">
          <mxGeometry width="50" height="50" relative="1" as="geometry">
            <mxPoint x="120" y="250" as="sourcePoint" />
            <mxPoint x="290" y="360" as="targetPoint" />
            <Array as="points">
              <mxPoint x="200" y="485" />
            </Array>
          </mxGeometry>
        </mxCell>
        <mxCell id="JId2pdeKCIK8-URWpr0n-41" value="EXEMEMi.EXE_rs2data" style="text;html=1;strokeColor=none;fillColor=none;align=center;verticalAlign=middle;whiteSpace=wrap;rounded=0;" vertex="1" parent="1">
          <mxGeometry x="247" y="460" width="60" height="30" as="geometry" />
        </mxCell>
        <mxCell id="JId2pdeKCIK8-URWpr0n-42" value="" style="endArrow=classic;html=1;rounded=0;entryX=0.998;entryY=0.544;entryDx=0;entryDy=0;entryPerimeter=0;exitX=0.5;exitY=0;exitDx=0;exitDy=0;" edge="1" parent="1" source="JId2pdeKCIK8-URWpr0n-36" target="57eDhGOJmc79B51WA6YS-1">
          <mxGeometry width="50" height="50" relative="1" as="geometry">
            <mxPoint x="440" y="590" as="sourcePoint" />
            <mxPoint x="490" y="540" as="targetPoint" />
          </mxGeometry>
        </mxCell>
        <mxCell id="JId2pdeKCIK8-URWpr0n-43" value="" style="shape=trapezoid;perimeter=trapezoidPerimeter;whiteSpace=wrap;html=1;fixedSize=1;rotation=90;" vertex="1" parent="1">
          <mxGeometry x="337.4" y="589.65" width="60" height="20" as="geometry" />
        </mxCell>
        <mxCell id="JId2pdeKCIK8-URWpr0n-44" value="" style="endArrow=classic;html=1;rounded=0;entryX=0.5;entryY=1;entryDx=0;entryDy=0;exitX=-0.001;exitY=0.768;exitDx=0;exitDy=0;exitPerimeter=0;" edge="1" parent="1" source="57eDhGOJmc79B51WA6YS-1" target="JId2pdeKCIK8-URWpr0n-43">
          <mxGeometry width="50" height="50" relative="1" as="geometry">
            <mxPoint x="440" y="440" as="sourcePoint" />
            <mxPoint x="490" y="390" as="targetPoint" />
          </mxGeometry>
        </mxCell>
        <mxCell id="JId2pdeKCIK8-URWpr0n-45" value="" style="endArrow=classic;html=1;rounded=0;entryX=1.001;entryY=0.759;entryDx=0;entryDy=0;entryPerimeter=0;exitX=0.5;exitY=0;exitDx=0;exitDy=0;" edge="1" parent="1" source="JId2pdeKCIK8-URWpr0n-43" target="57eDhGOJmc79B51WA6YS-1">
          <mxGeometry width="50" height="50" relative="1" as="geometry">
            <mxPoint x="440" y="440" as="sourcePoint" />
            <mxPoint x="490" y="390" as="targetPoint" />
          </mxGeometry>
        </mxCell>
        <mxCell id="JId2pdeKCIK8-URWpr0n-46" value="" style="endArrow=classic;html=1;rounded=0;entryX=0;entryY=0.5;entryDx=0;entryDy=0;" edge="1" parent="1" target="JId2pdeKCIK8-URWpr0n-43">
          <mxGeometry width="50" height="50" relative="1" as="geometry">
            <mxPoint x="213" y="430" as="sourcePoint" />
            <mxPoint x="360.4" y="579.65" as="targetPoint" />
            <Array as="points">
              <mxPoint x="213" y="520" />
              <mxPoint x="370" y="520" />
            </Array>
          </mxGeometry>
        </mxCell>
        <mxCell id="JId2pdeKCIK8-URWpr0n-47" value="" style="endArrow=classic;html=1;rounded=0;" edge="1" parent="1">
          <mxGeometry width="50" height="50" relative="1" as="geometry">
            <mxPoint x="120" y="250" as="sourcePoint" />
            <mxPoint x="720" y="600" as="targetPoint" />
            <Array as="points">
              <mxPoint x="200" y="560" />
              <mxPoint x="680" y="560" />
            </Array>
          </mxGeometry>
        </mxCell>
        <mxCell id="JId2pdeKCIK8-URWpr0n-48" value="Other EXE Signal" style="text;html=1;strokeColor=none;fillColor=none;align=center;verticalAlign=middle;whiteSpace=wrap;rounded=0;" vertex="1" parent="1">
          <mxGeometry x="223.5" y="535" width="113" height="30" as="geometry" />
        </mxCell>
      </root>
    </mxGraphModel>
  </diagram>
  <diagram id="7-mL5hIUDT9angLsdDdJ" name="WB">
    <mxGraphModel dx="635" dy="961" grid="1" gridSize="10" guides="1" tooltips="1" connect="1" arrows="1" fold="1" page="1" pageScale="1" pageWidth="850" pageHeight="1100" math="0" shadow="0">
      <root>
        <mxCell id="0" />
        <mxCell id="1" parent="0" />
        <mxCell id="Vc2QGBWWbAsk21zOV9vn-1" value="" style="whiteSpace=wrap;html=1;aspect=fixed;fontSize=40;fillColor=none;" vertex="1" parent="1">
          <mxGeometry x="120" y="144" width="600" height="600" as="geometry" />
        </mxCell>
        <mxCell id="9tgvM5QJXkkwNFtkvDUL-1" value="" style="shape=flexArrow;endArrow=classic;html=1;rounded=0;fontSize=20;strokeWidth=1;entryX=-0.006;entryY=0.394;entryDx=0;entryDy=0;entryPerimeter=0;" edge="1" parent="1">
          <mxGeometry width="50" height="50" relative="1" as="geometry">
            <mxPoint x="12" y="249.65999999999985" as="sourcePoint" />
            <mxPoint x="118.40000000000009" y="250.05999999999995" as="targetPoint" />
          </mxGeometry>
        </mxCell>
        <mxCell id="9tgvM5QJXkkwNFtkvDUL-2" value="" style="endArrow=classic;html=1;rounded=0;" edge="1" parent="1">
          <mxGeometry width="50" height="50" relative="1" as="geometry">
            <mxPoint x="118.40000000000009" y="250" as="sourcePoint" />
            <mxPoint x="118.40000000000009" y="250" as="targetPoint" />
          </mxGeometry>
        </mxCell>
        <mxCell id="Fz1579PSHOkio13rO35x-1" value="&lt;font style=&quot;font-size: 20px;&quot;&gt;EXEMEMi&lt;/font&gt;" style="text;html=1;strokeColor=none;fillColor=none;align=center;verticalAlign=middle;whiteSpace=wrap;rounded=0;fontSize=40;" vertex="1" parent="1">
          <mxGeometry x="31.200000000000024" y="210" width="60" height="30" as="geometry" />
        </mxCell>
        <mxCell id="MWc5BoklTyB6EtAnnS4b-1" value="" style="endArrow=classic;html=1;rounded=0;fontSize=40;strokeWidth=1;entryX=-0.002;entryY=0.126;entryDx=0;entryDy=0;entryPerimeter=0;" edge="1" parent="1">
          <mxGeometry width="50" height="50" relative="1" as="geometry">
            <mxPoint x="720" y="330.4000000000001" as="sourcePoint" />
            <mxPoint x="828.7999999999997" y="330.00000000000045" as="targetPoint" />
          </mxGeometry>
        </mxCell>
        <mxCell id="MWc5BoklTyB6EtAnnS4b-2" value="&lt;font style=&quot;font-size: 20px;&quot;&gt;WB_rdaddr&lt;/font&gt;" style="text;html=1;strokeColor=none;fillColor=none;align=center;verticalAlign=middle;whiteSpace=wrap;rounded=0;fontSize=40;" vertex="1" parent="1">
          <mxGeometry x="740.8" y="289.99999999999994" width="60" height="30" as="geometry" />
        </mxCell>
        <mxCell id="MWc5BoklTyB6EtAnnS4b-3" value="" style="endArrow=classic;html=1;rounded=0;fontSize=40;strokeWidth=1;entryX=-0.002;entryY=0.126;entryDx=0;entryDy=0;entryPerimeter=0;" edge="1" parent="1">
          <mxGeometry width="50" height="50" relative="1" as="geometry">
            <mxPoint x="720" y="256" as="sourcePoint" />
            <mxPoint x="828.7999999999997" y="255.60000000000036" as="targetPoint" />
          </mxGeometry>
        </mxCell>
        <mxCell id="MWc5BoklTyB6EtAnnS4b-4" value="&lt;font style=&quot;font-size: 20px;&quot;&gt;WB_rddata&lt;/font&gt;" style="text;html=1;strokeColor=none;fillColor=none;align=center;verticalAlign=middle;whiteSpace=wrap;rounded=0;fontSize=40;" vertex="1" parent="1">
          <mxGeometry x="740.8" y="219.99999999999994" width="60" height="30" as="geometry" />
        </mxCell>
        <mxCell id="MWc5BoklTyB6EtAnnS4b-5" value="" style="endArrow=classic;html=1;rounded=0;fontSize=40;strokeWidth=1;entryX=-0.002;entryY=0.126;entryDx=0;entryDy=0;entryPerimeter=0;" edge="1" parent="1">
          <mxGeometry width="50" height="50" relative="1" as="geometry">
            <mxPoint x="720" y="400.4000000000001" as="sourcePoint" />
            <mxPoint x="828.7999999999997" y="400.00000000000045" as="targetPoint" />
          </mxGeometry>
        </mxCell>
        <mxCell id="MWc5BoklTyB6EtAnnS4b-6" value="&lt;font style=&quot;font-size: 20px;&quot;&gt;WB_RegWrite&lt;/font&gt;" style="text;html=1;strokeColor=none;fillColor=none;align=center;verticalAlign=middle;whiteSpace=wrap;rounded=0;fontSize=40;" vertex="1" parent="1">
          <mxGeometry x="755" y="361.99999999999994" width="60" height="30" as="geometry" />
        </mxCell>
        <mxCell id="MWc5BoklTyB6EtAnnS4b-7" value="" style="endArrow=classic;html=1;rounded=0;fontColor=#FFFFFF;entryX=0.999;entryY=0.31;entryDx=0;entryDy=0;entryPerimeter=0;exitX=-0.002;exitY=0.172;exitDx=0;exitDy=0;exitPerimeter=0;" edge="1" parent="1" source="Vc2QGBWWbAsk21zOV9vn-1" target="Vc2QGBWWbAsk21zOV9vn-1">
          <mxGeometry width="50" height="50" relative="1" as="geometry">
            <mxPoint x="470" y="510" as="sourcePoint" />
            <mxPoint x="520" y="460" as="targetPoint" />
            <Array as="points">
              <mxPoint x="200" y="330" />
            </Array>
          </mxGeometry>
        </mxCell>
        <mxCell id="MWc5BoklTyB6EtAnnS4b-8" value="" style="endArrow=classic;html=1;rounded=0;fontColor=#FFFFFF;entryX=1;entryY=0.428;entryDx=0;entryDy=0;entryPerimeter=0;exitX=-0.002;exitY=0.176;exitDx=0;exitDy=0;exitPerimeter=0;" edge="1" parent="1" source="Vc2QGBWWbAsk21zOV9vn-1" target="Vc2QGBWWbAsk21zOV9vn-1">
          <mxGeometry width="50" height="50" relative="1" as="geometry">
            <mxPoint x="470" y="510" as="sourcePoint" />
            <mxPoint x="520" y="460" as="targetPoint" />
            <Array as="points">
              <mxPoint x="200" y="400" />
            </Array>
          </mxGeometry>
        </mxCell>
        <mxCell id="MWc5BoklTyB6EtAnnS4b-9" value="" style="shape=trapezoid;perimeter=trapezoidPerimeter;whiteSpace=wrap;html=1;fixedSize=1;labelBackgroundColor=none;fontColor=#FFFFFF;fillColor=none;rotation=90;" vertex="1" parent="1">
          <mxGeometry x="480" y="230" width="80" height="40" as="geometry" />
        </mxCell>
        <mxCell id="MWc5BoklTyB6EtAnnS4b-10" value="" style="endArrow=classic;html=1;rounded=0;fontColor=#FFFFFF;entryX=0.75;entryY=1;entryDx=0;entryDy=0;" edge="1" parent="1" target="MWc5BoklTyB6EtAnnS4b-9">
          <mxGeometry width="50" height="50" relative="1" as="geometry">
            <mxPoint x="120" y="250" as="sourcePoint" />
            <mxPoint x="520" y="460" as="targetPoint" />
            <Array as="points">
              <mxPoint x="200" y="270" />
            </Array>
          </mxGeometry>
        </mxCell>
        <mxCell id="MWc5BoklTyB6EtAnnS4b-11" value="" style="endArrow=classic;html=1;rounded=0;fontColor=#FFFFFF;entryX=0.25;entryY=1;entryDx=0;entryDy=0;" edge="1" parent="1" target="MWc5BoklTyB6EtAnnS4b-9">
          <mxGeometry width="50" height="50" relative="1" as="geometry">
            <mxPoint x="120" y="250" as="sourcePoint" />
            <mxPoint x="520" y="460" as="targetPoint" />
            <Array as="points">
              <mxPoint x="200" y="230" />
            </Array>
          </mxGeometry>
        </mxCell>
        <mxCell id="MWc5BoklTyB6EtAnnS4b-12" value="" style="endArrow=classic;html=1;rounded=0;fontColor=#FFFFFF;entryX=0.999;entryY=0.187;entryDx=0;entryDy=0;entryPerimeter=0;exitX=0.5;exitY=0;exitDx=0;exitDy=0;" edge="1" parent="1" source="MWc5BoklTyB6EtAnnS4b-9" target="Vc2QGBWWbAsk21zOV9vn-1">
          <mxGeometry width="50" height="50" relative="1" as="geometry">
            <mxPoint x="470" y="510" as="sourcePoint" />
            <mxPoint x="520" y="460" as="targetPoint" />
          </mxGeometry>
        </mxCell>
        <mxCell id="MWc5BoklTyB6EtAnnS4b-13" value="MEMWBi.MEM_dout" style="text;html=1;strokeColor=none;fillColor=none;align=center;verticalAlign=middle;whiteSpace=wrap;rounded=0;labelBackgroundColor=none;fontColor=#FFFFFF;" vertex="1" parent="1">
          <mxGeometry x="228" y="250" width="60" height="30" as="geometry" />
        </mxCell>
        <mxCell id="MWc5BoklTyB6EtAnnS4b-14" value="MEMWBi.MEM_rddata" style="text;html=1;strokeColor=none;fillColor=none;align=center;verticalAlign=middle;whiteSpace=wrap;rounded=0;labelBackgroundColor=none;fontColor=#FFFFFF;" vertex="1" parent="1">
          <mxGeometry x="233" y="210" width="60" height="30" as="geometry" />
        </mxCell>
        <mxCell id="MWc5BoklTyB6EtAnnS4b-15" value="MEMWBi.MEM_rdaddr" style="text;html=1;strokeColor=none;fillColor=none;align=center;verticalAlign=middle;whiteSpace=wrap;rounded=0;labelBackgroundColor=none;fontColor=#FFFFFF;" vertex="1" parent="1">
          <mxGeometry x="234" y="305" width="60" height="30" as="geometry" />
        </mxCell>
        <mxCell id="MWc5BoklTyB6EtAnnS4b-16" value="MEMWBi.MEM_RegWrite" style="text;html=1;strokeColor=none;fillColor=none;align=center;verticalAlign=middle;whiteSpace=wrap;rounded=0;labelBackgroundColor=none;fontColor=#FFFFFF;" vertex="1" parent="1">
          <mxGeometry x="241" y="374" width="60" height="30" as="geometry" />
        </mxCell>
        <mxCell id="MWc5BoklTyB6EtAnnS4b-17" value="" style="endArrow=classic;html=1;rounded=0;fontColor=#FFFFFF;entryX=0;entryY=0.25;entryDx=0;entryDy=0;exitX=-0.003;exitY=0.176;exitDx=0;exitDy=0;exitPerimeter=0;" edge="1" parent="1" source="Vc2QGBWWbAsk21zOV9vn-1" target="MWc5BoklTyB6EtAnnS4b-9">
          <mxGeometry width="50" height="50" relative="1" as="geometry">
            <mxPoint x="470" y="510" as="sourcePoint" />
            <mxPoint x="520" y="460" as="targetPoint" />
            <Array as="points">
              <mxPoint x="200" y="180" />
              <mxPoint x="527" y="180" />
            </Array>
          </mxGeometry>
        </mxCell>
        <mxCell id="MWc5BoklTyB6EtAnnS4b-18" value="MEMWBi.MEM_MemtoReg" style="text;html=1;strokeColor=none;fillColor=none;align=center;verticalAlign=middle;whiteSpace=wrap;rounded=0;labelBackgroundColor=none;fontColor=#FFFFFF;" vertex="1" parent="1">
          <mxGeometry x="425" y="157" width="60" height="30" as="geometry" />
        </mxCell>
      </root>
    </mxGraphModel>
  </diagram>
  <diagram id="X8ZEDvNwNjErvz2uMaKx" name="BC">
    <mxGraphModel dx="610" dy="922" grid="1" gridSize="10" guides="1" tooltips="1" connect="1" arrows="1" fold="1" page="1" pageScale="1" pageWidth="850" pageHeight="1100" math="0" shadow="0">
      <root>
        <mxCell id="0" />
        <mxCell id="1" parent="0" />
        <mxCell id="QE1Qx9i09-CgcCBu3kgi-1" value="" style="rounded=0;whiteSpace=wrap;html=1;labelBackgroundColor=none;fontColor=#FFFFFF;fillColor=none;" vertex="1" parent="1">
          <mxGeometry x="280" y="270" width="270" height="190" as="geometry" />
        </mxCell>
        <mxCell id="hml3OM1OSuXC-VDqhkCS-1" value="" style="endArrow=classic;html=1;rounded=0;fontSize=40;strokeWidth=1;entryX=-0.002;entryY=0.126;entryDx=0;entryDy=0;entryPerimeter=0;" edge="1" parent="1">
          <mxGeometry width="50" height="50" relative="1" as="geometry">
            <mxPoint x="550" y="365.2" as="sourcePoint" />
            <mxPoint x="658.7999999999997" y="364.80000000000035" as="targetPoint" />
          </mxGeometry>
        </mxCell>
        <mxCell id="hml3OM1OSuXC-VDqhkCS-2" value="&lt;font style=&quot;font-size: 20px;&quot;&gt;BranchCtrl&lt;/font&gt;" style="text;html=1;strokeColor=none;fillColor=none;align=center;verticalAlign=middle;whiteSpace=wrap;rounded=0;fontSize=40;" vertex="1" parent="1">
          <mxGeometry x="570.8" y="324.99999999999994" width="60" height="30" as="geometry" />
        </mxCell>
        <mxCell id="hml3OM1OSuXC-VDqhkCS-3" value="" style="endArrow=classic;html=1;rounded=0;fontSize=40;strokeWidth=1;entryX=-0.002;entryY=0.126;entryDx=0;entryDy=0;entryPerimeter=0;" edge="1" parent="1">
          <mxGeometry width="50" height="50" relative="1" as="geometry">
            <mxPoint x="170.39999999999998" y="382.4" as="sourcePoint" />
            <mxPoint x="279.1999999999997" y="382.00000000000034" as="targetPoint" />
          </mxGeometry>
        </mxCell>
        <mxCell id="hml3OM1OSuXC-VDqhkCS-4" value="&lt;font style=&quot;font-size: 20px;&quot;&gt;ZeroFlag&lt;/font&gt;" style="text;html=1;strokeColor=none;fillColor=none;align=center;verticalAlign=middle;whiteSpace=wrap;rounded=0;fontSize=40;" vertex="1" parent="1">
          <mxGeometry x="190.79999999999995" y="339.99999999999994" width="60" height="30" as="geometry" />
        </mxCell>
        <mxCell id="hml3OM1OSuXC-VDqhkCS-5" value="" style="endArrow=classic;html=1;rounded=0;fontSize=40;strokeWidth=1;entryX=-0.002;entryY=0.126;entryDx=0;entryDy=0;entryPerimeter=0;" edge="1" parent="1">
          <mxGeometry width="50" height="50" relative="1" as="geometry">
            <mxPoint x="170" y="306" as="sourcePoint" />
            <mxPoint x="278.7999999999997" y="305.60000000000036" as="targetPoint" />
          </mxGeometry>
        </mxCell>
        <mxCell id="hml3OM1OSuXC-VDqhkCS-6" value="&lt;font style=&quot;font-size: 20px;&quot;&gt;ID_branch&lt;/font&gt;" style="text;html=1;strokeColor=none;fillColor=none;align=center;verticalAlign=middle;whiteSpace=wrap;rounded=0;fontSize=40;" vertex="1" parent="1">
          <mxGeometry x="190.79999999999995" y="269.99999999999994" width="60" height="30" as="geometry" />
        </mxCell>
        <mxCell id="hml3OM1OSuXC-VDqhkCS-7" value="" style="shape=trapezoid;perimeter=trapezoidPerimeter;whiteSpace=wrap;html=1;fixedSize=1;labelBackgroundColor=none;fontColor=#FFFFFF;fillColor=none;rotation=90;" vertex="1" parent="1">
          <mxGeometry x="375" y="350" width="100" height="40" as="geometry" />
        </mxCell>
        <mxCell id="hml3OM1OSuXC-VDqhkCS-8" value="" style="endArrow=classic;html=1;rounded=0;fontColor=#FFFFFF;entryX=0.124;entryY=0.374;entryDx=0;entryDy=0;exitX=-0.002;exitY=0.592;exitDx=0;exitDy=0;exitPerimeter=0;entryPerimeter=0;" edge="1" parent="1" source="QE1Qx9i09-CgcCBu3kgi-1" target="hml3OM1OSuXC-VDqhkCS-7">
          <mxGeometry width="50" height="50" relative="1" as="geometry">
            <mxPoint x="410" y="550" as="sourcePoint" />
            <mxPoint x="460" y="500" as="targetPoint" />
            <Array as="points">
              <mxPoint x="360" y="383" />
              <mxPoint x="360" y="300" />
              <mxPoint x="430" y="300" />
            </Array>
          </mxGeometry>
        </mxCell>
        <mxCell id="hml3OM1OSuXC-VDqhkCS-9" value="" style="endArrow=classic;html=1;rounded=0;fontColor=#FFFFFF;entryX=0;entryY=0.75;entryDx=0;entryDy=0;exitX=-0.002;exitY=0.189;exitDx=0;exitDy=0;exitPerimeter=0;" edge="1" parent="1" source="QE1Qx9i09-CgcCBu3kgi-1" target="hml3OM1OSuXC-VDqhkCS-7">
          <mxGeometry width="50" height="50" relative="1" as="geometry">
            <mxPoint x="410" y="550" as="sourcePoint" />
            <mxPoint x="460" y="500" as="targetPoint" />
            <Array as="points">
              <mxPoint x="416" y="310" />
            </Array>
          </mxGeometry>
        </mxCell>
        <mxCell id="hml3OM1OSuXC-VDqhkCS-10" value="" style="endArrow=classic;html=1;rounded=0;fontColor=#FFFFFF;entryX=0.25;entryY=1;entryDx=0;entryDy=0;" edge="1" parent="1" target="hml3OM1OSuXC-VDqhkCS-7">
          <mxGeometry width="50" height="50" relative="1" as="geometry">
            <mxPoint x="350" y="345" as="sourcePoint" />
            <mxPoint x="395" y="345" as="targetPoint" />
          </mxGeometry>
        </mxCell>
        <mxCell id="hml3OM1OSuXC-VDqhkCS-11" value="" style="endArrow=classic;html=1;rounded=0;fontColor=#FFFFFF;entryX=0.5;entryY=1;entryDx=0;entryDy=0;" edge="1" parent="1" target="hml3OM1OSuXC-VDqhkCS-7">
          <mxGeometry width="50" height="50" relative="1" as="geometry">
            <mxPoint x="350" y="370" as="sourcePoint" />
            <mxPoint x="395" y="370" as="targetPoint" />
          </mxGeometry>
        </mxCell>
        <mxCell id="hml3OM1OSuXC-VDqhkCS-12" value="" style="endArrow=classic;html=1;rounded=0;fontColor=#FFFFFF;entryX=0.803;entryY=1.021;entryDx=0;entryDy=0;entryPerimeter=0;" edge="1" parent="1" target="hml3OM1OSuXC-VDqhkCS-7">
          <mxGeometry width="50" height="50" relative="1" as="geometry">
            <mxPoint x="350" y="400" as="sourcePoint" />
            <mxPoint x="395" y="400" as="targetPoint" />
          </mxGeometry>
        </mxCell>
        <mxCell id="hml3OM1OSuXC-VDqhkCS-13" value="PC4" style="text;html=1;strokeColor=none;fillColor=none;align=center;verticalAlign=middle;whiteSpace=wrap;rounded=0;labelBackgroundColor=none;fontColor=#FFFFFF;" vertex="1" parent="1">
          <mxGeometry x="300" y="330" width="60" height="30" as="geometry" />
        </mxCell>
        <mxCell id="hml3OM1OSuXC-VDqhkCS-14" value="PCB" style="text;html=1;strokeColor=none;fillColor=none;align=center;verticalAlign=middle;whiteSpace=wrap;rounded=0;labelBackgroundColor=none;fontColor=#FFFFFF;" vertex="1" parent="1">
          <mxGeometry x="300" y="355" width="60" height="30" as="geometry" />
        </mxCell>
        <mxCell id="hml3OM1OSuXC-VDqhkCS-15" value="PCJR" style="text;html=1;strokeColor=none;fillColor=none;align=center;verticalAlign=middle;whiteSpace=wrap;rounded=0;labelBackgroundColor=none;fontColor=#FFFFFF;" vertex="1" parent="1">
          <mxGeometry x="300" y="386" width="60" height="30" as="geometry" />
        </mxCell>
        <mxCell id="hml3OM1OSuXC-VDqhkCS-16" value="" style="endArrow=classic;html=1;rounded=0;fontColor=#FFFFFF;entryX=1;entryY=0.5;entryDx=0;entryDy=0;exitX=0.5;exitY=0;exitDx=0;exitDy=0;" edge="1" parent="1" source="hml3OM1OSuXC-VDqhkCS-7" target="QE1Qx9i09-CgcCBu3kgi-1">
          <mxGeometry width="50" height="50" relative="1" as="geometry">
            <mxPoint x="440" y="380" as="sourcePoint" />
            <mxPoint x="490" y="330" as="targetPoint" />
          </mxGeometry>
        </mxCell>
      </root>
    </mxGraphModel>
  </diagram>
  <diagram id="7ZAiIN9FB5rrA3DNsC_1" name="HC">
    <mxGraphModel dx="363" dy="549" grid="1" gridSize="10" guides="1" tooltips="1" connect="1" arrows="1" fold="1" page="1" pageScale="1" pageWidth="850" pageHeight="1100" math="0" shadow="0">
      <root>
        <mxCell id="0" />
        <mxCell id="1" parent="0" />
        <mxCell id="5gSx2efqKRKYR32QAttA-1" value="" style="rounded=0;whiteSpace=wrap;html=1;labelBackgroundColor=none;fontColor=#FFFFFF;fillColor=none;" vertex="1" parent="1">
          <mxGeometry x="390" y="490" width="260" height="340" as="geometry" />
        </mxCell>
        <mxCell id="IpRQIt_RfKGhViC9b1it-1" value="" style="endArrow=classic;html=1;rounded=0;fontSize=40;strokeWidth=1;entryX=-0.002;entryY=0.126;entryDx=0;entryDy=0;entryPerimeter=0;" edge="1" parent="1">
          <mxGeometry width="50" height="50" relative="1" as="geometry">
            <mxPoint x="280.4" y="566.4000000000001" as="sourcePoint" />
            <mxPoint x="389.1999999999996" y="566.0000000000005" as="targetPoint" />
          </mxGeometry>
        </mxCell>
        <mxCell id="IpRQIt_RfKGhViC9b1it-2" value="&lt;font style=&quot;font-size: 20px;&quot;&gt;ID_MemRead&lt;/font&gt;" style="text;html=1;strokeColor=none;fillColor=none;align=center;verticalAlign=middle;whiteSpace=wrap;rounded=0;fontSize=40;" vertex="1" parent="1">
          <mxGeometry x="289.99999999999994" y="534" width="60" height="30" as="geometry" />
        </mxCell>
        <mxCell id="IpRQIt_RfKGhViC9b1it-3" value="" style="endArrow=classic;html=1;rounded=0;fontSize=40;strokeWidth=1;entryX=-0.002;entryY=0.126;entryDx=0;entryDy=0;entryPerimeter=0;" edge="1" parent="1">
          <mxGeometry width="50" height="50" relative="1" as="geometry">
            <mxPoint x="280" y="517" as="sourcePoint" />
            <mxPoint x="388.7999999999996" y="516.6000000000004" as="targetPoint" />
          </mxGeometry>
        </mxCell>
        <mxCell id="IpRQIt_RfKGhViC9b1it-4" value="&lt;font style=&quot;font-size: 20px;&quot;&gt;BranchCtrl&lt;/font&gt;" style="text;html=1;strokeColor=none;fillColor=none;align=center;verticalAlign=middle;whiteSpace=wrap;rounded=0;fontSize=40;" vertex="1" parent="1">
          <mxGeometry x="300.79999999999995" y="481" width="60" height="30" as="geometry" />
        </mxCell>
        <mxCell id="IpRQIt_RfKGhViC9b1it-6" value="&lt;font style=&quot;font-size: 20px;&quot;&gt;rs1addr&lt;/font&gt;" style="text;html=1;strokeColor=none;fillColor=none;align=center;verticalAlign=middle;whiteSpace=wrap;rounded=0;fontSize=40;" vertex="1" parent="1">
          <mxGeometry x="290.3999999999999" y="570" width="60" height="30" as="geometry" />
        </mxCell>
        <mxCell id="IpRQIt_RfKGhViC9b1it-8" value="&lt;font style=&quot;font-size: 20px;&quot;&gt;ID_rdaddr&lt;/font&gt;" style="text;html=1;strokeColor=none;fillColor=none;align=center;verticalAlign=middle;whiteSpace=wrap;rounded=0;fontSize=40;" vertex="1" parent="1">
          <mxGeometry x="289.99999999999994" y="670" width="60" height="30" as="geometry" />
        </mxCell>
        <mxCell id="IpRQIt_RfKGhViC9b1it-11" value="" style="endArrow=classic;html=1;rounded=0;fontSize=40;strokeWidth=1;entryX=-0.002;entryY=0.126;entryDx=0;entryDy=0;entryPerimeter=0;" edge="1" parent="1">
          <mxGeometry width="50" height="50" relative="1" as="geometry">
            <mxPoint x="281.2" y="710.4000000000001" as="sourcePoint" />
            <mxPoint x="389.9999999999996" y="710.0000000000005" as="targetPoint" />
          </mxGeometry>
        </mxCell>
        <mxCell id="IpRQIt_RfKGhViC9b1it-12" value="" style="endArrow=classic;html=1;rounded=0;fontSize=40;strokeWidth=1;entryX=-0.002;entryY=0.126;entryDx=0;entryDy=0;entryPerimeter=0;" edge="1" parent="1">
          <mxGeometry width="50" height="50" relative="1" as="geometry">
            <mxPoint x="281.2" y="610.4" as="sourcePoint" />
            <mxPoint x="389.9999999999996" y="610.0000000000003" as="targetPoint" />
          </mxGeometry>
        </mxCell>
        <mxCell id="IpRQIt_RfKGhViC9b1it-13" value="&lt;font style=&quot;font-size: 20px;&quot;&gt;rs2addr&lt;/font&gt;" style="text;html=1;strokeColor=none;fillColor=none;align=center;verticalAlign=middle;whiteSpace=wrap;rounded=0;fontSize=40;" vertex="1" parent="1">
          <mxGeometry x="290.3999999999999" y="620" width="60" height="30" as="geometry" />
        </mxCell>
        <mxCell id="IpRQIt_RfKGhViC9b1it-14" value="" style="endArrow=classic;html=1;rounded=0;fontSize=40;strokeWidth=1;entryX=-0.002;entryY=0.126;entryDx=0;entryDy=0;entryPerimeter=0;" edge="1" parent="1">
          <mxGeometry width="50" height="50" relative="1" as="geometry">
            <mxPoint x="281.20000000000005" y="660.4000000000001" as="sourcePoint" />
            <mxPoint x="389.99999999999955" y="660.0000000000005" as="targetPoint" />
          </mxGeometry>
        </mxCell>
        <mxCell id="zwIcPCQKBcrYARHlEjzs-1" value="" style="shape=flexArrow;endArrow=classic;html=1;rounded=0;fontSize=20;strokeWidth=1;entryX=-0.006;entryY=0.394;entryDx=0;entryDy=0;entryPerimeter=0;" edge="1" parent="1">
          <mxGeometry width="50" height="50" relative="1" as="geometry">
            <mxPoint x="650" y="619.9999999999998" as="sourcePoint" />
            <mxPoint x="756.4000000000001" y="620.3999999999999" as="targetPoint" />
          </mxGeometry>
        </mxCell>
        <mxCell id="zwIcPCQKBcrYARHlEjzs-2" value="IFHCo" style="text;html=1;strokeColor=none;fillColor=none;align=center;verticalAlign=middle;whiteSpace=wrap;rounded=0;labelBackgroundColor=none;fontColor=#FFFFFF;" vertex="1" parent="1">
          <mxGeometry x="660" y="590" width="60" height="30" as="geometry" />
        </mxCell>
        <mxCell id="zwIcPCQKBcrYARHlEjzs-3" value="&lt;font style=&quot;font-size: 20px;&quot;&gt;IDFlush&lt;/font&gt;" style="text;html=1;strokeColor=none;fillColor=none;align=center;verticalAlign=middle;whiteSpace=wrap;rounded=0;fontSize=40;" vertex="1" parent="1">
          <mxGeometry x="670" y="690" width="60" height="30" as="geometry" />
        </mxCell>
        <mxCell id="zwIcPCQKBcrYARHlEjzs-4" value="" style="endArrow=classic;html=1;rounded=0;fontSize=40;strokeWidth=1;entryX=-0.002;entryY=0.126;entryDx=0;entryDy=0;entryPerimeter=0;" edge="1" parent="1">
          <mxGeometry width="50" height="50" relative="1" as="geometry">
            <mxPoint x="650" y="730.4000000000001" as="sourcePoint" />
            <mxPoint x="758.7999999999995" y="730.0000000000005" as="targetPoint" />
          </mxGeometry>
        </mxCell>
      </root>
    </mxGraphModel>
  </diagram>
  <diagram id="g4Qx9bpBX96uK-WEnpeq" name="FU">
    <mxGraphModel dx="2042" dy="1160" grid="1" gridSize="10" guides="1" tooltips="1" connect="1" arrows="1" fold="1" page="1" pageScale="1" pageWidth="850" pageHeight="1100" math="0" shadow="0">
      <root>
        <mxCell id="0" />
        <mxCell id="1" parent="0" />
      </root>
    </mxGraphModel>
  </diagram>
</mxfile>
